<svg xmlns="http://www.w3.org/2000/svg" viewBox="0 0 32 32"><path d="M8.296 6.667h19.236c.626 0 1.133.567 1.133 1.193-.009.17-.009.17-.05.336l-3.012 9.702a2.332 2.332 0 01-2.228 1.642H11.67a2.335 2.335 0 01-2.243-1.689L6.211 6.652H3.935a1 1 0 110-2h2.727a1.4 1.4 0 011.346 1.014l.288 1zm.574 2l2.48 8.632a.334.334 0 00.32.241h11.705a.332.332 0 00.318-.235l2.662-8.638H8.87zM12.667 27a3 3 0 110-6 3 3 0 010 6zm0-2a1 1 0 100-2 1 1 0 000 2zm10 2a3 3 0 110-6 3 3 0 010 6zm0-2a1 1 0 100-2 1 1 0 000 2z" fill="#1C1C1C" fill-rule="nonzero"/></svg>
