<svg width="24" height="24" viewBox="0 0 24 24" fill="none" xmlns="http://www.w3.org/2000/svg">
    <path d="M12.614 2.533a.75.75 0 0 1 .935-.5c.208.062.592.182.925.423.365.265.7.701.7 1.342 0 .41-.18.72-.381.936-.178.192-.398.338-.541.433l-.01.007c-.171.113-.273.181-.352.254a.567.567 0 0 0-.042.042.79.79 0 0 0 .088.066c.196.13.464.22.598.255a.75.75 0 1 1-.387 1.449 3.747 3.747 0 0 1-1.037-.452c-.367-.242-.967-.795-.744-1.65a1.68 1.68 0 0 1 .505-.81c.172-.16.37-.29.507-.381l.036-.024c.133-.089.207-.142.25-.181v-.003a.242.242 0 0 0-.07-.068c-.11-.08-.272-.14-.479-.203a.75.75 0 0 1-.501-.935z" fill="#1C1C1C"/>
    <path fill-rule="evenodd" clip-rule="evenodd" d="M3 9.331a.75.75 0 0 1 .75-.75h16.5a.75.75 0 0 1 0 1.5h-.9a7.582 7.582 0 0 1-4.06 5.277c.03.054.055.112.071.173l1.294 4.83a.75.75 0 1 1-1.449.388l-.436-1.628H9.23l-.436 1.628a.75.75 0 1 1-1.45-.388l1.295-4.83a.75.75 0 0 1 .07-.172 7.582 7.582 0 0 1-4.06-5.278H3.75a.75.75 0 0 1-.75-.75zm6.632 8.29h4.736l-.456-1.701a.704.704 0 0 1-.01-.04 7.427 7.427 0 0 1-1.902.246 7.427 7.427 0 0 1-1.903-.246.704.704 0 0 1-.01.04l-.455 1.701zM12 14.626c-2.788 0-5.146-1.94-5.812-4.545h11.624c-.666 2.606-3.024 4.545-5.812 4.545z" fill="#1C1C1C"/>
    <path d="M10.057 2.032a.75.75 0 0 0-.434 1.436c.207.063.37.124.479.203a.245.245 0 0 1 .07.068l.001.003a2.41 2.41 0 0 1-.25.18l-.037.025c-.137.09-.335.221-.507.38a1.68 1.68 0 0 0-.505.812c-.222.854.377 1.407.744 1.65.395.26.845.4 1.037.451a.75.75 0 1 0 .387-1.45 2.268 2.268 0 0 1-.598-.254.79.79 0 0 1-.087-.066.567.567 0 0 1 .04-.042c.08-.073.182-.14.353-.254l.01-.007c.143-.095.364-.241.54-.433.202-.216.382-.526.382-.936 0-.64-.335-1.077-.7-1.342-.333-.241-.716-.36-.925-.424z" fill="#1C1C1C"/>
</svg>
