<svg xmlns="http://www.w3.org/2000/svg" width="24" height="24"><defs><filter id="a" width="134.7%" height="119.6%" x="-17.4%" y="-9.8%" filterUnits="objectBoundingBox"><feOffset dy="2" in="SourceAlpha" result="shadowOffsetOuter1"/><feGaussianBlur in="shadowOffsetOuter1" result="shadowBlurOuter1" stdDeviation="12"/><feColorMatrix in="shadowBlurOuter1" result="shadowMatrixOuter1" values="0 0 0 0 0 0 0 0 0 0 0 0 0 0 0 0 0 0 0.16 0"/><feMerge><feMergeNode in="shadowMatrixOuter1"/><feMergeNode in="SourceGraphic"/></feMerge></filter></defs><path fill="#4C4C4C" fill-rule="evenodd" d="M10.103 8.907l.878-4.388a1.75 1.75 0 0 1 .869-3.269h5a1.75 1.75 0 0 1 .868 3.27l1.367 6.833.015.147v3.51l.431-.346a.75.75 0 0 1 .938 1.172l-.83.664H21a.75.75 0 1 1 0 1.5h-1.362l.83.664a.75.75 0 0 1-.937 1.172l-.837-.67c-.357 1.551-1.656 2.72-3.358 2.87-1.504.131-4.411.004-6.822-.296-1.365-.17-2.507-.385-3.333-.63a7.374 7.374 0 0 1-.506-.169l-.812-.307a.75.75 0 0 1-.209-1.283l.674-.548a6.67 6.67 0 0 1 .23-.18c-1.768-.877-2.808-3.012-2.808-5.995 0-2.771 2.4-4.213 5.243-3.576-.203-.505-.522-.705-.946-.678a.75.75 0 1 1-.094-1.498c1.406-.087 2.27.742 2.618 2.289a6.267 6.267 0 0 1 1.532-.258zM8.7 20.25c2.314.288 5.122.412 6.505.29 1.305-.114 2.192-1.17 2.078-2.476-.114-1.304-1.172-2.191-2.476-2.077-1.168.102-3.745.961-6.141 2.061-1.197.55-2.218 1.1-2.916 1.57a8.762 8.762 0 0 0-.098.066c.733.213 1.782.409 3.048.566zm3.761-5.265c.19-.665.289-1.453.289-2.358 0-1.924-1.879-2.808-4.283-1.84L8 10.976l-.467-.188c-2.404-.968-4.283-.084-4.283 1.84 0 3.045 1.124 4.771 3.042 4.924a30.588 30.588 0 0 1 1.748-.866c1.519-.697 3.1-1.301 4.421-1.7zm1.337-4.236c.29.528.452 1.158.452 1.878 0 .698-.057 1.35-.167 1.95a6.37 6.37 0 0 1 .593-.084c1.136-.1 2.174.28 2.924.98v-3.9l-.165-.824h-3.637zM11.6 9.072c.176.049.347.108.51.178h5.025l-.9-4.5h-3.77L11.6 9.072zm5.25-5.822a.25.25 0 1 0 0-.5h-5a.25.25 0 1 0 0 .5h5z" filter="url(#a)"/></svg>
