<svg xmlns="http://www.w3.org/2000/svg" xmlns:xlink="http://www.w3.org/1999/xlink" width="160" height="160" viewBox="0 0 160 160">
    <defs>
        <path id="ml1k5thp2c" d="M52.08 10.994l.701 5.293v3.702c.477 1.508.705 2.603.686 3.284-.05 1.722-.862 3.233-1.228 4.66-.56 2.19-1.104 5.008-4.121 8.595-.076.09-.426.212-1.05.367v2.447c1.177.425 1.808.74 1.894.946.178.43-.25.937-.25 1.681 0 1.85-.548 4.7-1.645 8.555-4.149.518-7.641-.055-10.477-1.72-2.835-1.666-4.697-3.944-5.584-6.835.242-3.855.405-6.503.49-7.942.283-4.826-.222-7.072-.222-7.579 0-1.1-3.363-2.165-3.363-6.46 0-2.862 1.329-3.16 3.986-.892l3.984-10.824 8.725-1.035h5.835l1.64 3.757z"/>
        <path id="4vozkwurle" d="M31.694 0c-.949.484-1.882 1.142-2.801 1.975-.4.362-.955 1.584-1.666 3.667l-5.403 3.926-6.224 2.17c-4.29 3.622-6.837 6.708-7.638 9.26-1.202 3.826-2.74 8.143-2.74 8.675 0 .355-.267 2.644-.801 6.867l-1.79 9.486c-.345 1.8-.59 3.088-.733 3.862-.276 1.48-.19 2.876-.356 3.662-.046.223-.65.78-.697.994-.577 2.589-.637 4.179-.509 5.43.098.952.597 2.155 1.562 3.652.58.9 1 1.908 2.523 3.024.662.485 1.736 1.813 3.54 1.864.57.016 1.155.258 1.78.34.6.077.854-.489 1.556-.391.377.052.435.722 1.194.903.402.096 1.152.096 2.252 0-.03 6.165.043 9.732.216 10.7.174.969-.268 3.858-1.326 8.668 10.647 4.603 17.945 6.675 21.892 6.215 2.407-.28 7.981.686 14.853 0 4.581-.457 9.583-1.461 15.006-3.013-.1-9.161.671-16.372 2.314-21.632 1.187-3.803 1.357 4.773 4.13.847 1.063-1.505 4-7.525 3.755-15.514-.162-5.326-1.763-15.27-4.804-29.832l-1.15-2.995c-1.755-6.946-4.18-10.718-7.277-11.317-5.849-1.833-9.354-2.918-10.516-3.254-.196-.057-2.056-3.652-2.403-3.67-1.592 2.199-2.387 3.865-2.387 4.999 0 3.991-1.551 6.313-2.321 12.898-.088.753.075 1.437 0 2.334-.242 2.886-.533 8.934-.874 18.143-2.056-9.61-4.057-16.734-6.004-21.371-2.92-6.955-6.95-6.243-7.518-13.807-.053-.706.357-2.244 1.229-4.615L31.694 0z"/>
        <path id="akfe8prayg" d="M27.205 7.76l-4.213 9.064c.897.366 1.542.55 1.934.55 5.752.008 9.53.759 11.557 3.432 1.678 2.214 3.531 7.085 5.559 14.611.35 1.302.888 3.81 1.612 7.526-.638-3.258-1.487-6.649-2.547-10.172-.523-1.741-3.417-10.113-4.69-11.199-2.062-1.758-4.388-1.729-7.37-2.138-1.14-.156-2.517-.636-5.006-.832-.342-.027-.92-.436-1.735-1.228 2.459-5.077 3.99-8.378 4.596-9.903.862-2.171.182-2.019.62-2.494.9-.975.794-.048-.317 2.783z"/>
        <path id="rop49n1m9i" d="M3.82 6.874c.906 0 1.012-.759 1.012-2.039 0-1.28-.496-2.564-1.4-2.564-.905 0-1.75.734-1.75 2.014 0 1.28 1.234 2.589 2.139 2.589z"/>
        <path id="f0rgmtk3vk" d="M0 20.346L0 0.934 33.657 0.934 33.657 20.346z"/>
        <path id="lhk6513h7m" d="M10.692 5.298c2.601-.078 4.314.982 5.14 3.181.472 4.322-.51 7.589-2.946 9.802-.959.929-2.018 1.319-3.177 1.17-.723-.338-1.728-.377-3.013-.114-1.388.629-2.82-.064-4.297-2.079-2.8-4.26-3.09-7.777-.873-10.55C2.537 5.69 3.562 5.18 4.601 5.18c1.559 0 2.906.636 6.091.117z"/>
        <path id="xwjrb3azto" d="M8.375 5.991c.782-1.95 1.434-2.986 1.958-3.109.524-.123.85-.419.977-.888-1.073.034-1.977.686-2.71 1.955-.751 1.12-1.017 1.74-.797 1.861.22.121.41.181.572.181z"/>
        <path id="aoap7fqkkq" d="M6.831 4.302C6.112.845 3.837-.525.005.192.55 2.932 2.017 4.425 4.407 4.67c1.068.003 1.696-.056 1.883-.178.187-.123.368-.186.541-.19z"/>
        <path id="z9mtvz474s" d="M10.76 5.33c2.618-.078 4.342.99 5.174 3.202.474 4.348-.514 7.635-2.965 9.862-.966.934-2.031 1.327-3.198 1.178-.728-.341-1.739-.38-3.032-.115-1.397.632-2.838-.065-4.324-2.092-2.818-4.287-3.11-7.825-.879-10.616 1.017-1.024 2.05-1.536 3.095-1.536 1.568 0 2.924.64 6.13.118z"/>
        <path id="azbbfl4tpu" d="M8.429 6.028c.786-1.962 1.443-3.005 1.97-3.128.528-.123.855-.422.983-.894-1.08.035-1.99.69-2.728 1.967-.755 1.128-1.022 1.752-.801 1.873.221.122.413.182.576.182z"/>
        <path id="492t5hhfxw" d="M6.875 4.329C6.152.85 3.86-.528.005.193.553 2.95 2.03 4.453 4.435 4.7c1.075.003 1.707-.057 1.896-.18.188-.123.37-.187.544-.191z"/>
        <path id="f37vk9qyoy" d="M10.766 5.313c2.619-.079 4.344.985 5.176 3.19.474 4.333-.514 7.61-2.967 9.828-.966.932-2.032 1.323-3.199 1.174-.728-.34-1.74-.378-3.033-.115-1.398.631-2.84-.064-4.327-2.084-2.82-4.272-3.112-7.799-.88-10.58 1.019-1.02 2.05-1.531 3.097-1.531 1.57 0 2.925.638 6.133.118z"/>
        <path id="bthhh0e5vA" d="M8.433 6.008c.787-1.956 1.444-2.995 1.972-3.118.527-.123.855-.42.983-.891-1.08.035-1.99.688-2.73 1.96-.755 1.124-1.022 1.747-.801 1.867.221.121.413.182.576.182z"/>
        <path id="hjbrhgselC" d="M6.878 4.314C6.155.848 3.863-.526.005.192c.549 2.75 2.026 4.247 4.432 4.492 1.076.003 1.708-.056 1.897-.179.188-.123.37-.186.544-.191z"/>
        <path id="7bdircs4zE" d="M6.372.334C5.004.733 2.09 1.154.544 5.079c-1.548 3.925.643 7.67 1.203 8.314.561.643 2.734 4.032 9.704 2.76 3.726-1.137 5.743-3.628 6.05-7.473-.265-3.441-1.237-5.74-2.913-6.895C12.074.052 10.56-.013 9.622.001c-.938.015-1.883-.066-3.25.333z"/>
        <path id="o2cx76iisG" d="M0 2.383L13.002 0 13.679 2.987 14.157 3.725 19.521 30.618 6.274 32.201 0.464 6.762 0.464 5.894z"/>
        <path id="xkwhja3flI" d="M3.866 3.446c.477-.785 1.337-1.27 2.579-1.453 1.242-.183 2.389-.113 3.44.21l.552 2.502c-1.008.6-1.91.976-2.704 1.129-.643.124-1.792.2-3.447.227l-.42-2.615z"/>
        <path id="uer7e4qi7K" d="M6.372.334C5.004.733 2.09 1.154.544 5.079c-1.548 3.925.643 7.67 1.203 8.314.561.643 2.734 4.032 9.704 2.76 3.726-1.137 5.743-3.628 6.05-7.473-.265-3.441-1.237-5.74-2.913-6.895C12.074.052 10.56-.013 9.622.001c-.938.015-1.883-.066-3.25.333z"/>
        <path id="jlnczdqb9M" d="M6.004.314C4.716.688 1.97 1.084.512 4.768c-1.458 3.685.606 7.201 1.135 7.805.528.604 2.575 3.786 9.143 2.59 3.511-1.066 5.412-3.405 5.702-7.014-.25-3.23-1.166-5.389-2.745-6.473C11.377.049 9.95-.013 9.067 0 8.183.015 7.293-.06 6.004.314z"/>
        <path id="niieb0gu8O" d="M4.31 1.328V.343c.647-.329 1.068-.329 1.263 0 .196.328.512.792.951 1.39-1.185 1.258-1.778 2.66-1.778 4.209C5.752 8.243 6.27 9.552 6.3 9.866c1.187 2.628 4.211 4.264 9.073 4.909 5.387-.203 8.624.014 9.71.65.998-.003 1.549.075 1.652.233.659.606.848 1.199.566 1.778-.682.546-1.173 1.061-1.472 1.544-2.591 2.915-7.59 3.696-14.996 2.345-4.622-1.369-7.851-3.702-9.688-7C.047 11.858-.178 9.656.468 7.72c.869-1.35 1.647-2.233 2.335-2.649.69-1.229 1.152-2.192 1.384-2.892.232-.7.274-.983.124-.85z"/>
        <path id="6y71g8529S" d="M4.31 1.328V.343c.647-.329 1.068-.329 1.263 0 .196.328.512.792.951 1.39-1.185 1.258-1.778 2.66-1.778 4.209C5.752 8.243 6.27 9.552 6.3 9.866c1.187 2.628 4.211 4.264 9.073 4.909 5.387-.203 8.624.014 9.71.65.998-.003 1.549.075 1.652.233.659.606.848 1.199.566 1.778-.682.546-1.173 1.061-1.472 1.544-2.591 2.915-7.59 3.696-14.996 2.345-4.622-1.369-7.851-3.702-9.688-7C.047 11.858-.178 9.656.468 7.72c.869-1.35 1.647-2.233 2.335-2.649.69-1.229 1.152-2.192 1.384-2.892.232-.7.274-.983.124-.85z"/>
        <path id="c9scf5r3nU" d="M4.31 1.328V.343c.647-.329 1.068-.329 1.263 0 .196.328.512.792.951 1.39-1.185 1.258-1.778 2.66-1.778 4.209C5.752 8.243 6.27 9.552 6.3 9.866c1.187 2.628 4.211 4.264 9.073 4.909 5.387-.203 8.624.014 9.71.65.998-.003 1.549.075 1.652.233.659.606.848 1.199.566 1.778-.682.546-1.173 1.061-1.472 1.544-2.591 2.915-7.59 3.696-14.996 2.345-4.622-1.369-7.851-3.702-9.688-7C.047 11.858-.178 9.656.468 7.72c.869-1.35 1.647-2.233 2.335-2.649.69-1.229 1.152-2.192 1.384-2.892.232-.7.274-.983.124-.85z"/>
        <path id="1i12d6n30W" d="M1.096 1.517C.366 17.27 0 29.174 0 37.229c0 8.054.365 14.579 1.096 19.573h47.82c.495-7.651.77-15.072.827-22.261.055-7.19.055-18.704 0-34.541-3.515.847-6.115 1.352-7.802 1.517-3.476.338-7.014 0-10.873 0-2.228 0-4.888-.697-7.858-.807-2.016-.074-4.141.467-6.5.342-3.042-.161-8.247-.007-15.614.465z"/>
        <path id="f9fxq21ulY" d="M.717.357l36.73-.125v6.992c0 1.656.004 3.884.01 6.685L0 14.58.717.357z"/>
        <path id="vkyucwz6cZ" d="M34.378 3.481L37.315 3.481 37.315 -12.573 16.619 -12.573 16.619 3.481 19.795 3.481 19.795 -9.938 34.378 -9.938z"/>
        <path id="5wce6259uab" d="M24.046 25.427c-3.288.592-5.612 1.01-6.97 1.253-1.36.243-3.132.199-5.316-.132l.586 51.17 11.498 3.046c-.543-10.434-.742-18.27-.595-23.508.211-7.566 2.225-18.066 1.914-23.043-.409-6.536-.781-9.464-1.117-8.786z"/>
        <path id="vs6cnku58ac" d="M75.563 112.752c-3.956-9.424-4.875-15.806-2.757-19.145 3.176-5.009 7.536-14.57 7.82-15.435.284-.865 1.325-3.769 7.758-10.03.338-.362.6-.67.784-.923.185-.254.477-.707.878-1.359 4.376-.666 7.692-.82 9.948-.46 7.275 1.254 11.347 1.6 12.214 1.04-.026-.294-.026-.435 0-.424.19.083.772.088.926.156.728.317.655.54.719.643 4.877 8.014 6.807 14.682 7.58 19.742l1.9 16.568c-17.574 12.842-31.368 20.096-41.382 21.76-6.723 1.118-3.706-.218-4.85-4.502-.372-1.397-.885-3.94-1.538-7.63z"/>
        <path id="gmvp02y8iae" d="M6.956 7.099c-.573 2.372-.89 4.02-.95 4.942-.09 1.385.64 1.325.408 3.408-.232 2.084-2.37 3.756-2.268 5.051.102 1.295 1.632 1.39 2.81 1.824.487.18.602.18.602 1.266 0 .103-.097 1.245 0 1.502.097.258.323.69.706.572.104-.031.66.082 1.408.057.657-.02 1.053-.026 1.188-.016.196.17.08.37-.348.597-.642.343-.512.138-1.11.298-.598.16-1.05.185-1.213.325-.066.056.034.494.136.718.153.335.663.913.68.98.563 2.356 1.129 4.498 1.53 4.922.891.945 2.782.762 6.732-.229 2.633-.66 5.223 1.502 7.771 6.488 6.694-.315 11.633-.786 14.816-1.412 3.184-.626 4.613-1.407 4.287-2.343l-5.455-10.567c-6.88-2.556-10.226-4.217-10.037-4.982.697-2.825-1.562-6.025-2.158-7.339-.838-1.847-3.577-3.573-8.217-5.177-3.77-3.08-6.69-4.066-8.758-2.958-2.068 1.108-2.921 1.8-2.56 2.073z"/>
        <path id="p0pops1ccag" d="M17.892 24.23c-3.945.4-6.602.178-7.973-.669-2.056-1.27-2.468-4.239-.561-7.122 1.907-2.884 2.676-3.733 4.546-3.73 1.871.004 17.156-6.51 24.32-3.57 7.163 2.94 10.656 10.424 13.282 16.494 2.626 6.07 2.914 13.959 3.929 15.033.676.717-1.057 2.387-5.2 5.012.706 3.213.04 4.948-1.999 5.205-2.039.256-3.54.57-4.502.938-1.316 2.043-3.028 2.595-5.135 1.654-3.16-1.41-1.995 1.814-3.559.716-1.563-1.099-2.867-1.311-4.796-5.097-1.929-3.786-2.513-1.958-4.025-5.728-.626-1.56-1.341-5.336-3.327-9.87-.66-1.508-1.9-2.935-3.697-6.088-.272-.477-.707-1.536-1.303-3.178z"/>
        <path id="q41jmypi1ai" d="M1.067 5.858c.56-1.567.746-2.573.56-3.017-.187-.445.397-1.103 1.752-1.974C4.07 0 4.855-.217 5.734.217 7.052.867 8.766.48 8.766 1.66c0 .786-.802 1.209-2.405 1.268l-.627.859v2.72L7.22 8.721c.427.959.651 1.63.673 2.013.022.384-.148.678-.51.883l-1.022-.37c-.15.455-.15.849 0 1.179.547 1.2 1.804 2.224 2.235 3.066.314.615.585.853.567 1.23-.018.38-.326.9-.397.983.124.408.192.673.203.794.052.561-.093.716-.166.822.144.248.144.425 0 .53-.239.248-.606.12-1.102-.386l-2.498-2.832c-1.186-.374-1.94-.676-2.265-.906-.487-.345-.6-.895-.6-1.123C1.492 14.03.93 13.303.656 12.426c-.195-.623-.658-2.52-.481-4.2.048-.456.303-.979.764-1.568l.129-.8z"/>
        <linearGradient id="fputoqi10Q" x1="42.055%" x2="89.969%" y1="67.871%" y2="22.398%">
            <stop offset="0%" stop-color="#F4D231" stop-opacity=".524"/>
            <stop offset="100%" stop-color="#928826" stop-opacity=".545"/>
        </linearGradient>
        <linearGradient id="ys9zt6ywqR" x1="41.864%" x2="50%" y1="108.617%" y2="37.887%">
            <stop offset="0%" stop-color="#E8C303"/>
            <stop offset="100%" stop-color="#928826"/>
        </linearGradient>
        <ellipse id="4yvizgv92a" cx="69.184" cy="68.838" rx="69.184" ry="68.838"/>
    </defs>
    <g fill="none" fill-rule="evenodd" transform="translate(7.246 7.826)">
        <g transform="translate(2.767 6.053)">
            <mask id="2oai5lk8db" fill="#fff">
                <use xlink:href="#4yvizgv92a"/>
            </mask>
            <use fill="#D8D8D8" xlink:href="#4yvizgv92a"/>
            <g mask="url(#2oai5lk8db)">
                <g>
                    <path fill="#D9EAF2" d="M73.375 30.173c20.512-9.184 36.782-9.856 48.81-2.014 12.027 7.841 18.685 8.513 19.972 2.014C151.88 7.859 161.263-2.078 170.307.36c9.046 2.439 14.25 4.382 15.61 5.832l35.289 35.414-10.18 65.788c-7.008 38.037-11.788 57.056-14.34 57.056-3.828 0-79.032 10.907-84.833 10.907-5.8 0-80.994-11.509-82.734-13.1-1.74-1.59 0-51.409 0-54.863 0-2.303 14.752-28.043 44.256-77.221z" transform="translate(-41.608 -33.734)"/>
                    <path fill="#CCE3EE" d="M27.886 105.852c12.326-20.08 24.381-27.647 36.166-22.7 17.676 7.42 10.859 10.14 17.926 10.14 7.068 0 11.921-16.807 23.436-13.406 11.515 3.402 10.43-12.617 21.767-25.826 11.337-13.21 29.014-15.735 42.077-15.735 13.063 0 9.758 34.273 11.04 36.713 1.282 2.441-.65.79.294 0 .63-.526 10.876 7.932 30.74 25.375l-7.239 73.114L92.774 204.29 13.53 172.727l14.356-66.875z" transform="translate(-41.608 -33.734)"/>
                    <path fill="#BDDCE9" d="M14.005 96.667c11.152-.017 20.299.795 27.441 2.437 10.944 2.514 16.397 11.24 24.756 14.546 8.2 3.243 14.194-10.176 25.112-17.05 8.218-5.174 17.703 2.548 26.076-3.07 14.164-9.504 22.734-35.397 42.355-36.673 19.62-1.277 14.95 27.705 33.508 31.737 18.558 4.031 18.571 68.245 0 76.327-18.572 8.082-79.695 34.871-103.26 38.971-23.565 4.1-94.007-33.691-89.721-48.762 2.857-10.047 7.435-29.534 13.733-58.463z" transform="translate(-41.608 -33.734)"/>
                    <path fill="#F6F1EC" d="M136.94 145.055L136.94 38.325 168.788 38.325 168.788 133.031z" transform="translate(-41.608 -33.734)"/>
                    <path fill="#E2D4C7" d="M145.673 145.055L145.673 38.325 155.075 38.325 155.075 133.031z" transform="translate(-41.608 -33.734)"/>
                    <path fill="#D8C7B5" d="M147.796 167.792L147.796 45.559 188.742 45.559 188.742 154.021z" transform="translate(-41.608 -33.734)"/>
                    <path fill="#C7AE94" d="M165.16 78.334L194.505 108.493 175.091 146.707 150.374 123.221z" transform="translate(-41.608 -33.734)"/>
                </g>
            </g>
            <g mask="url(#2oai5lk8db)">
                <g>
                    <g transform="translate(-12.102 -1.5) translate(22.044 18.211)">
                        <path fill="#992828" d="M30.328 33.893c3.557-.878 6.074-1.16 7.551-.85 7.853 1.656 11.554 1.265 11.554 2.097 0 1.068-.623 3.114-1.87 6.14l-10.35.703c-1.583-1.308-2.672-2.081-3.268-2.32-2.18-.872-2.697 3.22-3.2 2.89-1.066-.696-.324-2.716-.34-2.809-.025-.13-.678-.474-.69-1.329-.01-.654.194-2.161.613-4.522z"/>
                        <path fill="#664F36" d="M38.695 14.921c1.59-1.657 7.195 1.631 7.529-.693 1.363 1.59 3.176 2.07 5.439 1.44.918-.255 2.003-1.31 2.003-4.148 0-2.838-2.11-5.935-5.176-7.235-4.14-1.755-7.518-.586-8.345-.33-3.89 1.2-7.389 3.471-8.848 5.784-1.513 2.397-1.199 4.896-1.01 7.232.225 2.758.543 5.312 1.336 7.515.604 1.678 3.64 5.61 6.335 2.756.653-.69-.453-2.12.54-4.86.207-.575.353-.889.95-1.966.728-1.311-2.342-3.838-.753-5.495z"/>
                        <mask id="bram47rbcd" fill="#fff">
                            <use xlink:href="#ml1k5thp2c"/>
                        </mask>
                        <use fill="#F2D2C0" xlink:href="#ml1k5thp2c"/>
                        <path fill="#806344" d="M44.946 18.48c-.756.309-3.247-.616-3.953-.616-.47 0-1.169.102-2.095.307 1.505-.807 2.668-1.21 3.49-1.21.823 0 1.792.254 2.907.76.272.301.156.554-.349.76z" mask="url(#bram47rbcd)" transform="rotate(-5 42.168 17.752)"/>
                        <path fill="#806344" d="M54.914 18.489c-.665.27-2.853-.54-3.474-.54-.413 0-1.027.09-1.84.269 1.322-.706 2.344-1.06 3.067-1.059.723 0 1.574.222 2.554.665.239.263.137.485-.307.665z" mask="url(#bram47rbcd)" transform="scale(-1 1) rotate(-5 0 1219.679)"/>
                        <path fill="#C3A390" d="M39.705 19.91c.275-.319 2.555-.55 3.66-.319 1.105.233 1.261 1.2.727 1.2-.173 0-1.027.109-1.763 0-.78-.114-2.9-.563-2.624-.881z" mask="url(#bram47rbcd)"/>
                        <path fill="#C3A390" d="M50.18 19.983c.228-.257.836-.486 1.584-.486.748 0 .886.968.443.968-.143 0-.692.088-1.302 0-.646-.092-.953-.225-.725-.482z" mask="url(#bram47rbcd)" transform="matrix(-1 0 0 1 102.564 0)"/>
                        <path fill="#C3A390" d="M49.775 30.324c-.43.216-1.062.537-1.682.576-.883.054-1.924-.147-2.598-.328-.89-.238-2.22-.837-2.18-.975.04-.14 1.417 0 3.053 0 .71 0 1.639.08 2.325 0 1.082-.126 2.007-.391 2.072-.333.085.077-.285.118-.495.333-.216.22-.277.617-.495.727z" mask="url(#bram47rbcd)"/>
                        <path fill="#E5C3B0" d="M52.884 10.94c-1.881.782-3.369 1.25-4.464 1.405-1.229.173-2.602-.15-3.695-.033-.96.102-1.654.654-2.557.655-1.645 0-3.281-.303-4.455 0-1.565.403-2.418 4.172-3.186 3.945-.493-.146-.765-4.639-.9-4.832-.399 3.168-1.034 4.746-1.906 4.732-.871-.013-.47-1.502 1.204-4.467l5.013-7.279 12.839.83 2.018 2.586.089 2.457z" mask="url(#bram47rbcd)"/>
                        <path fill="#D9B5A1" d="M47.038 36.817c-.645-.04-1.167-.109-1.566-.209-2.8-.701-6.862-2.255-7.997-3.01-1.894-1.258-2.939-3.758-3.847-5.71.475 2.977 1.338 5.008 2.59 6.09.587.507 3.388 2.629 4.291 3.254.903.626 2.859.83 3.88 1.1.637.168 1.887 1.498 1.887 2.15 0 .435.435-.745 1.307-3.54l-.545-.125z" mask="url(#bram47rbcd)"/>
                        <path fill="#E5C3B0" d="M33.345 43.045c-.766-1.325-1.138-5.809-1.379-9.143-.063-.875-.19-6.018 0-6.356.237-.42.453-.58.441-.737-.025-.323-.964.267-.972.162-1.65 10.525-1.849 16.328-.597 17.411.586.507 2.875 3.002 3.779 3.628.38.263 2.003 1.255 3.993 1.645 2.74.538 5.908.412 5.044 0-.596-.284-4.49-.385-5.74-1.34-.571-.436-1.13-1.387-1.735-1.87-1.384-1.101-2.401-2.65-2.834-3.4z" mask="url(#bram47rbcd)"/>
                        <path fill="#D9B5A1" d="M47.836 50.003c-.823-2.317.71-10.51.532-12.717-1.036-.169-1.624-.109-1.765.18-.282.576-.41 5.46-.594 5.96-.292.803-1.032 2.02-1.284 2.974-.258.977-.03 1.689-.336 2.227-.982 1.725-1.97 1.58-1.39 2.081.586.507 5.356 3.047 6.26 3.673.903.625 7.77 2.552 6.279 1.84-.868-.413-3.386-1.41-5.316-2.947-1.383-1.102-2.12-2.521-2.386-3.27z" mask="url(#bram47rbcd)"/>
                        <g transform="translate(0 30.572)">
                            <path fill="#EBECF3" d="M32.74 15.319c4.328 3.84 9.538 4.717 15.628 2.632l-2.884 16.712-4.612-.03-8.133-19.314z"/>
                            <mask id="oxtniw2qdf" fill="#fff">
                                <use xlink:href="#4vozkwurle"/>
                            </mask>
                            <use fill="#B32E2E" xlink:href="#4vozkwurle"/>
                            <path fill="#992828" d="M-4.035 42.888L7.377 12.1c3.641-.108 5.99.27 7.045 1.136 3.138 2.573 3.569 7.19 4.392 10.58.566 2.325 1.96 3.312 1.96 5.707 0 5.433 6.397 20.637-1.96 22.848-2.007.531-7.264-6.066-17.669-11.436-.893-.462-2.62.19-5.18 1.953z" mask="url(#oxtniw2qdf)"/>
                            <path fill="#802121" d="M13.472 71.355c-1.664-2.323-2.706-4.053-3.125-5.19-1.26-3.421-.995-4.767 0-7.451 1.491-4.023 4.522-5.21 9.091-3.563 4.076-7.82 6.641-11.298 7.697-10.433 3.137 2.573 3.569 7.19 4.392 10.58.565 2.325 1.96 3.313 1.96 5.707 0 7.643-6.672 11.093-20.015 10.35z" mask="url(#oxtniw2qdf)"/>
                            <path fill="#B32E2E" d="M58.199 64.687l.916-15.284c.599-5.88.899-10.287.899-13.221 0-2.934-.3-6.728-.9-11.382 2.81 8.955 4.216 14.335 4.216 16.14 0 2.705.478 5.001.478 5.599 0 .597 1.21 2.63 1.21 4.522 0 1.892.004.77 1.017 3.378.674 1.74.674 3.657 0 5.752l-7.836 4.496zM30.294 56.64c-.764-1.528-7.189-4.092-7.504-5.172-.315-1.08-5.17-4.402-5.026-5.783.143-1.381 3.227-7.543 2.574-10.446-.653-2.903-.268-5.525 0-7.988.179-1.642-.05-3.535-.688-5.679.988 1.393 1.74 3.59 2.255 6.59.772 4.5 6.484 7.996 7.029 10.655.544 2.659.133 7.737 1.155 11.8 1.023 4.064 2.818 8.173 3.915 9.178.73.67.042.67-2.066 0-.586-1.085-1.134-2.137-1.644-3.155z" mask="url(#oxtniw2qdf)"/>
                            <path fill="#992828" d="M31.562 97.87l6.82 1.104L67.45 92.97c2.421-7.737 3.278-13.018 2.569-15.845-.709-2.827-10.92-6.144-30.636-9.953l-7.522-1.273c1.72 1.418 2.521 2.592 2.406 3.521-.186 1.5 2.35-.646.842-.947-1.507-.301-8.518 2.388-10.623 3.224-1.18.468-2.036.263-4.336-1.875-1.625-1.511-4.648-1.202-9.07.927-2.1-2.745-3.343-4.765-3.728-6.062-.733-2.471 1.131-4.786 1.117-6.147-.005-.56 3.926-2.553 3.732-2.738-.538-.512-1.084.289-1.876.74-.711.405-1.65.382-2.454 1.316-2.943 3.422-1.127 8.065-1.245 8.654-.122.604 2.411 3.723 3.35 5.185.952 1.482-1.277 1.308-1.242 1.928.077 1.4-.19 9.88-.265 12.336-.074 2.455-1.616 5.089-1.117 7.01.266 1.02 7.507 1.487 21.723 1.398l2.486 3.501z" mask="url(#oxtniw2qdf)"/>
                            <path fill="#802121" d="M11.89 64.418c4.902 5.95 8.124 9.34 9.667 10.17 1.542.831 4.021.413 7.436-1.256.964 1.169 1.946 2.202 2.945 3.1 1 .9 2.514 2.11 4.545 3.634v-2.69c-.117-.662-.74-1.59-1.868-2.788-1.129-1.197-2.88-3.173-5.254-5.928-3.93 2.242-6.12 3.095-6.571 2.561-.45-.534-3.834-3.482-10.151-8.845l-.749 2.042z" mask="url(#oxtniw2qdf)"/>
                            <path fill="#DE4C4C" d="M51.653 8.409c3.554 1.596 5.923 2.598 7.104 3.005 1.419.49 2.531.441 3.146.586.993.233 3.063 2.372 4.522 4.963.672 1.195.772 3.363 1.237 4.591.634 1.673 1.552 2.354 1.877 3.407.206.667.28 2.438.634 3.84 1.503 5.96 4.223 16.163 4.81 16.935.484.635 2.204 3.077 5.159 7.327v.561l-5.644-27.33-1.428-6.917-6.5-9.306-2.743-.305-12.174-1.357z" mask="url(#oxtniw2qdf)"/>
                            <path fill="#ED9C9C" d="M52.26 7.802c3.417 1.59 5.716 2.587 6.898 2.995 1.418.489 2.737.452 3.352.596.993.233 3.062 2.372 4.521 4.964.673 1.194 1.136 3.293 1.601 4.521.634 1.673 1.189 2.424 1.514 3.477.206.667.28 2.437.633 3.839 1.503 5.96 4.224 16.164 4.811 16.935.484.635 2.203 3.077 5.158 7.327v.562l-5.643-27.332-1.428-6.916-6.5-9.305-2.743-.306L52.26 7.802z" mask="url(#oxtniw2qdf)"/>
                            <path fill="#FBEBEB" fill-rule="nonzero" d="M55.483 27.566c.583 0 1.055.472 1.055 1.053 0 .54-.407.986-.932 1.047l-.123.007h-5.198c-.583 0-1.055-.472-1.055-1.054 0-.54.407-.985.932-1.046l.123-.007h5.198zM55.483 31.254c.291 0 .527.235.527.526 0 .259-.186.474-.433.519l-.094.008h-5.198c-.291 0-.527-.236-.527-.527 0-.258.186-.473.432-.518l.095-.008h5.198z" mask="url(#oxtniw2qdf)"/>
                            <path fill="#DE4C4C" d="M26.902-.447c1.051 4.758 2.748 7.9 5.092 9.427 2.343 1.527 5.846 3.45 10.508 5.773l-7.967-7.957-5.8-8.81-1.833 1.567z" mask="url(#oxtniw2qdf)"/>
                            <mask id="ctt0mwfs5h" fill="#fff">
                                <use xlink:href="#akfe8prayg"/>
                            </mask>
                            <use fill="#992828" xlink:href="#akfe8prayg"/>
                            <path fill="#802121" d="M23.115 16.82c5.752.008 11.341 1.313 13.368 3.986 1.678 2.214 3.531 7.085 5.559 14.611.35 1.302.888 3.81 1.612 7.526-.638-3.258-1.487-6.649-2.547-10.172-.523-1.741-3.417-10.113-4.69-11.199-1.375-1.172-3.832-1.884-7.37-2.138l-5.337-.896c-.605-1.145-.803-1.718-.595-1.717z" mask="url(#ctt0mwfs5h)"/>
                            <path fill="#992828" d="M55.396 15.171c-3.44 1.472-5.33 2.328-5.668 2.57-.673.48-2.318 2.867-4.934 7.16l-.504 7.636c.296-3.69.592-6.102.887-7.236.495-1.897 1.652-2.859 1.833-3.049 1.576-1.652 1.797-2.647 3.193-3.827.558-.47 1.428-.749 1.89-1.12.715-.577 2.477-.996 5.285-1.26-3.748-5.489-5.754-8.25-6.018-8.285-.265-.034 1.08 2.436 4.036 7.411zM57.503 18.341c-.218 1.612 5.877 10.61 4.867 11.332-.674.48-2.072 3.086-4.194 7.814l1.14 7.532c4.033-5.684 6.222-8.706 6.565-9.067 1.576-1.652.184-2.38 1.58-3.56.558-.471-1.308-2.004-.847-2.375.716-.576.472-1.297-.733-2.162-.605-4.68-1.04-7.038-1.304-7.072-.397-.052.546 3.777-1.367 2.67-1.195-.693-5.489-6.724-5.707-5.112z"/>
                            <path fill="#802121" d="M13.44 83.014c11.523 3.28 18.472 4.92 20.846 4.92 2.374 0 14.384-.316 36.03-.949l-.788-3.657L34.15 84.64l-20.71-4.573v2.948z"/>
                        </g>
                        <path fill="#806344" d="M34.973 11.243c1.589-1.657 7.195 1.63 7.529-.693 3.254.629 6.013.629 8.276 0 .917-.256 3.253-1.71 2.69-3.313-.276-.787-1.258-1.62-2.186-2.656-1.034-1.155-2.082-2.51-3.699-3.195C43.443-.37 37.25.02 36.423.276c-3.89 1.201-7.389 3.472-8.848 5.784-1.513 2.397-1.199 4.896-1.01 7.233.225 2.758.543 5.311 1.336 7.514.604 1.678 3.64 5.611 6.335 2.757.652-.691-.453-2.12.539-4.86.208-.576.354-.89.951-1.966.728-1.312-2.342-3.838-.753-5.495z"/>
                        <g transform="translate(26.902 16.812)">
                            <path fill="#F2D2C0" d="M4.58 1.02C3.025-.365 1.442-.653.433 2.685-.023 4.192.657 5.84 1.752 7.458c.677 1 .958 2.269 2.398 2.61 1.44.341 1.977-.32 2.86-1.365.88-1.045-.874-6.298-2.43-7.683z"/>
                            <mask id="9gm7gmbeyj" fill="#fff">
                                <use xlink:href="#rop49n1m9i"/>
                            </mask>
                            <use fill="#E5C3B0" xlink:href="#rop49n1m9i"/>
                            <path fill="#D9B5A1" d="M4.189 6.904c.575 0 .643-.806.643-2.166 0-1.36-.315-2.724-.891-2.724-.576 0-1.114.779-1.114 2.139 0 1.36.786 2.75 1.362 2.75z" mask="url(#9gm7gmbeyj)"/>
                        </g>
                        <path fill="#E5C3B0" d="M49.55 31.165c-.116.31-.647.489-1.592.538-.446.023-1.524-.156-3.233-.538 1.14.95 2 1.441 2.577 1.472.35.02.854.034 1.307-.254.195-.124.509-.53.941-1.218z"/>
                        <path fill="#D9B5A1" d="M44.885 27.2c-.26-.3-.203-.703.171-1.207.363.331.62.587.772.766.209.246.826.283.845.26.252-.294.443-.395.574-.303.386.273.696.435.928.485.435.093 1.239.041 1.34 0 .387-.16.527-.482.676-.67.16-.204 0-.452 0-.538 0-.392.568.245-.006 1.026-.334.456-1.075 1.115-2.938.774-.267-.05-1.97-.141-2.362-.592z"/>
                        <g transform="translate(3.943 53.382)">
                            <path fill="#806344" d="M11.76 26.548c.295-.327.54-.56.736-.7 2.238-1.612 5.066-2.562 8.247-3.201 3.598-.723 19.977-.81 49.138-.263l2.003 1.07.607.507-1.166.83-18.55 4.439-34.297-1.147-6.718-1.535z"/>
                            <g transform="translate(34.667 7.458)">
                                <path fill="#ECE2D9" d="M0 13.082L0 0.021 31.362 0.021 33.657 0.934 33.657 13.082z"/>
                                <mask id="ybtazwt8dl" fill="#fff">
                                    <use xlink:href="#f0rgmtk3vk"/>
                                </mask>
                                <use fill="#E2D4C7" xlink:href="#f0rgmtk3vk"/>
                                <path fill="#992828" d="M15.668 2.616H21.084V8.222H15.668z" mask="url(#ybtazwt8dl)"/>
                                <path fill="#D8C7B5" d="M-0.607 0.121L3.158 0.121 5.196 14.086 1.334 14.086z" mask="url(#ybtazwt8dl)"/>
                                <path fill="#D8C7B5" d="M-0.607 0.121L3.158 0.121 5.196 14.086 1.334 14.086z" mask="url(#ybtazwt8dl)"/>
                            </g>
                            <g transform="rotate(-23 54.448 -64.247)">
                                <mask id="l21sgh5w2n" fill="#fff">
                                    <use xlink:href="#lhk6513h7m"/>
                                </mask>
                                <use fill="#DB3939" xlink:href="#lhk6513h7m"/>
                                <path fill="#981F1C" fill-opacity=".8" d="M2.697 5.89c-3.27 4.664-2.484 9.197 2.356 13.601 4.84 4.404 4.462 4.718-1.132.94l-5.47-6-.383-6.727L2.697 5.89z" mask="url(#l21sgh5w2n)"/>
                                <path fill="#B32E2E" d="M3.707 5.016c1.395.55 2.446 1.104 3.153 1.66 1.06.834 1.379 2.02 1.658 2.53.28.511 1.181 6.324-2.112 9.033-2.196 1.806-3.948 2.304-5.256 1.494l11.76 2.35 4.138-9.883-2.649-8.446L3.707 5.016z" mask="url(#l21sgh5w2n)" transform="rotate(10 9.1 12.918)"/>
                                <path fill="#992828" d="M3.755 5.028c1.707.241 3.097.59 4.167 1.046 1.071.457 2.142.457 3.213 0 2.333-.067 3.5 1.475 3.5 4.625S13.558 16.716 11.4 19.3l4.194-.418L18.919 7.71 15.59 3.78 3.755 5.029z" mask="url(#l21sgh5w2n)" transform="rotate(-1 11.337 11.54)"/>
                                <path fill="#CD5555" fill-opacity=".2" d="M7.01 5.54c-2.993 1.178-4.306 3.98-3.938 8.407.368 4.426 1.397 7.14 3.089 8.139l-7.433-5.56v-12c0-.167 2.76.171 8.282 1.015z" mask="url(#l21sgh5w2n)"/>
                                <path fill="#FFF" fill-opacity=".21" d="M3.06 6.77c1.236.044-.141 1.861-.44 2.23-.199.245-.518 1.02-.956 2.323.106-3.064.571-4.581 1.396-4.552z" mask="url(#l21sgh5w2n)"/>
                                <mask id="xdrpd9doap" fill="#fff">
                                    <use xlink:href="#xwjrb3azto"/>
                                </mask>
                                <use fill="#46632E" xlink:href="#xwjrb3azto"/>
                                <path fill="#344A22" d="M7.63 5.557c.354.106.736-.204 1.146-.929.614-1.088.818-1.368 1.307-1.759.325-.26.796-.367 1.413-.321l-1.618 2.67-1.646 1.66-1.772-.286 1.17-1.035z" mask="url(#xdrpd9doap)"/>
                                <g transform="translate(1.753 .047)">
                                    <mask id="km0yhcr31r" fill="#fff">
                                        <use xlink:href="#aoap7fqkkq"/>
                                    </mask>
                                    <use fill="#9DBD80" xlink:href="#aoap7fqkkq"/>
                                    <path fill="#8FB46E" d="M-.202 1.04c1.349.108 2.123.282 2.322.524.2.242 1.804 1.09 4.811 2.545l.086-3.068-2.99-2.318-4.229.676v1.642z" mask="url(#km0yhcr31r)"/>
                                    <path fill="#71A34C" d="M6.91 4.43C4.244 2.332 2.018.97.233.347c-1.785-.624-2.506-.821-2.164-.592l6.245-.71 2.681.868-.083 4.517z" mask="url(#km0yhcr31r)"/>
                                    <path fill="#577D39" d="M.56.06C3.356.687 5.12 1.59 5.85 2.772 6.946 4.544 6.913 4.58 6.89 4.407L6.486.02 2.693-.938.56.06z" mask="url(#km0yhcr31r)"/>
                                </g>
                            </g>
                            <g transform="rotate(-23 54.246 -63.431)">
                                <mask id="94zuc0vaft" fill="#fff">
                                    <use xlink:href="#z9mtvz474s"/>
                                </mask>
                                <use fill="#DB3939" xlink:href="#z9mtvz474s"/>
                                <path fill="#981F1C" fill-opacity=".8" d="M2.714 5.927c-3.29 4.692-2.5 9.254 2.371 13.685 4.87 4.431 4.491 4.746-1.139.946l-5.505-6.038-.385-6.768 4.658-1.825z" mask="url(#94zuc0vaft)"/>
                                <path fill="#802121" d="M3.74 4.945c-.047.53.285 1.074.996 1.633 1.067.84-.438.072-.157.586s.573.086-2.741 2.813c-2.21 1.817-2.434 5.076-.672 9.777l11.836 2.364 4.164-9.944-2.665-8.5L3.74 4.946z" mask="url(#94zuc0vaft)" transform="rotate(10 8.58 12.896)"/>
                                <path fill="#992828" d="M3.779 5.06c1.718.242 3.116.592 4.194 1.052 1.078.46 2.156.46 3.233 0 2.348-.068 3.523 1.483 3.523 4.653 0 3.17-1.085 6.055-3.257 8.656l4.22-.42L19.04 7.757l-3.35-3.954L3.78 5.06z" mask="url(#94zuc0vaft)" transform="rotate(-1 11.41 11.612)"/>
                                <path fill="#CD5555" fill-opacity=".2" d="M7.055 5.575C4.042 6.76 2.72 9.579 3.092 14.033c.37 4.454 1.406 7.184 3.108 8.19l-7.48-5.595V4.554c0-.168 2.778.172 8.335 1.021z" mask="url(#94zuc0vaft)"/>
                                <path fill="#FFF" fill-opacity=".21" d="M3.08 6.813c1.244.043-.142 1.872-.443 2.242-.2.247-.521 1.026-.962 2.338.106-3.083.574-4.61 1.404-4.58z" mask="url(#94zuc0vaft)"/>
                                <mask id="nmpn1glgav" fill="#fff">
                                    <use xlink:href="#azbbfl4tpu"/>
                                </mask>
                                <use fill="#46632E" xlink:href="#azbbfl4tpu"/>
                                <path fill="#344A22" d="M7.678 5.592c.357.106.741-.205 1.154-.935.618-1.095.823-1.377 1.315-1.77.328-.262.802-.37 1.422-.323L9.942 5.249 8.284 6.921l-1.783-.288 1.177-1.041z" mask="url(#nmpn1glgav)"/>
                                <g transform="translate(1.764 .047)">
                                    <mask id="x0wyqssj3x" fill="#fff">
                                        <use xlink:href="#492t5hhfxw"/>
                                    </mask>
                                    <use fill="#9DBD80" xlink:href="#492t5hhfxw"/>
                                    <path fill="#8FB46E" d="M-.203 1.047c1.357.108 2.136.283 2.337.527.2.243 1.815 1.097 4.841 2.56l.087-3.087-3.01-2.332-4.255.68v1.652z" mask="url(#x0wyqssj3x)"/>
                                    <path fill="#71A34C" d="M6.955 4.457C4.27 2.347 2.029.977.233.35-1.563-.28-2.289-.477-1.944-.246L4.34-.962l2.7.874-.085 4.545z" mask="url(#x0wyqssj3x)"/>
                                    <path fill="#577D39" d="M.563.06C3.377.691 5.152 1.6 5.887 2.79c1.103 1.782 1.07 1.817 1.046 1.644L6.53.02 2.71-.944.563.06z" mask="url(#x0wyqssj3x)"/>
                                </g>
                            </g>
                            <g transform="rotate(3 -249.648 891.35)">
                                <mask id="m0p5bz46hz" fill="#fff">
                                    <use xlink:href="#f37vk9qyoy"/>
                                </mask>
                                <use fill="#DB3939" xlink:href="#f37vk9qyoy"/>
                                <path fill="#981F1C" fill-opacity=".8" d="M2.715 5.907c-3.292 4.676-2.5 9.222 2.373 13.638s4.493 4.73-1.14.943l-5.507-6.018-.386-6.745 4.66-1.818z" mask="url(#m0p5bz46hz)"/>
                                <path fill="#B32E2E" d="M3.74 5.032c1.404.552 2.461 1.106 3.172 1.663C7.98 7.531 8.3 8.72 8.58 9.231c.28.512 1.185 6.341-2.133 9.06-2.212 1.814-3.976 2.314-5.292 1.503l11.838 2.348 4.173-9.914-2.66-8.47L3.74 5.033z" mask="url(#m0p5bz46hz)" transform="rotate(10 9.16 12.95)"/>
                                <path fill="#992828" d="M3.78 5.042c1.72.241 3.118.59 4.197 1.049 1.078.458 2.156.458 3.235 0 2.349-.067 3.524 1.479 3.524 4.638.001 3.158-1.085 6.034-3.258 8.625l4.223-.418L19.05 7.732l-3.351-3.94L3.78 5.042z" mask="url(#m0p5bz46hz)" transform="rotate(-1 11.415 11.573)"/>
                                <path fill="#CD5555" fill-opacity=".2" d="M7.058 5.556c-3.013 1.181-4.335 3.99-3.965 8.43.37 4.438 1.407 7.158 3.11 8.161l-7.483-5.575V4.539c0-.168 2.779.171 8.338 1.017z" mask="url(#m0p5bz46hz)"/>
                                <path fill="#FFF" fill-opacity=".21" d="M3.08 6.79c1.246.043-.14 1.865-.442 2.234-.2.246-.521 1.023-.962 2.33.106-3.072.575-4.594 1.405-4.565z" mask="url(#m0p5bz46hz)"/>
                                <mask id="djzkmz18iB" fill="#fff">
                                    <use xlink:href="#bthhh0e5vA"/>
                                </mask>
                                <use fill="#46632E" xlink:href="#bthhh0e5vA"/>
                                <path fill="#344A22" d="M7.682 5.573c.357.106.742-.205 1.154-.932.619-1.091.824-1.372 1.316-1.764.328-.261.802-.369 1.423-.322L9.947 5.232 8.289 6.898 6.504 6.61l1.178-1.038z" mask="url(#djzkmz18iB)"/>
                                <g transform="translate(1.765 .047)">
                                    <mask id="nrywjbyfuD" fill="#fff">
                                        <use xlink:href="#hjbrhgselC"/>
                                    </mask>
                                    <use fill="#9DBD80" xlink:href="#hjbrhgselC"/>
                                    <path fill="#8FB46E" d="M-.203 1.043c1.358.108 2.137.283 2.338.525.2.243 1.816 1.093 4.844 2.552l.086-3.077-3.01-2.324-4.258.678v1.646z" mask="url(#nrywjbyfuD)"/>
                                    <path fill="#71A34C" d="M6.958 4.442C4.272 2.338 2.03.973.233.348-1.564-.278-2.29-.476-1.945-.245L4.342-.96l2.7.872-.084 4.53z" mask="url(#nrywjbyfuD)"/>
                                    <path fill="#577D39" d="M.564.06c2.815.629 4.59 1.535 5.326 2.72 1.104 1.776 1.071 1.812 1.047 1.639l-.405-4.4-3.82-.96L.564.06z" mask="url(#nrywjbyfuD)"/>
                                </g>
                            </g>
                            <g>
                                <path fill="#1F452B" d="M20.743 23.417L6.977 0 5.705 1.184 4.361 1.184 4.361 2.028 2.978 2.028 2.978 3.337 2.213 3.485 1.505 3.969 0.775 5.742 8.182 14.323 20.026 25.876z" transform="translate(0 3.354)"/>
                                <path fill="#457752" d="M20.743 23.417L6.977 0 5.705 1.184 4.361 1.184 4.361 2.028 2.978 2.028 2.978 3.337 5.705 8.865 1.505 3.969 0.775 5.742 8.182 14.323 20.026 25.876z" transform="translate(0 3.354)"/>
                                <path fill="#306B44" d="M6.348 3.45c-.28.415-.396.69-.347.825 1.742 4.79 4.003 8.296 4.767 9.78.19.37-1.599-1.295-4.333-2.941-1.822-1.098-2.384-1.364-1.686-.8L4.527 11l10.4 7.21-1.354-3.04L6.348 3.45z" transform="translate(0 3.354)"/>
                                <path fill="#5A8361" d="M.307 7.475L0 8.493l18.859 16.233.527-1.01c-.74-1.625-2.448-3.577-5.124-5.855-2.043-1.74-4.779-4.26-9.124-7.379C4.24 9.838 2.63 8.835.308 7.475z" transform="translate(0 3.354)"/>
                                <path fill="#829E84" d="M6.204 3.26l2.461-1.733h.713l.88-.76 13.975 20.032-4.39 6.035c-4.605-6.916-7.982-12.232-10.131-15.946C7.562 7.173 6.393 4.63 6.204 3.26z" transform="translate(0 3.354)"/>
                            </g>
                            <g>
                                <path fill="#1F452B" d="M20.743 23.417L6.977 0 5.705 1.184 4.361 1.184 4.361 2.028 2.978 2.028 2.978 3.337 2.213 3.485 1.505 3.969 0.775 5.742 8.182 14.323 20.026 25.876z" transform="translate(0 3.354)"/>
                                <path fill="#457752" d="M20.743 23.417L6.977 0 5.705 1.184 4.361 1.184 4.361 2.028 2.978 2.028 2.978 3.337 5.705 8.865 1.505 3.969 0.775 5.742 8.182 14.323 20.026 25.876z" transform="translate(0 3.354)"/>
                                <path fill="#306B44" d="M6.348 3.45c-.28.415-.396.69-.347.825 1.742 4.79 4.003 8.296 4.767 9.78.19.37-1.599-1.295-4.333-2.941-1.822-1.098-2.384-1.364-1.686-.8L4.527 11l10.4 7.21-1.354-3.04L6.348 3.45z" transform="translate(0 3.354)"/>
                                <path fill="#5A8361" d="M.307 7.475L0 8.493l18.859 16.233.527-1.01c-.74-1.625-2.448-3.577-5.124-5.855-2.043-1.74-4.779-4.26-9.124-7.379C4.24 9.838 2.63 8.835.308 7.475z" transform="translate(0 3.354)"/>
                                <path fill="#829E84" d="M6.204 3.26l2.461-1.733h.713l.88-.76 13.975 20.032-4.39 6.035c-4.605-6.916-7.982-12.232-10.131-15.946C7.562 7.173 6.393 4.63 6.204 3.26z" transform="translate(0 3.354)"/>
                            </g>
                            <g>
                                <path fill="#1F452B" d="M20.589 23.254L6.925 0 5.663 1.176 4.329 1.176 4.329 2.014 2.956 2.014 2.956 3.314 2.197 3.461 1.493 3.941 0.77 5.702 8.121 14.224 19.877 25.696z" transform="scale(-1 1) rotate(59 -8.11 -13.845)"/>
                                <path fill="#457752" d="M20.589 23.254L6.925 0 5.663 1.176 4.329 1.176 4.329 2.014 2.956 2.014 2.956 3.314 5.663 8.803 1.493 3.941 0.77 5.702 8.121 14.224 19.877 25.696z" transform="scale(-1 1) rotate(59 -8.11 -13.845)"/>
                                <path fill="#306B44" d="M6.301 3.426c-.278.412-.393.685-.345.819 1.73 4.758 3.974 8.239 4.731 9.712.19.368-1.586-1.286-4.3-2.92-1.809-1.09-2.366-1.355-1.673-.794l-.22.68 10.323 7.16-1.344-3.02L6.3 3.427z" transform="scale(-1 1) rotate(59 -8.11 -13.845)"/>
                                <path fill="#5A8361" d="M.305 7.423L0 8.434l18.719 16.12.523-1.003c-.734-1.614-2.43-3.552-5.086-5.814-2.028-1.727-4.743-4.23-9.056-7.328-.891-.64-2.49-1.635-4.795-2.986z" transform="scale(-1 1) rotate(59 -8.11 -13.845)"/>
                                <path fill="#5A8361" d="M6.158 3.238L8.6 1.516h.708l.873-.755 13.87 19.893-4.356 5.994C15.126 19.779 11.773 14.5 9.64 10.812 7.506 7.123 6.346 4.599 6.158 3.238z" transform="scale(-1 1) rotate(59 -8.11 -13.845)"/>
                            </g>
                            <g transform="translate(13.126 19.455)">
                                <mask id="j5g57b2e4F" fill="#fff">
                                    <use xlink:href="#7bdircs4zE"/>
                                </mask>
                                <use fill="#EEA548" xlink:href="#7bdircs4zE"/>
                                <path fill="#ED9C34" d="M5.494 1.159c1.214.279 2.014.523 2.4.734 4.21 2.29 4.273 5.808 2.974 9.414-1.477 4.102-4.025 6.268-7.644 6.499l13.51-.924 2.15-4.765V3.442C16.117 1.938 14.005.952 12.546.485 11.46.138 6.439-.325 4.629-.086c-.414.054-.126.47.865 1.245z" mask="url(#j5g57b2e4F)"/>
                                <path fill="#D48B2E" d="M10.407 1.159c1.214.279 2.014.523 2.4.734 4.21 2.29 4.273 5.808 2.974 9.414-1.477 4.102-4.025 6.268-7.644 6.499l13.51-.924 2.149-4.765V3.442C21.031 1.938 18.919.952 17.46.485c-1.087-.347-6.108-.81-7.918-.571-.414.054-.126.47.865 1.245z" mask="url(#j5g57b2e4F)"/>
                                <path fill="#ED9C34" d="M10.44 1.338c-.132.545-.393.696-.783.453-.444-.277-.67.057-1.16 0-.546-.064-1.266-.12-1.842 0-2.412.503-4.412 2.546-4.982 4.084-.97 2.617-.97 5.123 0 7.517l-2.901-3.095 1.14-7.288L3.506.204l5.227-.813 1.707 1.947z" mask="url(#j5g57b2e4F)"/>
                                <path fill="#4D3B29" d="M8.393.693c-.342.203-.342.392 0 .568.513.264 1.586 0 1.586-.284 0-.19-.2-.284-.601-.284-.13-.36-.287-.54-.472-.54-.186 0-.357.18-.513.54z" mask="url(#j5g57b2e4F)"/>
                                <path fill="#F1B160" d="M3.278 13.823c-1.904-2.565-2.374-5.169-1.41-7.81C3.311 2.05 6.702 2.292 7.21 2.14c.338-.102.545.59.62 2.073-1.122 4.11-1.683 7.183-1.683 9.22 0 2.039-.956 2.169-2.869.39z" mask="url(#j5g57b2e4F)"/>
                                <path fill="#F4C485" d="M6.272 3.348c-1.358.533-2.189 1.699-2.492 3.5-.303 1.8.113 3.27 1.246 4.414.186-3.842.601-5.987 1.246-6.436.644-.45.644-.942 0-1.478z" mask="url(#j5g57b2e4F)"/>
                            </g>
                            <g transform="translate(21.877 2.013)">
                                <mask id="heme7xyxcH" fill="#fff">
                                    <use xlink:href="#o2cx76iisG"/>
                                </mask>
                                <use fill="#C2C9D9" xlink:href="#o2cx76iisG"/>
                                <path fill="#EBECF3" d="M-0.773 1.903L-0.188 5.493 14.689 2.548 13.39 -1.137z" mask="url(#heme7xyxcH)"/>
                                <path fill="#9BA9C1" d="M0 7.346L14.78 4.357 20.294 31.316 6.032 33.148z" mask="url(#heme7xyxcH)"/>
                                <path fill="#8799B6" d="M1.41 14.064c2.912 1.07 4.766 2.102 5.563 3.095.773.964 2.741-.297 4.879-.57 2.73-.35 5.322 1.729 5.756 2.42.515.82 1.107 2.663 1.776 5.526L8.851 23.318l-7.442-5.834v-3.42z" mask="url(#heme7xyxcH)"/>
                                <mask id="zzov14mayJ" fill="#fff">
                                    <use xlink:href="#xkwhja3flI"/>
                                </mask>
                                <use fill="#4B6F95" xlink:href="#xkwhja3flI"/>
                                <path fill="#9BA9C1" d="M3.286 3.544c.994.326 2.244.326 3.75 0 1.505-.326 2.64-.842 3.401-1.548l-3.98-.48-3.171 2.028z" mask="url(#zzov14mayJ)"/>
                            </g>
                            <g transform="translate(13.042 19.455)">
                                <mask id="s1lbq41xhL" fill="#fff">
                                    <use xlink:href="#uer7e4qi7K"/>
                                </mask>
                                <use fill="#EEA548" xlink:href="#uer7e4qi7K"/>
                                <path fill="#ED9C34" d="M5.494 1.159c1.214.279 2.014.523 2.4.734 4.21 2.29 4.273 5.808 2.974 9.414-1.477 4.102-4.025 6.268-7.644 6.499l13.51-.924 2.15-4.765V3.442C16.117 1.938 14.005.952 12.546.485 11.46.138 6.439-.325 4.629-.086c-.414.054-.126.47.865 1.245z" mask="url(#s1lbq41xhL)"/>
                                <path fill="#D48B2E" d="M10.407 1.159c1.214.279 2.014.523 2.4.734 4.21 2.29 4.273 5.808 2.974 9.414-1.477 4.102-4.025 6.268-7.644 6.499l13.51-.924 2.149-4.765V3.442C21.031 1.938 18.919.952 17.46.485c-1.087-.347-6.108-.81-7.918-.571-.414.054-.126.47.865 1.245z" mask="url(#s1lbq41xhL)"/>
                                <path fill="#ED9C34" d="M10.44 1.338c-.132.545-.393.696-.783.453-.444-.277-.67.057-1.16 0-.546-.064-1.266-.12-1.842 0-2.412.503-4.412 2.546-4.982 4.084-.97 2.617-.97 5.123 0 7.517l-2.901-3.095 1.14-7.288L3.506.204l5.227-.813 1.707 1.947z" mask="url(#s1lbq41xhL)"/>
                                <path fill="#4D3B29" d="M8.393.693c-.342.203-.342.392 0 .568.513.264 1.586 0 1.586-.284 0-.19-.2-.284-.601-.284-.13-.36-.287-.54-.472-.54-.186 0-.357.18-.513.54z" mask="url(#s1lbq41xhL)"/>
                                <path fill="#F1B160" d="M3.278 13.823c-1.904-2.565-2.374-5.169-1.41-7.81C3.311 2.05 6.702 2.292 7.21 2.14c.338-.102.545.59.62 2.073-1.122 4.11-1.683 7.183-1.683 9.22 0 2.039-.956 2.169-2.869.39z" mask="url(#s1lbq41xhL)"/>
                                <path fill="#F4C485" d="M6.272 3.348c-1.358.533-2.189 1.699-2.492 3.5-.303 1.8.113 3.27 1.246 4.414.186-3.842.601-5.987 1.246-6.436.644-.45.644-.942 0-1.478z" mask="url(#s1lbq41xhL)"/>
                            </g>
                            <g transform="translate(25.175 20.322)">
                                <mask id="idjudb16tN" fill="#fff">
                                    <use xlink:href="#jlnczdqb9M"/>
                                </mask>
                                <use fill="#EEA548" xlink:href="#jlnczdqb9M"/>
                                <path fill="#ED9C34" d="M5.177 1.088c1.144.262 1.898.491 2.262.689 3.967 2.15 4.026 5.452 2.802 8.837-1.391 3.852-3.793 5.885-7.203 6.101l12.73-.867 2.026-4.473V3.23C15.188 1.819 13.198.894 11.823.456 10.8.129 6.068-.305 4.363-.081c-.391.051-.12.44.814 1.169z" mask="url(#idjudb16tN)"/>
                                <path fill="#D48B2E" d="M9.806 1.088c1.144.262 1.898.491 2.262.689 3.967 2.15 4.026 5.452 2.803 8.837-1.392 3.852-3.793 5.885-7.204 6.101l12.731-.867 2.025-4.473V3.23C19.818 1.819 17.827.894 16.453.456c-1.024-.327-5.756-.761-7.461-.537-.39.051-.12.44.814 1.169z" mask="url(#idjudb16tN)"/>
                                <path fill="#ED9C34" d="M9.837 1.256c-.124.512-.37.654-.737.425-.418-.26-.632.053-1.094 0-.514-.06-1.192-.113-1.735 0-2.273.472-4.157 2.39-4.694 3.834-.915 2.457-.915 4.81 0 7.057l-2.734-2.906 1.074-6.84L3.304.191 8.23-.571l1.608 1.827z" mask="url(#idjudb16tN)"/>
                                <path fill="#4D3B29" d="M7.909.65c-.322.191-.322.369 0 .534.483.247 1.494 0 1.494-.267 0-.178-.189-.266-.566-.266-.122-.339-.27-.508-.445-.508s-.336.17-.483.508z" mask="url(#idjudb16tN)"/>
                                <path fill="#F1B160" d="M3.089 12.977C1.295 10.568.852 8.124 1.759 5.644c1.362-3.72 4.557-3.491 5.035-3.635.318-.095.513.553.584 1.946-1.057 3.858-1.586 6.743-1.586 8.656 0 1.914-.9 2.035-2.703.366z" mask="url(#idjudb16tN)"/>
                                <path fill="#F4C485" d="M5.91 3.143c-1.28.5-2.062 1.595-2.348 3.285-.285 1.69.106 3.071 1.174 4.144.175-3.606.567-5.62 1.174-6.042.607-.421.607-.884 0-1.387z" mask="url(#idjudb16tN)"/>
                            </g>
                            <g transform="scale(-1 1) rotate(-63 -2.047 59.97)">
                                <mask id="0i0e5n96cP" fill="#fff">
                                    <use xlink:href="#niieb0gu8O"/>
                                </mask>
                                <use fill="#DDC987" xlink:href="#niieb0gu8O"/>
                                <path fill="#D7BF6F" d="M1.24 5.796c1.415-.86 2.123-1.147 2.123-.86 0 .43-2.201 4.4 0 8.904 2.202 4.504 11.23 6.873 12.02 6.873.79 0 6.768.466 11.146-2.643 4.378-3.11-.127 3.777-2.475 4.944-2.348 1.168-9.375 1.324-10.328 1.324-.954 0-6.971-2.321-8.667-2.39-1.696-.068-7.031-4.497-7.031-5.005 0-.507-1.701-5.633-.545-7.47.771-1.225 2.023-2.45 3.756-3.677z" mask="url(#0i0e5n96cP)"/>
                                <path fill="#D1B15E" d="M-.04 6.27c1.416-.86 2.124-1.147 2.124-.86 0 .43-2.201 4.402 0 8.905 2.201 4.504 11.23 6.873 12.02 6.873.79 0 6.768.466 11.145-2.643 4.378-3.11-.126 3.776-2.474 4.944-2.349 1.168-9.376 1.324-10.329 1.324-.953 0-6.97-2.321-8.666-2.39-1.696-.068-7.032-4.497-7.032-5.005 0-.507-1.7-5.633-.544-7.47.771-1.225 2.023-2.45 3.756-3.677z" mask="url(#0i0e5n96cP)" opacity=".626"/>
                                <path fill="#D1B15E" d="M5.77 5.21c-1.014-.554-1.52-.74-1.52-.554 0 .277-.77 5.382.76 7.343 1.53 1.96 5.405 5.017 11.839 5.017 4.289 0 7.965-.548 11.03-1.644l-2.818-2.33h-7.318l-5.653-1.545-3.776-3.158-2.544-3.13z" mask="url(#0i0e5n96cP)"/>
                                <path fill="url(#fputoqi10Q)" d="M3.925 1.74l3.205.782C5.705 3.734 4.993 4.682 4.993 5.37c0 .413-.253-.16-.965-.323-.22-.05-.664.302-1.225.323-.16.005-.41-.102-.755-.323l1.877-3.307z" mask="url(#0i0e5n96cP)"/>
                                <path fill="#AC885B" d="M3.787 1.634L4.528 1.634 5.027 2.115 6.646 1.634 6.034 -0.354 3.787 -0.717z" mask="url(#0i0e5n96cP)"/>
                                <path fill="#7E6444" d="M26.29 14.536c-.608.976-.608 1.767 0 2.375.607.607 1.25 1.074 1.926 1.401v-3.08l-1.926-.696z" mask="url(#0i0e5n96cP)"/>
                                <path fill="url(#ys9zt6ywqR)" d="M3.224 5.236c.63-2.42 1.02-3.63 1.171-3.63.152 0-.239.063-1.171.19l-.548 2.147-.155 1.44.703-.147z" mask="url(#0i0e5n96cP)"/>
                                <path fill="#E5D1A3" d="M2.538 10.828c.198 1.277 1.781 6.908 11.377 8.428 2.524.4 8 .133 10.137-1.344-8.55 1.357-14.61.293-18.175-3.192-1.312-1.283-2.796-5-3.14-5.724-.222-.465-.396.555-.199 1.832z" mask="url(#0i0e5n96cP)"/>
                            </g>
                            <g transform="scale(-1 1) rotate(-8 49.09 502.06)">
                                <mask id="cu3ssnd8pT" fill="#fff">
                                    <use xlink:href="#6y71g8529S"/>
                                </mask>
                                <use fill="#DDC987" xlink:href="#6y71g8529S"/>
                                <path fill="#D7BF6F" d="M1.24 5.796c1.415-.86 2.123-1.147 2.123-.86 0 .43-2.201 4.4 0 8.904 2.202 4.504 11.23 6.873 12.02 6.873.79 0 6.768.466 11.146-2.643 4.378-3.11-.127 3.777-2.475 4.944-2.348 1.168-9.375 1.324-10.328 1.324-.954 0-6.971-2.321-8.667-2.39-1.696-.068-7.031-4.497-7.031-5.005 0-.507-1.701-5.633-.545-7.47.771-1.225 2.023-2.45 3.756-3.677z" mask="url(#cu3ssnd8pT)"/>
                                <path fill="#D1B15E" d="M-.04 6.27c1.416-.86 2.124-1.147 2.124-.86 0 .43-2.201 4.402 0 8.905 2.201 4.504 11.23 6.873 12.02 6.873.79 0 6.768.466 11.145-2.643 4.378-3.11-.126 3.776-2.474 4.944-2.349 1.168-9.376 1.324-10.329 1.324-.953 0-6.97-2.321-8.666-2.39-1.696-.068-7.032-4.497-7.032-5.005 0-.507-1.7-5.633-.544-7.47.771-1.225 2.023-2.45 3.756-3.677z" mask="url(#cu3ssnd8pT)" opacity=".626"/>
                                <path fill="#D1B15E" d="M5.77 5.21c-1.014-.554-1.52-.74-1.52-.554 0 .277-.77 5.382.76 7.343 1.53 1.96 5.405 5.017 11.839 5.017 4.289 0 7.965-.548 11.03-1.644l-2.818-2.33h-7.318l-5.653-1.545-3.776-3.158-2.544-3.13z" mask="url(#cu3ssnd8pT)"/>
                                <path fill="url(#fputoqi10Q)" d="M3.925 1.74l3.205.782C5.705 3.734 4.993 4.682 4.993 5.37c0 .413-.253-.16-.965-.323-.22-.05-.664.302-1.225.323-.16.005-.41-.102-.755-.323l1.877-3.307z" mask="url(#cu3ssnd8pT)"/>
                                <path fill="#AC885B" d="M3.787 1.634L4.528 1.634 5.027 2.115 6.646 1.634 6.034 -0.354 3.787 -0.717z" mask="url(#cu3ssnd8pT)"/>
                                <path fill="#7E6444" d="M26.29 14.536c-.608.976-.608 1.767 0 2.375.607.607 1.25 1.074 1.926 1.401v-3.08l-1.926-.696z" mask="url(#cu3ssnd8pT)"/>
                                <path fill="url(#ys9zt6ywqR)" d="M3.224 5.236c.63-2.42 1.02-3.63 1.171-3.63.152 0-.239.063-1.171.19l-.548 2.147-.155 1.44.703-.147z" mask="url(#cu3ssnd8pT)"/>
                                <path fill="#E5D1A3" d="M2.538 10.828c.198 1.277 1.781 6.908 11.377 8.428 2.524.4 8 .133 10.137-1.344-8.55 1.357-14.61.293-18.175-3.192-1.312-1.283-2.796-5-3.14-5.724-.222-.465-.396.555-.199 1.832z" mask="url(#cu3ssnd8pT)"/>
                            </g>
                            <g transform="scale(-1 1) rotate(25 -55.234 -144.78)">
                                <mask id="onk3hvptxV" fill="#fff">
                                    <use xlink:href="#c9scf5r3nU"/>
                                </mask>
                                <use fill="#DDC987" xlink:href="#c9scf5r3nU"/>
                                <path fill="#D7BF6F" d="M1.24 5.796c1.415-.86 2.123-1.147 2.123-.86 0 .43-2.201 4.4 0 8.904 2.202 4.504 11.23 6.873 12.02 6.873.79 0 6.768.466 11.146-2.643 4.378-3.11-.127 3.777-2.475 4.944-2.348 1.168-9.375 1.324-10.328 1.324-.954 0-6.971-2.321-8.667-2.39-1.696-.068-7.031-4.497-7.031-5.005 0-.507-1.701-5.633-.545-7.47.771-1.225 2.023-2.45 3.756-3.677z" mask="url(#onk3hvptxV)"/>
                                <path fill="#D1B15E" d="M-.04 6.27c1.416-.86 2.124-1.147 2.124-.86 0 .43-2.201 4.402 0 8.905 2.201 4.504 11.23 6.873 12.02 6.873.79 0 6.768.466 11.145-2.643 4.378-3.11-.126 3.776-2.474 4.944-2.349 1.168-9.376 1.324-10.329 1.324-.953 0-6.97-2.321-8.666-2.39-1.696-.068-7.032-4.497-7.032-5.005 0-.507-1.7-5.633-.544-7.47.771-1.225 2.023-2.45 3.756-3.677z" mask="url(#onk3hvptxV)" opacity=".626"/>
                                <path fill="#D1B15E" d="M5.77 5.21c-1.014-.554-1.52-.74-1.52-.554 0 .277-.976 5.65.554 7.611.511.656 1.675 2.98 2.72 3.727 2.078 1.483 5.043 1.022 9.325 1.022 4.289 0 7.965-.548 11.03-1.644l-2.818-2.33h-7.318l-5.653-1.545-3.776-3.158-2.544-3.13z" mask="url(#onk3hvptxV)"/>
                                <path fill="url(#fputoqi10Q)" d="M3.925 1.74l3.205.782C5.705 3.734 4.993 4.682 4.993 5.37c0 .413-.253-.16-.965-.323-.22-.05-.664.302-1.225.323-.16.005-.41-.102-.755-.323l1.877-3.307z" mask="url(#onk3hvptxV)"/>
                                <path fill="#AC885B" d="M3.787 1.634L4.528 1.634 5.027 2.115 6.646 1.634 6.034 -0.354 3.787 -0.717z" mask="url(#onk3hvptxV)"/>
                                <path fill="#7E6444" d="M26.29 14.536c-.608.976-.608 1.767 0 2.375.607.607 1.25 1.074 1.926 1.401v-3.08l-1.926-.696z" mask="url(#onk3hvptxV)"/>
                                <path fill="url(#ys9zt6ywqR)" d="M3.224 5.236c.63-2.42 1.02-3.63 1.171-3.63.152 0-.239.063-1.171.19l-.548 2.147-.155 1.44.703-.147z" mask="url(#onk3hvptxV)"/>
                                <path fill="#E5D1A3" d="M2.538 10.828c.198 1.277 1.781 6.908 11.377 8.428 2.524.4 8 .133 10.137-1.344-8.55 1.357-14.61.293-18.175-3.192-1.312-1.283-2.796-5-3.14-5.724-.222-.465-.396.555-.199 1.832z" mask="url(#onk3hvptxV)"/>
                            </g>
                            <g transform="translate(22.748 23.961)">
                                <mask id="l4xjps3klX" fill="#fff">
                                    <use xlink:href="#1i12d6n30W"/>
                                </mask>
                                <use fill="#CFBBA5" xlink:href="#1i12d6n30W"/>
                                <path fill="#C7AE94" d="M48.892-1.314h9.898v60.23H47.133c.172-18.633.399-32.785.681-42.457.283-9.672.642-15.596 1.078-17.773z" mask="url(#l4xjps3klX)"/>
                                <g mask="url(#l4xjps3klX)">
                                    <g transform="translate(8.128 10.59)">
                                        <use fill="#DB3939" xlink:href="#f9fxq21ulY"/>
                                        <path fill="#FFF" fill-rule="nonzero" d="M34.17 11.184c.44-.006.645-.22.64-.653l-.008-.575c-.005-.446-.214-.655-.653-.649l-2.584.031-.014-1.196 1.891-.023c.439-.006.643-.22.639-.654l-.008-.574c-.005-.446-.215-.655-.653-.65l-1.892.024-.013-1.15 2.238-.027c.437-.005.643-.22.638-.653l-.007-.575c-.006-.447-.216-.655-.654-.65l-4.026.05c-.427.006-.632.22-.627.665l.08 6.675c.006.434.216.643.643.638l4.37-.054zm-9.437-7.305c-.1-.442-.327-.627-.827-.621l-1.008.012c-.498.006-.72.196-.81.64l-.76 3.91h-.022l-.7-3.892c-.077-.443-.305-.626-.828-.62l-.972.012c-.403.004-.626.182-.622.533.001.07.014.163.038.255l1.635 6.497c.113.431.328.639.887.633l.972-.012c.498-.006.72-.195.81-.64l.837-4.273h.025l.941 4.251c.1.443.329.627.827.62l.973-.01c.557-.008.768-.22.87-.654l1.473-6.534c.022-.094.033-.187.032-.257-.004-.35-.244-.523-.635-.518l-.83.01c-.522.006-.745.196-.81.64l-.605 3.908H25.6l-.867-3.89zm-7.761 7.305c.438-.005.644-.22.638-.654l-.007-.574c-.005-.446-.215-.655-.653-.65l-2.585.032-.014-1.196 1.892-.023c.439-.005.644-.22.638-.654l-.006-.575c-.007-.445-.216-.654-.654-.648l-1.893.023-.014-1.15 2.24-.027c.437-.005.642-.22.637-.653l-.007-.575c-.006-.446-.216-.655-.654-.65l-4.026.05c-.427.006-.632.22-.627.665l.08 6.676c.005.434.215.642.642.637l4.373-.054zM6.74 6.65l-.023-1.714.587-.006c.789-.01 1.125.289 1.133.845.007.555-.322.86-1.109.868l-.588.007zm-.447 4.573c.45-.005.661-.22.655-.655L6.92 8.194h.023l1.429 2.37c.266.444.494.628.897.624l1.41-.016c.345-.006.628-.138.625-.409-.002-.105-.05-.234-.147-.386l-1.763-2.52c1.11-.424 1.586-1.218 1.574-2.159-.019-1.588-.978-2.517-3.47-2.487l-2.43.03c-.44.005-.65.22-.644.666l.082 6.692c.005.435.221.644.66.639l1.127-.014z"/>
                                    </g>
                                </g>
                                <path fill="#AC8A66" d="M-6.041 2.831L-6.041 56.802 -12.834 52.087 -12.345 -2.042z" mask="url(#l4xjps3klX)"/>
                                <mask id="6fyz07cegaa" fill="#fff">
                                    <use xlink:href="#vkyucwz6cZ"/>
                                </mask>
                                <use fill="#C7AE94" xlink:href="#vkyucwz6cZ"/>
                                <path fill="#BEA284" d="M19.795 -9.706L16.619 -12.573 37.315 -12.573 34.378 -9.706z" mask="url(#6fyz07cegaa)"/>
                            </g>
                            <use fill="#B59675" xlink:href="#5wce6259uab"/>
                        </g>
                        <mask id="l3j6i59d1ad" fill="#fff">
                            <use xlink:href="#vs6cnku58ac"/>
                        </mask>
                        <use fill="#34638B" xlink:href="#vs6cnku58ac"/>
                        <path fill="#274763" d="M88.87 62.783c.328 2.74.83 4.441 1.51 5.103 1.801 1.759 8.798 3.736 11.2 2.144.447-.296 5.576.96 7.92-1.367.459-.455 2.466.12 4.092.094.898-.015 5.516 9.244 5.857 8.587.862-1.663.125-6.059-2.211-13.19l-1.624-4.099-11.976 2.728-12.418-2.728-2.35 2.728z" mask="url(#l3j6i59d1ad)"/>
                        <g transform="translate(73.43 25.781)">
                            <mask id="bihpm30lvaf" fill="#fff">
                                <use xlink:href="#gmvp02y8iae"/>
                            </mask>
                            <use fill="#F8D4C0" transform="rotate(15 24.165 22.195)" xlink:href="#gmvp02y8iae"/>
                            <path fill="#DDC2B1" d="M9.785 12.456c.795.295 1.493.008 2.095-.86.903-1.303-3.082-2.614-3.082-2.147 0 .311.329 1.314.987 3.007z" mask="url(#bihpm30lvaf)" transform="rotate(35 10.405 10.96)"/>
                            <path fill="#A47F58" d="M8.723 8.806c-.48-.278-.862-.177-.438-.774.424-.598 1.816-1.09 2.826-1.09s2.629 1.468 2.594 1.652c-.035.183-1.528-1.23-2.594-1.008-1.065.221-1.125.393-1.51.865-.386.472-.397.633-.878.355z" mask="url(#bihpm30lvaf)" transform="rotate(35 10.904 7.942)"/>
                            <path fill="#E5C3B0" d="M15.475 6.516c2.106 2.023 1.15 6.438 2.111 8.163L16.4 3.86l-4.844-1.434C10.261.184 9.33-.258 8.763 1.1c-.443 1.061 1.03 2.667 2.793 3.692 1.622.943 3.51 1.333 3.919 1.725z" mask="url(#bihpm30lvaf)"/>
                            <path fill="#E2C1AF" d="M33.177 28.638c-2.618-.647-4.724-.535-5.785-1.231-1.77-1.16-2.747-3.466-3.596-5.265-11.61 5.811-16.83 9.217-15.66 10.215.549.467-.844 9.948 0 10.525.845.577 23.24 1.741 24.194 1.99 1.672.434 2.313-6.996 3.025-6.894.531.075 6.324-6.94 6.836-6.94l1.45-1.538c-1.292.291-2.202.447-2.73.468-2.004.077-4.279-.98-5.311-1.088-2.161-.225-1.864-.104-2.423-.242z" mask="url(#bihpm30lvaf)" transform="matrix(-1 0 0 1 51.498 0)"/>
                            <path fill="#C3A390" d="M43.627 28.638c-2.617-.647-4.724-.535-5.785-1.231-1.77-1.16-2.746-3.466-3.596-5.265-11.61 5.811-16.83 9.217-15.659 10.215.548.467-.844 9.948 0 10.525.284.194 6.776 1.842 10.585-.276 7.54-4.191 14.827-13.876 14.455-13.968z" mask="url(#bihpm30lvaf)" transform="matrix(-1 0 0 1 61.949 0)"/>
                        </g>
                        <g transform="translate(67.031 12.739)">
                            <mask id="s8qh0tnn2ah" fill="#fff">
                                <use xlink:href="#p0pops1ccag"/>
                            </mask>
                            <use fill="#806344" transform="rotate(27 31.853 31.4)" xlink:href="#p0pops1ccag"/>
                            <path fill="#806344" d="M22.492 13.504c10.772-3.223 18.05-1.975 21.832 3.744 1.828 2.764 4.37 12.623 5.745 19.44.64 3.182 1.423 5.18 2.086 7.963.663 2.782 2.449 4.547 1.673 5.393-.776.845.433 1.326-1.657 2.977-2.09 1.65-5.776 2.358-7.772 2.68-1.33.214-.551 1.103 2.337 2.667l6.574-2.65 4.383-5.667 1.291-10.942L44.303 6.313l-21.811 7.191z" mask="url(#s8qh0tnn2ah)" transform="rotate(27 40.738 32.34)"/>
                            <path fill="#664F36" d="M36.182 50.396c-4.144-4.518-5.572-9.105-4.283-13.76 1.934-6.983 4.47-7.592-1.697-13.164s-8.658-11.17-9.864-17.144c-.381-1.886-4.5 1.625-4.656 1.624-.155 0-2.426 2.321-3.004 5.001-.154.713.025-5.158-.009-4.359-.04.962-2.825 3.996-1.668 7.44 1.158 3.443 3.207 3.447 3.65 4.268 1.388 2.577 3.965 8.598 7.728 18.062 1.833-.22 2.92.951 3.264 3.513.344 2.562 2.003 4.659 4.978 6.291 1.975 2.2 3.673 3.308 5.095 3.32 1.422.014 1.577-.35.466-1.092z" mask="url(#s8qh0tnn2ah)" transform="rotate(27 23.817 28.63)"/>
                            <path fill="#806344" d="M17.947 36.947c-1.432-4.131-.096-12.047-1.574-15.697-1.5-3.705-1.481-7.052.024-8.913-.123 4.602 1.34 8.427 4.388 11.477 1.347 1.347 4.274 4.148 5.101 7.146.48 1.739.21 10.092 1.517 13.371 2.234 5.604 4.218 7.366 4.22 8.282.004 2.377-8.335-1.05-5.81 1.895-3.041-2.772-4.564-5.35-4.568-7.734-.007-3.576-.853-2.77-3.298-9.827z" mask="url(#s8qh0tnn2ah)" transform="rotate(27 23.44 33.422)"/>
                            <path fill="#664F36" d="M28.848 29.305c2.68 3.005 4.27 6.218 4.77 9.639.748 5.131-1.097 17.75 1.746 19.35 1.461.822 7.105 1.327 11.911-2.838.954-.826 2.199-3.246 3.735-7.258-.291.301-.645.346-1.06.135-.414-.21-3.008-4.52-7.78-12.925.005 4.22.144 7.096.418 8.626.655 3.657 2.627 5.636 2.817 6.675.634 3.467 2.043 2.076 1.866 2.515-.454 1.128-2.525 1.38-2.927 1.524-4.804 1.713-6.855-8.528-6.86-11.021-.01-5.24-1.052-9.486-4.475-11.74-2.283-1.502-3.67-2.396-4.16-2.682z" mask="url(#s8qh0tnn2ah)" transform="rotate(27 39.93 44.08)"/>
                        </g>
                        <path fill="#4B6F95" d="M81.094 111.375c0-7.164-.115-11.417-.346-12.76-.65-3.787-.606-6.92-.606-8.189 0-1.526.987-3.242 2.962-5.146 3.47 17.857 4.785 27.989 3.945 30.396-.839 2.408-1.9 3.977-3.182 4.707l-1.907-3.037-.866-5.97zM97.154 79.369c2.724.45 4.848 1.857 6.371 4.22 2.286 3.547 2.805 7.24 3.435 10.996 1.65 9.832.564 15.962-.043 17.704-.84 2.408-1.9 3.977-3.182 4.707l-8.355 1.51 1.774-39.137z"/>
                        <path fill="#34638B" d="M102.938 86.93c1.33 2.194 2.137 3.851 2.42 4.972 1.991 7.884 2.126 13.325 2.472 15.389 1.649 9.832 1.317 2.67.71 4.412-.84 2.407-1.9 3.976-3.182 4.706l-2.42.35c.922-7.102 1.383-12.478 1.383-16.13 0-3.652-.461-8.219-1.383-13.7z"/>
                        <path fill="#274763" d="M107.768 105.551c-1.078-2.823-1.564-4.986-1.458-6.49.215-3.062-.632-6.425-.632-9.416 0-.534-.718-2.511-2.153-5.932 2.782 3.983 4.514 8.396 5.195 13.24.224 1.59.224 4.457 0 8.598h-.952zM81.222 104.716c-.42-2.068-.62-3.566-.597-4.493.088-3.586-1.344-13.372-1.135-15.335.106-1.007.912-1.786 1.135-2.67.254-1.007.592-2.395 1.013-4.164 1.781 5.924 2.314 10.467 1.598 13.628-.716 3.161-1.236 12.728-1.56 28.7l-.454-7.651v-8.015z"/>
                        <g transform="translate(10.92 81.893)">
                            <mask id="cwp4amo14aj" fill="#fff">
                                <use xlink:href="#q41jmypi1ai"/>
                            </mask>
                            <use fill="#F2D2C0" xlink:href="#q41jmypi1ai"/>
                            <path fill="#E8C3AE" d="M6.2 3.033c-.976.79-1.675 1.23-2.095 1.32-.421.091-.882-.1-1.384-.572l-.295 1.122c-.47.811-.706 1.41-.706 1.797 0 .764.706 1.664.706 1.898 0 .3-.616.292-.706 1.69-.046.711-.533 1.118-.75 1.732-.233.666-.188 1.52 0 1.789.323.456 7.04 7.763 8.086 7.164.235-.135 1.209-1.844.675-4.68-.134-.711-.763-1.893-1.888-3.547.538-.032.671-.851.4-2.458C7.97 8.681 7.29 6.263 6.2 3.033z" mask="url(#cwp4amo14aj)"/>
                            <path fill="#D9B5A1" d="M6.2 3.033c-.976.457-1.675.712-2.095.765-.421.052-.882-.058-1.384-.332l.305.65h-.6c1.437.653 2.155 1.1 2.155 1.338 0 .358-.468.402.24.981.471.387 1.05.6 1.735.638L6.2 3.033zM6.841 11.747c-.083-.232-.394-.468-.93-.71-.537-.24-1.246-.786-2.128-1.634.868 1.168 1.48 1.869 1.837 2.104.535.353 1.222.912 1.934 1.24.474.218.727.218.759 0l-1.472-1zM8.766 17.705c.103-.23-.071-.557-.524-.982-.34-.32-1.401-1.293-3.086-2.356-.372-.234-.987-.653-1.846-1.256 1.652 1.442 2.734 2.393 3.246 2.85.636.57 1.133 1.128 1.295 1.234.535.353.764.794 1.476 1.121.474.219.775.384.903.497l-1.464-1.108zM8.801 18.647c-.173.024-.485-.177-.938-.602-.452-.425-1.264-1.12-2.434-2.083 1.266 1.432 2.077 2.266 2.434 2.5.535.354 1.157 1.229 1.868 1.556.474.219.652.13.534-.264l-1.464-1.107z" mask="url(#cwp4amo14aj)"/>
                            <path fill="#E5C3B0" d="M5.429 17.705L3.167 15.967 1.192 14.367 3.31 16.667 5.429 18.217z" mask="url(#cwp4amo14aj)"/>
                        </g>
                    </g>
                </g>
            </g>
        </g>
        <path fill="#3A8D99" fill-rule="nonzero" d="M81.086 3.152l.27.124c4.412 2.059 8.867 5.894 17.59 14.917.981 1.016 2.63 1.57 5.077 1.829l.168.017c1.6.158 3.047.196 6.133.171l3.36-.036c4.006-.038 6.24.004 8.869.207 8.392.648 14.44 2.917 18.477 7.742 2.366 2.827 3.553 6.425 3.76 10.872.172 3.724-.321 7.886-1.432 13.26l-.186.885c-.253 1.188-.534 2.436-.92 4.098l-.673 2.897c-1.294 5.605-1.675 7.55-1.998 10.34-.484 4.181-.198 7.324 1.058 9.676l.067.123c3.961 7.14 4.959 17.689 3.157 28.429-1.677 9.996-5.56 18.492-9.896 21.51-3.667 2.552-8.021 3.764-13.475 3.963l-.261.009c-3.904.118-6.947-.125-14.492-1.059l-3.03-.378c-10.138-1.259-15.5-1.573-21.763-.915-5.28.554-10.126 1.873-14.688 4.119l-.29.144c-7.413 3.723-16.558 5.593-24.917 5.11-8.805-.507-15.952-3.546-19.873-8.793-2.111-2.826-2.945-7.593-3.225-15.7l-.056-1.898-.068-2.9c-.177-7.366-.452-10.24-1.462-12.453l-.09-.198-.092-.196c-1.705-3.644-3.509-6.216-5.525-8.106-.805-.754-1.624-1.386-2.556-1.999l-.215-.139c-.216-.139-.439-.278-.692-.432l-1.225-.736-.115-.07C4.2 86.57 3.358 85.792 2.7 84.481c-.813-1.62-1.218-4.006-1.225-7.642-.005-3 .87-5.427 2.59-7.61l.152-.19c1.252-1.545 2.741-2.817 5.412-4.76l1.888-1.357.399-.289c3.858-2.807 5.922-4.728 7.578-7.436 2.221-3.633 2.974-8.038 2.073-13.712-1.613-10.157 3.479-20.264 13.225-28.444 8.623-7.238 19.92-11.964 28.361-12.01l1.229-.007C73.937 1 77.1 1.357 81.086 3.152zM5.38 88.362l1.083.65c.45.271.796.486 1.14.712.891.585 1.67 1.186 2.434 1.902 1.927 1.808 3.665 4.285 5.323 7.828.06.127.12.256.178.386l.057.127c.89 2.043 1.153 4.923 1.324 11.984l.074 3.146c.013.5.026.919.042 1.4l.026.751c.304 7.995 1.168 12.74 3.387 15.71 4.103 5.49 11.5 8.635 20.55 9.157 8.418.486 17.605-1.367 25.113-5.074l.264-.132c4.544-2.282 9.377-3.616 14.665-4.171l.381-.04c6.142-.608 11.536-.258 21.81 1.032l2.65.331c7.411.914 10.455 1.152 14.377 1.033 5.74-.174 10.342-1.43 14.228-4.135 4.583-3.189 8.56-11.891 10.273-22.106 1.815-10.816.837-21.46-3.137-28.799l-.122-.221c-1.18-2.127-1.478-5.065-1.04-9.04l.067-.58c.3-2.47.683-4.419 1.813-9.333l.983-4.238c.383-1.667.66-2.918.925-4.203l.123-.6c1.038-5.154 1.497-9.213 1.326-12.886-.215-4.632-1.465-8.42-3.97-11.414-4.182-4.999-10.367-7.353-18.848-8.045l-.546-.042c-2.681-.197-5.023-.228-9.329-.18l-1.831.02c-3.595.038-5.147.01-6.811-.15l-.082-.008c-2.344-.232-3.865-.73-4.68-1.573l-.797-.822C90.35 8.041 85.962 4.351 81.46 2.323 79.08 1.25 76.637.657 73.585.367l-.48-.044C70.782.126 68.39.092 63.147.121c-8.67.047-20.164 4.857-28.941 12.223-9.97 8.367-15.209 18.768-13.539 29.284.869 5.468.153 9.654-1.95 13.095-1.578 2.58-3.573 4.436-7.343 7.178l-1.773 1.276c-3.173 2.282-4.824 3.674-6.252 5.489C1.506 71.007.56 73.632.565 76.84c.013 6.923 1.21 9.31 4.816 11.52z"/>
        <ellipse cx="126.319" cy="19.461" fill="#BDDCE9" rx="5.535" ry="5.189"/>
        <circle cx="3.805" cy="119.169" r="3.805" fill="#D9EAF2"/>
        <circle cx="21.793" cy="130.93" r="7.956" fill="#D9EAF2"/>
        <circle cx="131.779" cy="30.119" r="3.64" fill="#CCE3EE"/>
    </g>
</svg>
