<svg xmlns="http://www.w3.org/2000/svg" width="32" height="33" viewBox="0 0 32 33"><path fill="#007d3e" d="M12.667 27c-1.657 0-3-1.343-3-3s1.343-3 3-3 3 1.343 3 3-1.343 3-3 3zm0-2c.552 0 1-.448 1-1s-.448-1-1-1c-.553 0-1 .448-1 1s.447 1 1 1zm10 2c-1.657 0-3-1.343-3-3s1.343-3 3-3 3 1.343 3 3-1.343 3-3 3zm0-2c.552 0 1-.448 1-1s-.448-1-1-1c-.553 0-1 .448-1 1s.447 1 1 1zM8.52 6.74h19.01c.626 0 1.134.508 1.134 1.134-.009.17-.009.17-.051.336l-3.01 9.703c-.304.976-1.207 1.641-2.23 1.641H11.67c-1.04 0-1.956-.689-2.243-1.689L6.209 6.667H3.933c-.552 0-1-.448-1-1 0-.553.448-1 1-1h2.728c.625 0 1.173.413 1.346 1.013l.31 1.081c.066-.013.134-.02.203-.02z"/></svg>
