<svg xmlns="http://www.w3.org/2000/svg" xmlns:xlink="http://www.w3.org/1999/xlink" width="200" height="200"><defs><path id="a" d="M70 140c38.66 0 70-31.34 70-70S108.66 0 70 0 0 31.34 0 70s31.34 70 70 70z"/><path id="c" d="M.188.856C-.188.055-.116-.39 1.495.457 4.172 1.865 8.06 3.478 13.013 3.478c4.8 0 8.305-.659 11.844-3.066.678-.462 1.417-.368 1.042.426C25.67 1.327 22.332 10 13.153 10 3.973 10 .397 1.295.188.856z"/></defs><g fill="none" fill-rule="evenodd"><g transform="translate(30 36)"><mask id="b" fill="#fff"><use xlink:href="#a"/></mask><use fill="#E4E6E7" xlink:href="#a"/><g fill-rule="nonzero" mask="url(#b)"><g fill="#FFD4AF"><path d="M17.793 156.747v-40.126h10.502l-.058 20.523c0 6.824.527 7.636 1.944 9.573 1.414 1.937 1.062 5.455 1.237 8.095.18 2.641 3.716 6.51 1.949 7.04-1.772.528-3.363-1.936-3.972-3.695-.607-1.76-2.4-4.4-3.462-3.872-.751.375-2.025 4.104-.716 7.312.418 1.025-3.377-4.52-2.707-3.853"/><path d="M32.461 162.573a1.808 1.808 0 0 1-1.47-.75c-.32-.44-3.116-4.393-3.116-7.405l.005-.469c.012-2.267.026-4.838-2.89-8.637a1.788 1.788 0 0 1-.373-1.09v-8.997c0-.994.812-1.8 1.811-1.8 1 0 1.809.806 1.809 1.8v8.4c3.293 4.522 3.274 7.874 3.26 10.346l-.002.445c0 1.468 1.64 4.21 2.434 5.307a1.791 1.791 0 0 1-.413 2.51c-.308.221-.676.34-1.055.34"/></g><path fill="#1C1C1C" d="M106.167 81.77c1.207 15.679 1.874 24.104 2 25.276.033.308 5.004-2.367 14.914-8.024l-1.46-20.606c0-19.601-11.162-27.404-22.801-29.945-11.64-2.541-13.588-3.306-30.529-3.306-17.584 0-24.209 1.479-35.773 3.306-11.564 1.827-15.422 11.725-17.402 29.945l-6.625 60.89h16.027l9-49.538c0-13.977 2.76-30.537 6.442-30.537h57.765c3.683.002 8.442 8.56 8.442 22.54z"/><path fill="#1C1C1C" d="M104.802 150.93H32.909l-3.617-84.58c0-10.334 10.829-18.71 19.73-18.71H88.69c8.899 0 19.73 8.376 19.73 18.71l-3.617 84.58"/><path fill="#1C1C1C" d="M53 37.65h31v12.434H53z"/><path fill="#FFF" d="M68.421 69.918L83.505 46.13c-6.664-1.563-11.718-2.345-15.162-2.345-3.443 0-8.497.782-15.162 2.345l15.24 23.788z"/></g></g><path fill="#FFD4AF" d="M175.88 83.585a.856.856 0 0 0 1.188-.183l7.772-10.534c.46-.62 1.33-.752 1.953-.298a1.385 1.385 0 0 1 .301 1.942l-5.18 7.024a.838.838 0 0 0 .179 1.177.848.848 0 0 0 1.185-.18l6.843-9.257a1.4 1.4 0 0 1 1.951-.3 1.382 1.382 0 0 1 .3 1.944l-6.741 9.14a.838.838 0 0 0 .18 1.176.851.851 0 0 0 1.188-.18l6.203-8.462a1.403 1.403 0 0 1 1.953-.298 1.38 1.38 0 0 1 .301 1.942l-6.23 8.445a.838.838 0 0 0 .183 1.178.853.853 0 0 0 1.186-.18l4.143-5.615a1.4 1.4 0 0 1 1.95-.298c.622.452.596 1.231.3 1.942-.082.194-3.73 5.056-5.406 7.324-1.673 2.268-4.154 6.24-8.511 7.275l-12.666 17.171-1.354-13.466 4.327-8.48c-1.424-2.824-1.24-6.088-1.276-8.051-.038-1.968-.348-8.753-.348-8.753a1.77 1.77 0 0 1 .473-1.269c.319-.343.76-.545 1.228-.56a1.765 1.765 0 0 1 1.84 1.689l.256 6.468s.163.405.327.527"/><path fill="#1C1C1C" fill-rule="nonzero" d="M140.914 148.2a7.18 7.18 0 0 1-2.777-5.85 7.152 7.152 0 0 1 1.53-4.252c3.149-6.638 6.081-11.797 8.798-15.479 4.266-5.781 11.807-14.817 22.624-27.106l9.958 7.423c-6.947 11.999-12.18 20.582-15.697 25.748-3.144 4.616-7.903 10.708-14.277 18.274a7.243 7.243 0 0 1-5.708 2.767 7.243 7.243 0 0 1-4.45-1.524z"/><path fill="#FFD4AF" fill-rule="nonzero" d="M78.161 50.235c0 3.741-2.754 6.778-6.152 6.778s-6.154-3.037-6.154-6.778c0-3.745 2.756-6.777 6.154-6.777 3.396 0 6.152 3.032 6.152 6.777m52.825 0c0 3.741-2.754 6.778-6.152 6.778-3.396 0-6.152-3.037-6.152-6.778 0-3.745 2.754-6.777 6.152-6.777s6.152 3.032 6.152 6.777"/><path fill="#EDC099" fill-rule="nonzero" d="M98.42 87.295c-6.482 0-12.962-3.851-12.962-3.851l.021-8.2h25.885l.02 8.2c-4.323 2.567-8.644 3.85-12.965 3.85z"/><path d="M114.01 74.378l5.138 8.384-20.729 23.156 15.59-31.54zm-30.993.112l-5.614 8.272 21.016 23.156L83.017 74.49z" fill="#595757" fill-rule="nonzero"/><path fill="#FFD4AF" fill-rule="nonzero" d="M72.007 53.108c0 14.508 11.825 26.267 26.412 26.267 14.59 0 26.415-11.76 26.415-26.267v-18.11h-2.831l-5.858-12.532-37.984-1.921-6.154 12.835v19.728"/><path fill="#E0B692" fill-rule="nonzero" d="M123.314 36.249c.08.056.161.1.236.164.467.366.89.778 1.284 1.212V35h-1.001a3.776 3.776 0 0 1-.519 1.25M85.632 23.962c10.558.856 21.296 1.295 31.9 1.47l-1.387-2.966-37.984-1.921-1.767 3.687c2.88-1.02 5.877-.544 9.24-.27"/><path fill="#F7CCA7" fill-rule="nonzero" d="M98.552 61.05c-7.825 0-16.902-2.322-26.531-9.288v1.846c.203 10.79 6.945 19.99 16.453 23.839 3.01 1.318 6.22 1.977 9.629 1.977 3.408 0 6.83-.658 10.265-1.975 9.184-3.717 15.787-12.422 16.412-22.734l.051-2.805.003-.15s-10.636 9.29-26.282 9.29z"/><g transform="translate(85.37 63.107)"><mask id="d" fill="#fff"><use xlink:href="#c"/></mask><use fill="#DF6868" fill-rule="nonzero" xlink:href="#c"/><path fill="#FFF" fill-rule="nonzero" d="M25.188 0L1.625.048c2.009 3.857 5.881 5.785 11.617 5.785 5.736 0 9.718-1.944 11.945-5.833z" mask="url(#d)"/></g><g fill-rule="nonzero"><path fill="#000100" d="M89.043 44.056c0 1.597-.938 2.894-2.096 2.894-1.155 0-2.093-1.297-2.093-2.894 0-1.595.938-2.892 2.093-2.892 1.158 0 2.094 1.297 2.094 2.892"/><path fill="#FFF" d="M88.499 42.998a1.006 1.006 0 0 1-2.012 0 1.006 1.006 0 0 1 2.01 0"/></g><g fill-rule="nonzero"><path fill="#000100" d="M109.96 44.056c0 1.597-.936 2.894-2.096 2.894-1.153 0-2.093-1.297-2.093-2.894 0-1.595.94-2.892 2.093-2.892 1.16 0 2.096 1.297 2.096 2.892"/><path fill="#FFF" d="M109.358 42.968a.976.976 0 0 1-.978.97.968.968 0 0 1-.688-.282.978.978 0 0 1-.288-.688.978.978 0 0 1 1.953 0"/></g><path fill="#8C8C8C" fill-rule="nonzero" d="M71.993 51.76l.147-1.374s1.398-20.997 5.461-24.412c0 0 12.463 5.636 36.313 0 0 0 11.193 14.086 10.92 25.786 0 0 6.423-14.083 6.152-20.802-.27-6.717-7.317-15.6-11.922-17.336 0 0-5.45-3.602-18.43-5.417-12.979-1.813-16.53 3.25-17.887 4.767-5.736 4.688-7.225 3.703-7.975 2.72-.65-.86-.74-1.716-2.59 1.18-5.412 8.471-6.232 19.07-5.151 22.32 1.085 3.253 4.962 12.57 4.962 12.57"/><path fill="#CCC" fill-rule="nonzero" d="M93.474 10.35c-6.362 0-12.634 6.837-12.634 6.837 1.77-.563 3.037-.788 3.956-.788 1.797 0 2.264.858 2.537 1.716.266.84.35 1.677 1.314 1.72h.154c.6-.024 1.499-.32 2.894-1.028 7.781-3.958 30.396-1.079 23.112-5.04-2.793-1.515-6.016-1.974-9.148-1.974-2.404 0-4.752.27-6.806.54-2.054.273-3.816.543-5.046.543-.116 0-.226 0-.333-.007-3.83-.18 6.364-2.519 0-2.519"/><path fill="#1C1C1C" fill-rule="nonzero" d="M103.663 37.749a.486.486 0 0 1-.166-.437c.232-1.65 2.698-2.624 5.612-2.214 2.825.397 4.884 1.923 4.802 3.52l.002.158a.487.487 0 0 1-.567.414.481.481 0 0 1-.18-.06c-.02-.01-2.022-1.118-4.683-1.492-1.552-.218-3.023-.145-4.368.216l-.197.011a.475.475 0 0 1-.255-.116zm-21.605.716a.486.486 0 0 1-.22-.409c0-1.666 2.306-2.974 5.248-2.974 2.845 0 5.097 1.225 5.242 2.818l.028.156a.49.49 0 0 1-.505.49.502.502 0 0 1-.19-.035 14.88 14.88 0 0 0-4.84-.826c-1.569 0-3.019.277-4.3.822l-.193.038a.482.482 0 0 1-.27-.08z"/><path fill="#C6A182" fill-rule="nonzero" d="M98.998 41.69h-.047c-.147.011-.273.152-.285.31-.04.543-.025 3.51.31 6.331.39 3.248 1.555 4.888 1.555 4.888-.214.093-.826.34-2.16.34-.136 0-.272-.003-.407-.007-.583-.02-1.517-.312-2.245-.498a.335.335 0 0 0-.35.523c.917 1.22 2.24 1.841 3.932 1.841 2.038 0 3.867-.912 3.945-.95a.335.335 0 0 0 .18-.241.334.334 0 0 0-.092-.288c-3.839-3.92-3.995-11.841-3.998-11.921a.332.332 0 0 0-.326-.328h-.012"/><path fill="#3B3A3A" d="M99.833 125.417a1.416 1.416 0 1 1-2.832 0 1.416 1.416 0 0 1 2.832 0m0 14a1.416 1.416 0 1 1-2.832 0 1.416 1.416 0 0 1 2.832 0m0 14a1.416 1.416 0 1 1-2.832 0 1.416 1.416 0 0 1 2.832 0m0 14a1.416 1.416 0 1 1-2.832 0 1.416 1.416 0 0 1 2.832 0m0-56a1.416 1.416 0 1 1-2.832 0 1.416 1.416 0 0 1 2.832 0"/><path fill="#2D2B2B" d="M119.717 42.522c-.289 2.38-1.47 9.724-9.648 9.724-8.178 0-8.787-5.306-9.733-9.496-.947-4.192 5.541-4.915 9.353-4.915h5.99c4.122 0 4.325 2.308 4.038 4.687m-25.066.299c-.946 4.191-1.556 9.425-9.734 9.425s-9.36-7.416-9.647-9.796c-.288-2.38-.085-4.615 4.038-4.615h5.989c3.812 0 10.3.796 9.354 4.986m15.597-6.47c-4.238 0-10.966 2.232-12.721 2.262-1.758-.03-8.673-2.263-12.91-2.263-4.265 0-11.929.508-11.929.508v3.379c.667.213.717.51 1.519 4.203.643 2.96 2.397 9.07 11.007 9.07s9.733-6.623 10.207-7.906c.472-1.284.926-2.728 2.062-2.731 1.137.003 1.567 1.447 2.041 2.73.473 1.284 1.558 7.954 10.17 7.954 8.61 0 10.303-6.133 10.946-9.095.802-3.691 1.38-4.012 1.38-4.225v-3.38s-7.508-.507-11.772-.507"/></g></svg>