<svg xmlns="http://www.w3.org/2000/svg" width="24" height="24"><defs><filter id="a" width="134.7%" height="119.6%" x="-17.4%" y="-9.8%" filterUnits="objectBoundingBox"><feOffset dy="2" in="SourceAlpha" result="shadowOffsetOuter1"/><feGaussianBlur in="shadowOffsetOuter1" result="shadowBlurOuter1" stdDeviation="12"/><feColorMatrix in="shadowBlurOuter1" result="shadowMatrixOuter1" values="0 0 0 0 0 0 0 0 0 0 0 0 0 0 0 0 0 0 0.16 0"/><feMerge><feMergeNode in="shadowMatrixOuter1"/><feMergeNode in="SourceGraphic"/></feMerge></filter></defs><path fill="#4C4C4C" fill-rule="evenodd" d="M16.5 12a3.5 3.5 0 1 1 0 7 3.5 3.5 0 0 1 0-7zm0 1.75a1.75 1.75 0 1 0 0 3.5 1.75 1.75 0 0 0 0-3.5zm-9-9.25a3.5 3.5 0 1 1 0 7 3.5 3.5 0 0 1 0-7zm0 1.75a1.75 1.75 0 1 0 0 3.5 1.75 1.75 0 0 0 0-3.5zM6.39 18.51a1 1 0 0 1-1.393-1.434L17.498 4.96a1 1 0 0 1 1.393 1.435L6.39 18.511z" filter="url(#a)"/></svg>
