<svg version="1.1" id="Ebene_1" xmlns="http://www.w3.org/2000/svg" x="0px" y="0px" viewBox="0 0 1179.2 447.9" style="enable-background:new 0 0 1179.2 447.9" xml:space="preserve">
  <style>
    .st1{fill:#fff}
  </style>
  <switch>
    <g>
      <path d="M73.7 22.7c-28.2 0-51 22.8-51 51v300.5c0 28.2 22.8 51 51 51h1031.8c28.2 0 51-22.8 51-51V73.7c0-28.2-22.8-51-51-51H73.7z" style="fill:#003eb0"/>
      <path class="st1" d="M918.4 215.4c-28.1 0-51-22.9-51-51s22.9-51 51-51 51 22.9 51 51-22.8 51-51 51zm0-92c-22.6 0-41 18.4-41 41s18.4 41 41 41 41-18.4 41-41-18.4-41-41-41zM918.4 334.5c-28.1 0-51-22.9-51-51s22.9-51 51-51 51 22.9 51 51-22.8 51-51 51zm0-92.1c-22.6 0-41 18.4-41 41s18.4 41 41 41 41-18.4 41-41-18.4-41-41-41zM1037.5 215.4c-28.1 0-51-22.9-51-51s22.9-51 51-51 51 22.9 51 51c0 28.2-22.9 51-51 51zM1037.5 334.5c-28.1 0-51-22.9-51-51s22.9-51 51-51 51 22.9 51 51-22.9 51-51 51zm0-92.1c-22.6 0-41 18.4-41 41s18.4 41 41 41 41-18.4 41-41-18.4-41-41-41z"/>
      <path class="st1" d="M1105.5 447.9H73.7C33.1 447.9 0 414.8 0 374.2V73.7C0 33.1 33.1 0 73.7 0h1031.8c40.6 0 73.7 33.1 73.7 73.7v300.5c0 40.6-33 73.7-73.7 73.7zM73.7 22.7c-28.1 0-51 22.9-51 51v300.5c0 28.1 22.9 51 51 51h1031.8c28.1 0 51-22.9 51-51V73.7c0-28.1-22.9-51-51-51H73.7z"/>
      <path class="st1" d="M189.1 206.2c0-25.5-16.6-35-41.5-35h-45.5v105h26v-34h17.5c25.6 0 43.5-9.5 43.5-36.3m-28.8 1.2c0 8-4.9 14.2-14.5 14.2H127v-28h19.2c9.5 0 14.1 6.9 14.1 13.8M391.8 171.3h-30.9s-21.7 42.4-23.7 48.5c-2-6.1-23.7-48.5-23.7-48.5h-31.2l41.7 73.4v31.6h26v-32.1l41.8-72.9zM492.3 242.4c0-11.8-5.6-19.2-15.1-23.2 7.1-4.1 12.7-9.1 12.7-20.5 0-17.6-10.7-27.3-37.1-27.3h-48.7v105h49.4c26.6-.1 38.8-12.6 38.8-34m-27.2-39.1c0 5-3.2 10-11.6 10h-23.4v-21h23.4c9.1 0 11.6 6.3 11.6 11m2.3 41.3c0 6-4.5 12.7-11.8 12.7h-25.5v-25h25.7c7 0 11.6 6.1 11.6 12.3M708.1 251.1 683.2 238c-5.8 9.9-9.7 17.1-19 17.1-12.8 0-21.2-15-21.2-31.1 0-16.7 8.6-31.2 20.9-31.2 9.7 0 13.4 8.4 17.2 18.2l26.7-10.4c-7.3-19.9-17.6-31.1-43.8-31.1-28.6 0-48.7 20.5-48.7 54.4 0 31.2 16.9 54.4 48.5 54.4 25.3 0 37.2-13.4 44.3-27.2M817.3 276.3l-35.9-65 32.2-40h-30.8s-28.9 38.1-33.3 45c.3-7.7.5-45 .5-45h-26v105h26v-30.8l15.4-16.5 23 47.3h30.9-2zM609.6 277.3l-38.8-106h-29.9l-38.8 106h29.5l6.9-20H573l6.9 20h29.7zm-41.5-40h-24.3s10.5-37.3 11.9-44.3c1.4 7.1 11.9 44.3 11.9 44.3M294 277.3l-38.8-106h-29.9l-38.8 106H216l6.9-20h34.5l6.9 20H294zm-41.9-40h-23.9s10.5-37.3 11.9-44.3c1.3 7 11.9 44.3 12 44.3"/>
    </g>
  </switch>
</svg>
