<svg version="1.1" id="Ebene_1" xmlns="http://www.w3.org/2000/svg" x="0px" y="0px" viewBox="0 0 291.1 291.1" style="enable-background:new 0 0 291.1 291.1" xml:space="preserve"><style>.st1{fill:#fff}</style><switch><g><path d="M235.3 209.3c0 14.3-11.7 26-26 26H81.8c-14.4 0-26-11.7-26-26V81.8c0-14.3 11.7-26 26-26h127.4c14.4 0 26 11.7 26 26v127.5z" style="fill:#003eb0"/><path class="st1" d="M81.8 60.5c-11.7 0-21.3 9.5-21.3 21.2v127.5c0 11.7 9.5 21.2 21.3 21.2h127.4c11.7 0 21.3-9.5 21.3-21.2V81.8c0-11.7-9.5-21.2-21.3-21.2H81.8zm127.5 179.6H81.8c-17 0-30.8-13.8-30.8-30.8V81.8C51 64.8 64.8 51 81.8 51h127.4c17 0 30.8 13.8 30.8 30.8v127.5c.1 16.9-13.8 30.8-30.7 30.8"/><path class="st1" d="M115.9 141.8c-14.3 0-25.9-11.6-25.9-25.9 0-14.3 11.6-25.9 25.9-25.9 14.3 0 25.9 11.6 25.9 25.9 0 14.3-11.6 25.9-25.9 25.9zm0-46.6c-11.4 0-20.8 9.3-20.8 20.8 0 11.4 9.3 20.8 20.8 20.8s20.8-9.3 20.8-20.8-9.3-20.8-20.8-20.8zM115.9 201c-14.3 0-25.9-11.6-25.9-25.9 0-14.3 11.6-25.9 25.9-25.9 14.3 0 25.9 11.6 25.9 25.9 0 14.3-11.6 25.9-25.9 25.9zm0-46.6c-11.4 0-20.8 9.3-20.8 20.8 0 11.4 9.3 20.8 20.8 20.8s20.8-9.3 20.8-20.8-9.3-20.8-20.8-20.8zM175.1 201c-14.3 0-25.9-11.6-25.9-25.9 0-14.3 11.6-25.9 25.9-25.9s25.9 11.6 25.9 25.9c0 14.3-11.6 25.9-25.9 25.9zm0-46.6c-11.4 0-20.8 9.3-20.8 20.8 0 11.4 9.3 20.8 20.8 20.8 11.4 0 20.8-9.3 20.8-20.8s-9.3-20.8-20.8-20.8zM175.2 141.8c-14.3 0-25.9-11.6-25.9-25.9 0-14.3 11.6-25.9 25.9-25.9 14.3 0 25.9 11.6 25.9 25.9-.1 14.3-11.7 25.9-25.9 25.9z"/></g></switch></svg>