<svg xmlns="http://www.w3.org/2000/svg" width="48" height="32"><g fill="none" fill-rule="evenodd"><path fill="#FFF" stroke="#8C8C8C" d="M46.023.5A1.475 1.475 0 0147.5 1.977h0v28.046a1.475 1.475 0 01-1.477 1.477h0H1.977A1.475 1.475 0 01.5 30.023h0V1.977A1.475 1.475 0 011.977.5h0z"/><path fill="#1D97E2" d="M8.913 13.41H7.655l-.795-1.908h-.454l-.321 1.906H5l.836-4.734h1.619c.521 0 .928.11 1.22.33.292.222.438.53.438.927 0 .384-.104.697-.314.94-.21.243-.493.41-.85.498l.964 2.04zm-1.866-2.704c.298 0 .53-.049.695-.147.165-.098.248-.254.248-.468 0-.196-.07-.33-.208-.402-.138-.07-.323-.107-.555-.107h-.475l-.2 1.124h.495zm2.34 2.702l.838-4.734h3.03l-.167.95H11.12l-.16.916h1.872l-.16.896h-1.873l-.174 1.017h2.155l-.167.956H9.388zm8.147-.662a2.54 2.54 0 01-.324.298c-.123.096-.263.18-.421.254a2.665 2.665 0 01-1.147.237c-.335 0-.636-.049-.903-.147a1.92 1.92 0 01-.683-.418 1.85 1.85 0 01-.434-.652 2.224 2.224 0 01-.154-.843c0-.405.071-.787.214-1.143.143-.357.34-.668.592-.934a2.724 2.724 0 012.01-.852c.374 0 .71.065 1.01.197.298.132.524.3.675.505l-.822.736a1.018 1.018 0 00-.338-.308 1.069 1.069 0 00-.559-.134c-.236 0-.451.05-.645.15a1.645 1.645 0 00-.502.402 1.97 1.97 0 00-.445 1.248c0 .16.026.313.077.458.052.145.126.27.224.378.098.107.22.191.365.254.145.062.31.093.498.093.21 0 .408-.044.595-.133.188-.09.353-.217.495-.382l.622.736zm3.311.662l.348-1.993h-1.84L19 13.41h-1.11l.836-4.735h1.11l-.32 1.799h1.845l.315-1.8h1.117l-.836 4.736h-1.11zm5.064 0l-1.305-3.143h-.02l-.535 3.143h-1.097l.836-4.735h1.251l1.298 3.123h.013l.535-3.123h1.097l-.836 4.735h-1.237zm6.601-1.738c-.049.281-.13.536-.24.766a1.852 1.852 0 01-1.084.96 2.54 2.54 0 01-.863.134c-.285 0-.543-.035-.772-.104a1.813 1.813 0 01-.59-.294 1.287 1.287 0 01-.374-.465 1.416 1.416 0 01-.13-.616c0-.062.003-.129.01-.2.007-.072.014-.14.023-.208l.522-2.97h1.104l-.509 2.87a.908.908 0 00-.016.14c-.003.05-.004.094-.004.134 0 .098.015.192.044.281.029.09.074.169.137.238a.64.64 0 00.247.164c.103.04.226.06.368.06.188 0 .343-.03.465-.09a.877.877 0 00.301-.235c.078-.095.137-.202.177-.32.04-.119.072-.238.094-.358l.515-2.883h1.097l-.522 2.996zm3.605 1.74l-1.304-3.144h-.02l-.535 3.143h-1.097l.836-4.735h1.25l1.298 3.123h.014l.535-3.123h1.097l-.836 4.735h-1.238zm4.883-.843c.134-.005.258-.017.371-.037.114-.02.22-.055.318-.104l.154-.89h-.923l.167-.916h1.946l-.434 2.502a3.707 3.707 0 01-.813.3 3.796 3.796 0 01-.933.114c-.339 0-.648-.048-.926-.143a2.004 2.004 0 01-.713-.412 1.843 1.843 0 01-.458-.649 2.135 2.135 0 01-.164-.856c0-.405.07-.787.21-1.143.141-.357.338-.668.59-.934a2.75 2.75 0 01.89-.625c.34-.152.711-.227 1.113-.227.374 0 .714.059 1.02.177.305.118.545.293.719.525l-.81.729a1.064 1.064 0 00-.364-.324 1.178 1.178 0 00-.585-.13 1.44 1.44 0 00-.646.146 1.64 1.64 0 00-.515.398 1.973 1.973 0 00-.465 1.282c0 .173.027.335.08.484a1.056 1.056 0 00.636.642c.156.06.334.09.535.09z"/></g></svg>