<svg xmlns="http://www.w3.org/2000/svg" width="48" height="32"><g fill="none" fill-rule="evenodd"><rect width="47" height="31" x=".5" y=".5" fill="#FFF" stroke="#8C8C8C" rx="2"/><g fill-rule="nonzero"><path fill="#231F20" d="M16.915 24.867v-1.165a.688.688 0 00-.202-.535.718.718 0 00-.544-.203.737.737 0 00-.667.33.7.7 0 00-.627-.33.632.632 0 00-.556.275v-.229h-.413v1.857h.417v-1.022a.427.427 0 01.113-.353.449.449 0 01.351-.14c.274 0 .413.175.413.49v1.032h.417v-1.029a.435.435 0 01.114-.353.454.454 0 01.35-.14c.282 0 .417.175.417.49v1.032l.417-.007zm6.168-1.857h-.679v-.563h-.417v.563h-.377v.37h.385v.854c0 .43.171.687.66.687.182 0 .36-.05.515-.144l-.119-.345a.788.788 0 01-.365.105c-.198 0-.274-.125-.274-.311v-.847h.675l-.004-.369zm3.522-.046a.562.562 0 00-.5.271v-.225h-.41v1.857h.413v-1.041c0-.307.135-.478.397-.478a.686.686 0 01.258.047l.128-.389a.895.895 0 00-.294-.05l.008.008zm-5.324.194a1.439 1.439 0 00-.775-.194c-.48 0-.794.225-.794.594 0 .303.23.49.655.547l.199.028c.226.03.333.089.333.194 0 .144-.15.225-.432.225a1.025 1.025 0 01-.632-.194l-.198.315c.24.164.529.248.822.24.548 0 .865-.252.865-.606 0-.353-.25-.497-.663-.555l-.198-.027c-.179-.023-.322-.058-.322-.183 0-.124.135-.217.361-.217.21.002.415.057.596.159l.183-.326zm11.059-.194a.562.562 0 00-.5.271v-.225h-.41v1.857h.413v-1.041c0-.307.135-.478.397-.478a.686.686 0 01.258.047l.128-.389a.895.895 0 00-.294-.05l.008.008zm-5.32.97a.93.93 0 00.286.705.976.976 0 00.726.267c.248.012.492-.067.683-.222l-.199-.326a.846.846 0 01-.496.167c-.316-.025-.56-.284-.56-.594s.244-.57.56-.595c.18.002.354.061.496.167l.199-.326a1.002 1.002 0 00-.683-.221.971.971 0 00-.726.267.927.927 0 00-.286.704v.008zm3.867 0v-.924h-.413v.225a.726.726 0 00-.596-.271.98.98 0 00-.992.97c0 .537.444.972.992.972a.73.73 0 00.596-.272v.225h.413v-.924zm-1.537 0a.568.568 0 01.594-.527.566.566 0 01.552.57.567.567 0 01-.57.552.574.574 0 01-.421-.174.55.55 0 01-.155-.42zm-4.983-.97a.98.98 0 00-.978.984.983.983 0 001.006.958 1.17 1.17 0 00.788-.253l-.198-.299a.917.917 0 01-.552.194.523.523 0 01-.568-.454h1.41v-.156c0-.582-.37-.97-.902-.97l-.006-.004zm0 .36a.478.478 0 01.336.129c.09.084.142.2.145.322h-.993a.484.484 0 01.505-.45h.007zm10.345.614v-1.674h-.397v.971a.725.725 0 00-.596-.271.98.98 0 00-.992.97c0 .537.444.972.992.972a.728.728 0 00.596-.272v.225h.397v-.92zm-1.527 0a.57.57 0 01.595-.527.567.567 0 01.552.57.568.568 0 01-.571.552.573.573 0 01-.42-.174.55.55 0 01-.156-.42zm-13.941 0v-.928h-.414v.225a.725.725 0 00-.596-.271.98.98 0 00-.992.97c0 .537.444.972.992.972a.728.728 0 00.596-.272v.225h.413v-.92zm-1.537 0a.57.57 0 01.595-.527.567.567 0 01.552.57.568.568 0 01-.57.552.577.577 0 01-.424-.173.554.554 0 01-.157-.422h.004z"/><path fill="#FF5F00" d="M21.144 8.863h6.253v10.993h-6.253z"/><path fill="#EB001B" d="M21.54 14.36a6.927 6.927 0 012.73-5.497c-2.93-2.253-7.138-1.925-9.666.754a6.88 6.88 0 000 9.486c2.528 2.678 6.736 3.006 9.666.753a6.925 6.925 0 01-2.73-5.495z"/><path fill="#F79E1B" d="M35.833 14.36c0 2.677-1.562 5.12-4.023 6.289a7.275 7.275 0 01-7.54-.793A6.934 6.934 0 0027 14.36a6.936 6.936 0 00-2.73-5.497 7.277 7.277 0 017.54-.792c2.461 1.17 4.023 3.611 4.023 6.288v.002z"/><path fill="#231F20" d="M16.915 24.867v-1.165a.688.688 0 00-.202-.535.718.718 0 00-.544-.203.737.737 0 00-.667.33.7.7 0 00-.627-.33.632.632 0 00-.556.275v-.229h-.413v1.857h.417v-1.022a.427.427 0 01.113-.353.449.449 0 01.351-.14c.274 0 .413.175.413.49v1.032h.417v-1.029a.435.435 0 01.114-.353.454.454 0 01.35-.14c.282 0 .417.175.417.49v1.032l.417-.007zm6.168-1.857h-.679v-.563h-.417v.563h-.377v.37h.385v.854c0 .43.171.687.66.687.182 0 .36-.05.515-.144l-.119-.345a.788.788 0 01-.365.105c-.198 0-.274-.125-.274-.311v-.847h.675l-.004-.369zm3.522-.046a.562.562 0 00-.5.271v-.225h-.41v1.857h.413v-1.041c0-.307.135-.478.397-.478a.686.686 0 01.258.047l.128-.389a.895.895 0 00-.294-.05l.008.008zm-5.324.194a1.439 1.439 0 00-.775-.194c-.48 0-.794.225-.794.594 0 .303.23.49.655.547l.199.028c.226.03.333.089.333.194 0 .144-.15.225-.432.225a1.025 1.025 0 01-.632-.194l-.198.315c.24.164.529.248.822.24.548 0 .865-.252.865-.606 0-.353-.25-.497-.663-.555l-.198-.027c-.179-.023-.322-.058-.322-.183 0-.124.135-.217.361-.217.21.002.415.057.596.159l.183-.326zm11.059-.194a.562.562 0 00-.5.271v-.225h-.41v1.857h.413v-1.041c0-.307.135-.478.397-.478a.686.686 0 01.258.047l.128-.389a.895.895 0 00-.294-.05l.008.008zm-5.32.97a.93.93 0 00.286.705.976.976 0 00.726.267c.248.012.492-.067.683-.222l-.199-.326a.846.846 0 01-.496.167c-.316-.025-.56-.284-.56-.594s.244-.57.56-.595c.18.002.354.061.496.167l.199-.326a1.002 1.002 0 00-.683-.221.971.971 0 00-.726.267.927.927 0 00-.286.704v.008zm3.867 0v-.924h-.413v.225a.726.726 0 00-.596-.271.98.98 0 00-.992.97c0 .537.444.972.992.972a.73.73 0 00.596-.272v.225h.413v-.924zm-1.537 0a.568.568 0 01.594-.527.566.566 0 01.552.57.567.567 0 01-.57.552.574.574 0 01-.421-.174.55.55 0 01-.155-.42zm-4.983-.97a.98.98 0 00-.978.984.983.983 0 001.006.958 1.17 1.17 0 00.788-.253l-.198-.299a.917.917 0 01-.552.194.523.523 0 01-.568-.454h1.41v-.156c0-.582-.37-.97-.902-.97l-.006-.004zm0 .36a.478.478 0 01.336.129c.09.084.142.2.145.322h-.993a.484.484 0 01.505-.45h.007zm10.345.614v-1.674h-.397v.971a.725.725 0 00-.596-.271.98.98 0 00-.992.97c0 .537.444.972.992.972a.728.728 0 00.596-.272v.225h.397v-.92zm-1.527 0a.57.57 0 01.595-.527.567.567 0 01.552.57.568.568 0 01-.571.552.573.573 0 01-.42-.174.55.55 0 01-.156-.42zm-13.941 0v-.928h-.414v.225a.725.725 0 00-.596-.271.98.98 0 00-.992.97c0 .537.444.972.992.972a.728.728 0 00.596-.272v.225h.413v-.92zm-1.537 0a.57.57 0 01.595-.527.567.567 0 01.552.57.568.568 0 01-.57.552.577.577 0 01-.424-.173.554.554 0 01-.157-.422h.004z"/><path fill="#FF5F00" d="M21.144 8.863h6.253v10.993h-6.253z"/><path fill="#EB001B" d="M21.54 14.36a6.927 6.927 0 012.73-5.497c-2.93-2.253-7.138-1.925-9.666.754a6.88 6.88 0 000 9.486c2.528 2.678 6.736 3.006 9.666.753a6.925 6.925 0 01-2.73-5.495z"/><path fill="#F79E1B" d="M35.833 14.36c0 2.677-1.562 5.12-4.023 6.289a7.275 7.275 0 01-7.54-.793A6.934 6.934 0 0027 14.36a6.936 6.936 0 00-2.73-5.497 7.277 7.277 0 017.54-.792c2.461 1.17 4.023 3.611 4.023 6.288v.002z"/></g></g></svg>