<svg width="73" height="48.156" xmlns="http://www.w3.org/2000/svg"><path fill="#a9c938" d="M0 48.156h73V0H0Z" style="fill-rule:evenodd"/><path d="M28.523 10.965c.782.061 1.166.1 1.932.191.25.031.485-.076.528-.241.133-.508.201-.764.332-1.276.043-.167.168-.151.275.036.337.572.501.86.822 1.44.106.19.39.371.63.419.717.144.978.208 1.845.436.238.064.277.17.104.23-.533.183-.808.232-1.358.454-.177.07-.241.285-.143.476.296.583.436.895.71 1.52.09.205.004.227-.192.056-.601-.522-.914-.717-1.546-1.155-.21-.144-.526-.197-.705-.122-.54.231-.808.394-1.355.636-.18.08-.287.012-.242-.149.141-.495.212-.786.349-1.28.044-.162-.098-.402-.316-.53a36.845 36.845 0 0 0-1.718-.958c-.226-.121-.205-.202.048-.183m-7.618 5.497c.932-.192 1.22-.237 2.102-.361.264-.037.531-.193.595-.364.192-.53.282-.792.47-1.314.061-.169.19-.177.287-.02.304.491.454.74.748 1.24.096.163.382.306.63.291.83-.049 1.021-.096 1.863-.137.242-.012.273.082.1.192-.645.413-.841.582-1.413.921-.183.11-.274.313-.181.484.278.512.416.771.684 1.3.089.175-.007.223-.214.108-.627-.349-.946-.51-1.6-.803a.915.915 0 0 0-.754.033c-.604.357-.806.485-1.618.987-.225.139-.336.117-.252-.097.263-.665.354-.825.57-1.357.07-.172-.066-.379-.293-.448a16.245 16.245 0 0 0-1.799-.451c-.238-.047-.205-.14.075-.204m-4.027 6.972a22.013 22.013 0 0 1 2.054-.087c.258 0 .57-.138.698-.312.4-.534.596-.799.987-1.322.127-.169.249-.162.275.015.072.548.108.826.168 1.383.019.18.23.343.46.375.802.11.93.132 1.74.28.218.04.223.136.014.206-.647.212-.978.33-1.657.588-.22.084-.417.307-.413.49.003.566.003.85-.004 1.426-.004.19-.118.233-.259.098a17.704 17.704 0 0 0-1.108-.984c-.151-.122-.476-.139-.72-.036a61.43 61.43 0 0 0-1.88.839c-.251.116-.339.065-.189-.119l1.117-1.378c.147-.179.126-.414-.044-.518-.534-.322-.81-.47-1.396-.743-.19-.087-.116-.179.157-.2m13.672 9.293c-.56.315-.866.52-1.46.933-.193.133-.312.421-.263.637.15.661.22.998.362 1.703.047.232-.054.307-.222.166-.51-.432-.766-.638-1.279-1.035-.169-.132-.47-.115-.669.037-.605.46-.908.697-1.522 1.184-.203.163-.288.096-.193-.142.29-.723.433-1.074.714-1.76.093-.224.026-.502-.149-.618a25.45 25.45 0 0 0-1.349-.844c-.177-.104-.13-.212.1-.242a32.98 32.98 0 0 1 1.78-.181.744.744 0 0 0 .574-.412c.27-.651.403-.969.66-1.579.084-.2.195-.202.25-.01.164.595.245.898.406 1.52.051.202.278.364.5.36.689-.014 1.033-.029 1.702.049.218.022.238.133.058.234m9.189 1.022c-.491.16-.737.246-1.235.422-.163.057-.238.266-.166.463.217.598.33.896.559 1.495.076.197-.007.233-.186.077a48.1 48.1 0 0 1-1.326-1.197c-.174-.16-.448-.237-.616-.167-.505.21-.761.32-1.283.561-.173.08-.26-.003-.195-.184l.489-1.318c.063-.17-.024-.438-.191-.6-.51-.501-.764-.754-1.265-1.255-.162-.163-.13-.246.072-.183.625.195.938.292 1.56.491.2.065.413-.013.473-.17.182-.487.271-.723.447-1.188.056-.148.154-.114.218.078.199.592.3.89.506 1.49a.85.85 0 0 0 .488.47c.627.204.939.304 1.567.505.203.065.241.158.084.21m8.246-2.403c-.55.207-.805.315-1.337.52-.172.065-.238.273-.144.464.282.576.426.864.726 1.432.097.184.01.225-.196.08-.624-.436-.93-.655-1.522-1.18-.195-.173-.489-.275-.657-.222-.507.159-.76.237-1.265.4-.167.053-.262-.036-.215-.198l.38-1.212c.054-.16-.061-.43-.244-.607-.57-.548-.852-.829-1.403-1.381-.179-.182-.153-.258.06-.173.655.266.982.395 1.645.645.215.082.435.022.486-.13.159-.48.241-.719.407-1.194.053-.155.159-.113.238.086.243.623.369.935.626 1.557.085.202.332.425.556.5.686.228 1.045.267 1.76.41.23.044.274.135.1.203m5.379-5.402c-.524.36-.782.527-1.291.833-.162.1-.236.303-.162.453.228.456.345.68.58 1.122.079.147-.005.188-.183.093-.537-.285-.8-.44-1.32-.77-.171-.11-.436-.144-.592-.074-.47.21-.702.31-1.16.503-.152.064-.235.002-.186-.136.146-.421.222-.632.376-1.057.05-.14-.041-.356-.207-.482-.501-.39-.745-.62-1.23-1.04-.159-.135-.134-.205.058-.163.586.143.882.207 1.487.309.198.031.403-.074.456-.233.17-.496.255-.746.43-1.263.059-.165.158-.156.222.019.202.546.31.818.519 1.359.067.175.29.332.496.34.638.03.96.031 1.625-.004.214-.01.25.073.082.191m4.367-8.185c-.504.52-.757.776-1.26 1.27-.162.157-.249.406-.195.55.17.435.257.65.438 1.068.058.136-.023.22-.184.18a9.542 9.542 0 0 1-1.191-.353c-.151-.055-.406.02-.564.164-.482.438-.735.652-1.182 1.04-.145.127-.22.09-.167-.077.16-.516.288-.794.483-1.336.066-.18 0-.383-.147-.451a14.015 14.015 0 0 1-1.096-.586c-.14-.08-.107-.168.071-.196.558-.089.838-.143 1.411-.277a.745.745 0 0 0 .46-.423l.518-1.468c.066-.194.162-.223.209-.063.145.495.222.736.376 1.21.05.152.251.225.443.16.598-.205.902-.317 1.512-.57.2-.078.23-.01.065.157m-9.495-5.393c.517.044.717.031 1.322.011a.469.469 0 0 0 .406-.337c.15-.564.228-.856.383-1.46.05-.193.14-.205.197-.025.178.562.268.829.449 1.356.058.17.248.275.427.275a24.6 24.6 0 0 0 1.394-.045c.181-.009.222.062.066.184-.445.345-.674.463-1.109.805a.497.497 0 0 0-.147.52c.182.48.273.716.459 1.178.06.152-.009.21-.155.134-.446-.237-.667-.36-1.11-.619a.489.489 0 0 0-.512.051c-.412.34-.616.504-1.02.811-.131.1-.203.041-.16-.113.13-.46.196-.706.336-1.212a.468.468 0 0 0-.18-.47c-.452-.32-.664-.5-1.097-.858-.142-.117-.119-.2.05-.186m-9.576-1.821c.608.172.91.258 1.511.432.198.054.4-.025.452-.176.164-.475.246-.718.417-1.22.054-.159.157-.138.223.054.206.594.305.891.503 1.48.063.19.273.39.467.446.604.174.902.256 1.504.425.196.055.225.152.064.218-.491.2-.73.294-1.208.47-.155.057-.23.255-.172.442.183.568.27.848.45 1.405.058.182-.02.21-.171.055-.457-.463-.69-.695-1.158-1.157-.153-.152-.403-.234-.552-.184-.454.152-.677.224-1.123.36-.144.046-.225-.03-.176-.17.15-.417.227-.629.38-1.064.05-.143-.04-.383-.199-.53a40.538 40.538 0 0 0-1.264-1.125c-.167-.146-.143-.215.052-.161m23.805-.355c-.442.397-.674.602-1.148 1.03-.155.14-.24.353-.187.47.162.356.247.527.426.855.06.107-.02.183-.178.164a11.854 11.854 0 0 1-1.169-.18c-.15-.03-.405.063-.569.211-.494.448-.744.674-1.248 1.125-.165.146-.242.129-.17-.043.221-.516.332-.777.549-1.294.074-.17.013-.344-.132-.39a11.912 11.912 0 0 1-1.098-.383c-.139-.055-.101-.143.087-.197.576-.161.865-.248 1.441-.425a.847.847 0 0 0 .469-.416c.217-.532.328-.796.543-1.328.071-.172.16-.194.2-.053.121.432.187.641.326 1.045.046.13.231.185.414.128.565-.184.843-.274 1.385-.447.176-.056.203.001.06.128m-19.533 9.447c.323-.086.37-.248-.013-.228-.655.032-8.28 1.764-14.89 5.566-7.192 4.139-9.366 6.2-10.902 7.374-.407.311-.707.316-.78.126-.245-.645-.398-1.012-.598-1.617-.061-.184-.238-.164-.317.093-.27.876-.398 1.411-.66 2.201-.084.254-.172.532-.649.86-.944.647-1.14.774-1.729 1.169-.213.143-.324.3.102.377.41.073.491.088 1.044.189.442.08.297.375.234.632-.18.733-.257 1.028-.496 1.782-.08.247.023.279.227.068.63-.647.833-.865 1.496-1.547.25-.257.484-.551.746-.505.649.115.727.135 1.635.304.403.075.4-.107.294-.369-.311-.76-.254-.66-.49-1.303-.075-.205-.089-.59.147-.815 3.79-3.637 5.358-4.824 10.566-8.174 4.08-2.625 9.501-4.71 15.033-6.183" transform="translate(0 .156)" fill="#fff" style="fill-rule:evenodd"/></svg>