<svg xmlns="http://www.w3.org/2000/svg" width="64" height="64" viewBox="0 0 64 64">
    <g fill="none">
        <path fill="#3EB566" d="M16.977 24c-.461-.797-1.323-1.333-2.31-1.333-.78 0-1.482.335-1.97.869l4.185-20.87h11.722V24H16.977z" transform="translate(6.667 17.333)"/>
        <path fill="#29954D" d="M25.436 14.667c0-.737.574-1.334 1.282-1.334.708 0 1.282.597 1.282 1.334V24h-9.385c-.708 0-1.282-.597-1.282-1.333 0-.737.574-1.334 1.282-1.334h6.82v-6.666z" transform="translate(6.667 17.333)"/>
        <path fill="#1C1C1C" d="M42.44 26.874c-.119.397-.284.775-.488 1.127L45.333 28c.737 0 1.334.597 1.334 1.333 0 .737-.597 1.334-1.334 1.334h-16c-.736 0-1.333-.597-1.333-1.334 0-.736.597-1.333 1.333-1.333l3.381.001c-.204-.352-.368-.73-.488-1.127l-.058-.208H19.832c.11-.426.168-.872.168-1.333 0-.46-.058-.908-.168-1.334l8.167.001L28 2.667H6.667V16l-.01.155c-.076.664-.64 1.178-1.324 1.178-.683 0-1.247-.514-1.324-1.178L4 16V2.667C4 1.194 5.194 0 6.667 0H28c1.473 0 2.667 1.194 2.667 2.667v2.666h6.666c.84 0 1.63.396 2.134 1.067l6.933 9.244c.173.231.267.512.267.8V24c0 1.473-1.194 2.667-2.667 2.667h-1.501l-.058.207zM49.334 28c.737 0 1.334.597 1.334 1.333 0 .737-.597 1.334-1.334 1.334-.736 0-1.333-.597-1.333-1.334 0-.736.597-1.333 1.333-1.333zM24 28c.736 0 1.333.597 1.333 1.333 0 .737-.597 1.334-1.333 1.334H1.333C.597 30.667 0 30.07 0 29.333 0 28.597.597 28 1.333 28H24zm13.333-5.333c-1.472 0-2.666 1.194-2.666 2.666 0 1.473 1.194 2.667 2.666 2.667C38.806 28 40 26.806 40 25.333c0-1.472-1.194-2.666-2.667-2.666zM5.333 20c.632 0 1.16.439 1.298 1.028l.027.15.009.155V24l2.835-.001c-.11.426-.169.874-.169 1.334 0 .46.059.907.168 1.333H6.667C5.194 26.667 4 25.474 4 24v-2.667l.009-.155c.077-.663.64-1.178 1.324-1.178zm26.715 6.048l.01.073.02.115-.03-.188zm10.57 0l-.03.188.02-.115.01-.073zm.03-.299l-.021.22.014-.107.007-.113zm-10.63 0l.008.113.013.107-.022-.22zm10.649-.416l-.012.342.005-.075.007-.267zm-10.668 0l.008.267.004.073-.012-.34zm.012-.342l-.004.076-.007.224.01-.3zm10.644 0l.009.3-.004-.224-.005-.076zm-10.616-.29l-.013.103-.01.135.023-.238zm10.588 0l.022.238-.008-.135-.014-.103zm-10.543-.308l-.026.152-.009.067.035-.219zm10.497 0l.035.219-.007-.067-.028-.152zM30.667 8v16l1.501-.001.058-.206c.66-2.195 2.697-3.793 5.107-3.793s4.447 1.598 5.108 3.793l.058.207H44v-7.111L37.333 8h-6.666z" transform="translate(6.667 17.333)"/>
        <path fill="#1C1C1C" d="M14.667 22.667c-1.473 0-2.667 1.194-2.667 2.666C12 26.806 13.194 28 14.667 28c1.472 0 2.666-1.194 2.666-2.667 0-1.472-1.194-2.666-2.666-2.666zm0-2.667C17.612 20 20 22.388 20 25.333c0 2.946-2.388 5.334-5.333 5.334-2.946 0-5.334-2.388-5.334-5.334 0-2.945 2.388-5.333 5.334-5.333z" transform="translate(6.667 17.333)"/>
        <g>
            <path fill="#CC071E" d="M7.333 0c1.841 0 3.334 1.492 3.334 3.333V6c0 1.614-1.147 2.96-2.67 3.267l-.001 1.717-2.948-1.651H3.333C1.493 9.333 0 7.841 0 6V3.333C0 1.493 1.492 0 3.333 0h4z" transform="translate(6.667 17.333) translate(10.667 5.333)"/>
            <path fill="#FFF" d="M1.333 2H9.333V4.4H1.333zM1.333 5.333H4V6.666H1.333zM4.667 5.333H9.334V6.666H4.667z" transform="translate(6.667 17.333) translate(10.667 5.333)"/>
        </g>
        <path fill="#D2DFEC" d="M37.333 8l1.334 1.733v10.221l-.065.198c-.407-.1-.831-.152-1.269-.152-2.485 0-4.573 1.7-5.165 4h-1.501V8h6.666z" transform="translate(6.667 17.333)"/>
        <path fill="#99BAD9" d="M33.333 8v13.807c-.548.62-.953 1.368-1.165 2.193h-1.501V8h2.666z" transform="translate(6.667 17.333)"/>
    </g>
</svg>
