<svg xmlns="http://www.w3.org/2000/svg" width="24" height="24"><defs><filter id="a" width="134.7%" height="119.6%" x="-17.4%" y="-9.8%" filterUnits="objectBoundingBox"><feOffset dy="2" in="SourceAlpha" result="shadowOffsetOuter1"/><feGaussianBlur in="shadowOffsetOuter1" result="shadowBlurOuter1" stdDeviation="12"/><feColorMatrix in="shadowBlurOuter1" result="shadowMatrixOuter1" values="0 0 0 0 0 0 0 0 0 0 0 0 0 0 0 0 0 0 0.16 0"/><feMerge><feMergeNode in="shadowMatrixOuter1"/><feMergeNode in="SourceGraphic"/></feMerge></filter></defs><path fill="#4C4C4C" fill-rule="evenodd" d="M18.852 10.319a2.851 2.851 0 0 0 .648-1.826c0-1.64-1.39-2.993-3.115-2.993-.654 0-1.272.189-1.79.54a4.48 4.48 0 0 0-.606.519c-.156.154-.442.474-.838.941l-1.13 1.331-1.146-1.318a18.62 18.62 0 0 0-.861-.942A4.587 4.587 0 0 0 9.34 6a3.17 3.17 0 0 0-1.728-.5C5.889 5.5 4.499 6.853 4.5 8.493c0 .679.226 1.311.635 1.81.059.07 1.37 1.536 3.793 4.243l2.626 2.932.452.505 6.846-7.664zm-6.845-3.79c.656-.807 1.238-1.384 1.745-1.729a4.664 4.664 0 0 1 2.633-.8C18.928 4 21 6.014 21 8.493a4.355 4.355 0 0 1-.988 2.778l-.02.023-7.639 8.552a.466.466 0 0 1-.692 0l-.173-.193a62560.656 62560.656 0 0 1-3.677-4.107 1796.906 1796.906 0 0 1-3.816-4.268A4.357 4.357 0 0 1 3 8.493C3 6.015 5.07 4 7.613 4c.923 0 1.798.26 2.54.74.496.319 1.114.915 1.854 1.79z" filter="url(#a)"/></svg>
