<svg width="24" height="24" viewBox="0 0 24 24" fill="none" xmlns="http://www.w3.org/2000/svg">
<path d="M20.7827 14.178C20.7831 14.1665 20.7836 14.155 20.7836 14.1435V11.1897C20.7836 10.319 20.0753 9.61048 19.2044 9.61048H17.5443V6.98243C17.5443 6.75649 17.728 6.57274 17.954 6.57274C18.3747 6.57274 18.7157 6.23173 18.7157 5.81103C18.7157 5.39032 18.3747 5.04931 17.954 5.04931C16.888 5.04931 16.0209 5.91649 16.0209 6.98243V9.61048H14.1077C14.1041 9.59688 14.1002 9.58329 14.0957 9.5697L12.7961 5.57642H12.8842C13.3049 5.57642 13.6459 5.2354 13.6459 4.8147C13.6459 4.39399 13.3049 4.05298 12.8842 4.05298H5.17352C4.75282 4.05298 4.4118 4.39399 4.4118 4.8147C4.4118 5.2354 4.75282 5.57642 5.17352 5.57642H5.48313V8.74774C5.4161 8.76931 5.3493 8.79157 5.28297 8.81524C4.57633 9.06696 3.91961 9.43259 3.33086 9.90204C3.0018 10.1643 2.94789 10.6436 3.21016 10.9724C3.47242 11.3015 3.95172 11.3554 4.28055 11.0931C5.22203 10.3427 6.35735 9.9461 7.56414 9.9461C8.9725 9.9461 10.2965 10.4945 11.2923 11.4904C12.2882 12.4863 12.8366 13.8102 12.8366 15.2186C12.8366 15.5509 12.8055 15.8835 12.7443 16.207L12.5732 17.1105H15.4316C15.748 18.531 17.0184 19.5963 18.5329 19.5963C20.2848 19.5963 21.7101 18.171 21.7101 16.4191C21.7101 15.5453 21.3552 14.7529 20.7827 14.178ZM7.00657 8.44517V5.57618H11.1939L12.5069 9.61024H11.4053C10.2831 8.83821 8.95563 8.4222 7.56414 8.4222C7.37735 8.4222 7.19149 8.43017 7.00657 8.44517ZM12.9967 11.1339H19.2046C19.2353 11.1339 19.2604 11.159 19.2604 11.1897V13.326C19.0267 13.2712 18.7832 13.2419 18.5329 13.2419C17.0688 13.2419 15.8331 14.2375 15.4666 15.587H14.3505C14.357 15.4642 14.3603 15.3414 14.3603 15.2186C14.3603 13.7252 13.8813 12.3051 12.9967 11.1339ZM18.5329 18.0728C17.6209 18.0728 16.8791 17.331 16.8791 16.4191C16.8791 15.5071 17.6209 14.7653 18.5329 14.7653C19.4448 14.7653 20.1866 15.5071 20.1866 16.4191C20.1866 17.331 19.4448 18.0728 18.5329 18.0728Z" fill="#1C1C1C"/>
<path d="M7.56408 10.8325C5.14557 10.8325 3.17822 12.8001 3.17822 15.2184C3.17822 17.6367 5.1458 19.6042 7.56408 19.6042C9.98236 19.6042 11.9499 17.6367 11.9499 15.2184C11.9499 12.8001 9.98236 10.8325 7.56408 10.8325ZM7.56408 18.081C5.9858 18.081 4.70166 16.7969 4.70166 15.2186C4.70166 13.6403 5.9858 12.3562 7.56408 12.3562C9.14236 12.3562 10.4265 13.6403 10.4265 15.2186C10.4265 16.7969 9.14236 18.081 7.56408 18.081Z" fill="#1C1C1C"/>
</svg>
