<?xml version="1.0" encoding="UTF-8"?>
<svg width="105px" height="53px" viewBox="0 0 105 53" version="1.1" xmlns="http://www.w3.org/2000/svg" xmlns:xlink="http://www.w3.org/1999/xlink">
    <title>rewe-logo-vector-contentheader-negative</title>
    <g id="rewe-logo-vector-contentheader-negative" stroke="none" stroke-width="1" fill="none" fill-rule="evenodd">
        <rect id="background" fill="#CC071E" x="0" y="0" width="105" height="53"></rect>
        <g id="rewe-logo-negative-from-eps" transform="translate(0.000000, 8.000000)">
            <polygon id="background" fill="#CC071E" points="0 36.6509434 105 36.6509434 105 0 0 0"></polygon>
            <path d="M96.066425,5.9835734 C97.452775,5.9835734 98.109375,6.64153674 98.109375,8.0304146 L98.109375,8.0304146 L98.109375,9.82157601 C98.109375,11.1739783 97.452775,11.8315909 96.066425,11.8315909 L96.066425,11.8315909 L88.99065,11.8315909 L88.99065,15.4137384 L94.972325,15.4137384 C96.358325,15.4137384 97.014925,16.0715264 97.014925,17.4605796 L97.014925,17.4605796 L97.014925,19.251741 C97.014925,20.6039679 96.358325,21.2619313 94.972325,21.2619313 L94.972325,21.2619313 L88.99065,21.2619313 L88.99065,24.9901564 L97.160875,24.9901564 C98.546875,24.9901564 99.203475,25.6481198 99.203475,27.0369976 L99.203475,27.0369976 L99.203475,28.8279837 C99.203475,30.1805613 98.546875,30.8385246 97.160875,30.8385246 L97.160875,30.8385246 L83.336925,30.8385246 C81.98715,30.8385246 81.33055,30.1805613 81.33055,28.8279837 L81.33055,28.8279837 L81.33055,8.0304146 C81.33055,6.64153674 81.98715,5.9835734 83.336925,5.9835734 L83.336925,5.9835734 Z M52.697575,5.9835734 C54.302675,5.9835734 54.9955,6.56841022 55.21425,7.95746344 L55.21425,7.95746344 L57.220625,20.1655595 L57.293425,20.1655595 L59.7737,7.95746344 C60.0656,6.56841022 60.758425,5.9835734 62.290375,5.9835734 L62.290375,5.9835734 L65.39085,5.9835734 C66.9228,5.9835734 67.615975,6.56841022 67.907875,7.95746344 L67.907875,7.95746344 L70.42455,20.1655595 L70.49735,20.1655595 L72.503725,7.95746344 C72.722475,6.56841022 73.41565,5.9835734 75.0204,5.9835734 L75.0204,5.9835734 L77.573475,5.9835734 C78.7773,5.9835734 79.5067,6.53193464 79.5067,7.62848176 C79.5067,7.84768597 79.470475,8.14019206 79.397325,8.43252279 L79.397325,8.43252279 L74.619125,28.8279837 C74.291,30.1805613 73.6344,30.8385246 71.919925,30.8385246 L71.919925,30.8385246 L68.929175,30.8385246 C67.397225,30.8385246 66.70405,30.2535125 66.41215,28.8646346 L66.41215,28.8646346 L63.676725,15.5233405 L63.603575,15.5233405 L60.8678,28.8646346 C60.57625,30.2535125 59.883075,30.8385246 58.351125,30.8385246 L58.351125,30.8385246 L55.3602,30.8385246 C53.646075,30.8385246 52.989475,30.1805613 52.661,28.8279837 L52.661,28.8279837 L47.8828,8.43252279 C47.809825,8.14019206 47.773425,7.84768597 47.773425,7.62848176 C47.773425,6.53193464 48.466425,5.9835734 49.70665,5.9835734 L49.70665,5.9835734 Z M43.90715,5.9835734 C45.29315,5.9835734 45.949575,6.64153674 45.949575,8.0304146 L45.949575,8.0304146 L45.949575,9.82157601 C45.949575,11.1739783 45.29315,11.8315909 43.90715,11.8315909 L43.90715,11.8315909 L36.83085,11.8315909 L36.83085,15.4137384 L42.812875,15.4137384 C44.198875,15.4137384 44.8553,16.0715264 44.8553,17.4605796 L44.8553,17.4605796 L44.8553,19.251741 C44.8553,20.6039679 44.198875,21.2619313 42.812875,21.2619313 L42.812875,21.2619313 L36.83085,21.2619313 L36.83085,24.9901564 L45.00125,24.9901564 C46.387425,24.9901564 47.04385,25.6481198 47.04385,27.0369976 L47.04385,27.0369976 L47.04385,28.8279837 C47.04385,30.1805613 46.387425,30.8385246 45.00125,30.8385246 L45.00125,30.8385246 L31.1773,30.8385246 C29.8277,30.8385246 29.1711,30.1805613 29.1711,28.8279837 L29.1711,28.8279837 L29.1711,8.0304146 C29.1711,6.64153674 29.8277,5.9835734 31.1773,5.9835734 L31.1773,5.9835734 Z M15.310575,5.9835734 C22.970325,5.9835734 25.88845,8.90775752 25.88845,13.8421319 C25.88845,16.7661407 24.3929,19.2150901 20.964125,20.4943658 L20.964125,20.4943658 L26.28955,28.3895752 C26.58145,28.8646346 26.727225,29.2667428 26.727225,29.5955491 C26.727225,30.4364164 25.851875,30.8385246 24.794175,30.8385246 L24.794175,30.8385246 L20.453475,30.8385246 C19.21325,30.8385246 18.520425,30.2535125 17.717875,28.8646346 L17.717875,28.8646346 L13.41375,21.4448352 L13.340775,21.4448352 L13.340775,28.8279837 C13.340775,30.1805613 12.68435,30.8385246 11.298175,30.8385246 L11.298175,30.8385246 L7.833175,30.8385246 C6.483575,30.8385246 5.826975,30.1805613 5.826975,28.8279837 L5.826975,28.8279837 L5.826975,8.0304146 C5.826975,6.64153674 6.483575,5.9835734 7.833175,5.9835734 L7.833175,5.9835734 Z M14.9457,11.6855132 L13.340775,11.6855132 L13.340775,16.8757428 L14.9457,16.8757428 C17.09785,16.8757428 18.009775,15.9620996 18.009775,14.2805403 C18.009775,12.5991564 17.09785,11.6855132 14.9457,11.6855132 L14.9457,11.6855132 Z" id="Path-2" fill="#FFFFFE"></path>
        </g>
    </g>
</svg>