<svg width="148" height="44" viewBox="0 0 148 44" fill="none" xmlns="http://www.w3.org/2000/svg">
<g clip-path="url(#clip0_83_18593)">
<path fill-rule="evenodd" clip-rule="evenodd" d="M136.215 0H11.7929C11.3389 0 10.89 0 10.4386 0.00219995C10.0601 0.00439989 9.68412 0.0109997 9.30195 0.0164996C8.47206 0.0252994 7.6434 0.0901977 6.82341 0.211195C6.00543 0.334225 5.21314 0.566758 4.47349 0.900877C2.9842 1.57744 1.77312 2.65493 1.01294 3.9797C0.637481 4.63896 0.37684 5.34514 0.239939 6.07405C0.102654 6.80003 0.0296831 7.53701 0.0185519 8.27619C0.00618398 8.61278 0.00618398 8.95158 0 9.28817V34.7151C0.00618398 35.0561 0.00742078 35.3861 0.0185519 35.7293C0.0284463 36.4663 0.102654 37.2033 0.241175 37.9315C0.377223 38.6596 0.63695 39.3669 1.01294 40.0258C1.38784 40.6838 1.8803 41.2834 2.47112 41.8012C3.05618 42.3255 3.73175 42.7634 4.47226 43.098C5.2131 43.4324 6.00588 43.6667 6.82341 43.791C7.6434 43.912 8.47206 43.9769 9.30195 43.9857C9.68535 43.9934 10.0601 43.9967 10.4386 43.9967C10.8912 44 11.3389 44 11.7929 44H136.215C136.66 44 137.11 44 137.555 43.9978C137.931 43.9978 138.318 43.9934 138.696 43.9868C139.524 43.9758 140.35 43.912 141.169 43.7921C141.99 43.6654 142.785 43.4315 143.529 43.098C144.269 42.763 144.944 42.3248 145.529 41.8001C146.118 41.2804 146.611 40.6817 146.991 40.0258C147.364 39.3658 147.622 38.6596 147.756 37.9315C147.894 37.2033 147.97 36.4674 147.985 35.7293C147.99 35.3872 147.99 35.0561 147.99 34.7151C148 34.3147 148 33.9177 148 33.5118V10.4893C148 10.0867 148 9.68636 147.99 9.28817C147.99 8.95158 147.99 8.61278 147.985 8.27619C147.97 7.53812 147.894 6.80206 147.756 6.07405C147.622 5.34539 147.363 4.6392 146.99 3.9797C146.227 2.65643 145.016 1.57925 143.529 0.899778C142.785 0.567225 141.99 0.334794 141.169 0.210095C140.352 0.0890978 139.524 0.0230994 138.696 0.0164996C138.318 0.0109997 137.931 0.00439989 137.555 0.00219995C137.11 0 136.659 0 136.215 0Z" fill="#A6A6A6"/>
<path fill-rule="evenodd" clip-rule="evenodd" d="M10.6075 42.8969C10.2303 42.8969 9.86298 42.8925 9.48823 42.8859C8.71342 42.8762 7.94043 42.8163 7.17542 42.7066C6.46232 42.5986 5.77123 42.3969 5.12482 42.1082C4.48416 41.8222 3.90039 41.4482 3.39577 40.9972C2.88356 40.5537 2.45694 40.0383 2.13301 39.4715C1.80571 38.9023 1.57878 38.2916 1.46019 37.661C1.33313 36.9835 1.2645 36.2985 1.25488 35.6117C1.24622 35.3807 1.23633 34.6141 1.23633 34.6141V9.37189C1.23633 9.37189 1.24746 8.61621 1.25488 8.39292C1.26408 7.7073 1.33231 7.02332 1.45895 6.34697C1.57768 5.71668 1.80525 5.104 2.13177 4.53201C2.79247 3.39301 3.83909 2.46757 5.12358 1.88658C5.76854 1.59843 6.45855 1.3982 7.17048 1.29259C7.93815 1.18118 8.71416 1.12125 9.49194 1.1133L10.6088 1.1001H137.801L138.93 1.1144C139.701 1.1221 140.47 1.1804 141.231 1.29039C141.949 1.39869 142.646 1.60108 143.298 1.89098C144.581 2.47237 145.627 3.39681 146.288 4.53421C146.609 5.1029 146.833 5.71008 146.949 6.33707C147.078 7.01905 147.15 7.70763 147.165 8.39842C147.168 8.70861 147.168 9.0408 147.168 9.37189C147.178 9.78108 147.178 10.1716 147.178 10.5643V33.4327C147.178 33.8287 147.178 34.2181 147.168 34.6086C147.168 34.9638 147.168 35.2905 147.163 35.6249C147.149 36.3032 147.079 36.9797 146.953 37.6489C146.837 38.2845 146.612 38.9005 146.284 39.4748C145.957 40.0355 145.533 40.5467 145.026 40.9895C144.52 41.442 143.936 41.819 143.295 42.106C142.645 42.3976 141.949 42.6001 141.231 42.7066C140.465 42.8166 139.692 42.8771 138.918 42.8859C138.554 42.8925 138.176 42.8969 137.806 42.8969L136.465 42.8991L10.6088 42.8969H10.6075Z" fill="black"/>
<path fill-rule="evenodd" clip-rule="evenodd" d="M33.5373 20.9615C33.5497 20.0014 33.8046 19.0601 34.2786 18.2252C34.7525 17.3902 35.4299 16.6887 36.2478 16.1859C35.7283 15.4437 35.043 14.8329 34.2461 14.402C33.4493 13.971 32.563 13.7317 31.6575 13.7032C29.7247 13.5007 27.8518 14.8594 26.867 14.8594C25.8638 14.8594 24.3475 13.7239 22.7161 13.7573C21.6603 13.7913 20.6313 14.0982 19.7295 14.6482C18.8276 15.1983 18.0837 15.9726 17.5701 16.8957C15.3452 20.7475 17.0053 26.41 19.1359 29.5232C20.2024 31.0475 21.4483 32.7513 23.0797 32.6904C24.6754 32.6236 25.2713 31.6734 27.1983 31.6734C29.1058 31.6734 29.6649 32.6904 31.3285 32.6513C33.0415 32.6236 34.1195 31.1211 35.148 29.5795C35.915 28.494 36.5053 27.2937 36.8967 26.0235C35.9016 25.6028 35.0523 24.8984 34.4549 23.9982C33.8575 23.098 33.5384 22.0418 33.5373 20.9615ZM30.3943 11.6543C31.3284 10.534 31.7886 9.0935 31.6771 7.63916C30.2504 7.78892 28.9326 8.47082 27.9864 9.54892C27.0528 10.6121 26.5795 12.0025 26.6703 13.4145C27.3838 13.4222 28.0897 13.2678 28.7348 12.9629C29.38 12.658 29.9474 12.2105 30.3943 11.6543Z" fill="white"/>
<path d="M53.7071 28.8307H48.2632L46.9551 32.6917H44.6484L49.8071 18.4053H52.2035L57.361 32.6917H55.0152L53.7083 28.8307H53.7071ZM48.8257 27.0475H53.1423L51.0139 20.7821H50.9552L48.8269 27.0487L48.8257 27.0475ZM68.4997 27.4847C68.4997 30.7209 66.7671 32.7998 64.1521 32.7998C63.4901 32.8343 62.8318 32.6818 62.2523 32.3598C61.6729 32.0377 61.1958 31.5591 60.8756 30.9786H60.8262V36.1373H58.6863V22.2766H60.7571V24.008H60.7951C61.1301 23.4301 61.6154 22.9538 62.1994 22.6297C62.7834 22.3056 63.4443 22.1458 64.1119 22.1673C66.7556 22.1673 68.4997 24.2565 68.4997 27.4847ZM66.3023 27.4847C66.3023 25.3759 65.2117 23.9896 63.5493 23.9896C61.9157 23.9896 60.817 25.4047 60.817 27.4847C60.817 29.5831 61.9157 30.989 63.5493 30.989C65.2117 30.989 66.3023 29.6119 66.3023 27.4847ZM79.964 27.4847C79.964 30.7209 78.2314 32.7998 75.6165 32.7998C74.9544 32.8343 74.2961 32.6818 73.7167 32.3598C73.1372 32.0377 72.6601 31.5591 72.3399 30.9786H72.2905V36.1373H70.1518V22.2766H72.2215V24.008H72.2606C72.5955 23.4301 73.0808 22.9538 73.6648 22.6297C74.2488 22.3056 74.9098 22.1458 75.5773 22.1673C78.2211 22.1673 79.964 24.2565 79.964 27.4847ZM77.7667 27.4847C77.7667 25.3759 76.676 23.9896 75.0136 23.9896C73.38 23.9896 72.2813 25.4047 72.2813 27.4847C72.2813 29.5831 73.38 30.989 75.0136 30.989C76.676 30.989 77.7667 29.6119 77.7667 27.4847Z" fill="white"/>
<path fill-rule="evenodd" clip-rule="evenodd" d="M87.5397 28.7109C87.6985 30.1283 89.0744 31.0579 90.9566 31.0579C92.7582 31.0579 94.0548 30.1283 94.0548 28.849C94.0548 27.7411 93.2725 27.0773 91.4202 26.6229L89.5691 26.1765C86.9461 25.5437 85.7278 24.3162 85.7278 22.3247C85.7278 19.8605 87.8757 18.167 90.9267 18.167C93.9455 18.167 96.0152 19.8605 96.0842 22.3247H93.9259C93.7971 20.8982 92.619 20.0388 90.8956 20.0388C89.1734 20.0388 87.9953 20.9097 87.9953 22.1775C87.9953 23.1864 88.7477 23.7812 90.5896 24.2368L92.1634 24.6222C95.0948 25.3159 96.312 26.4929 96.312 28.5832C96.312 31.2557 94.1836 32.9297 90.7978 32.9297C87.6295 32.9297 85.4896 31.296 85.3516 28.7109H87.5397ZM100.926 19.811V22.2764H102.908V23.9676H100.926V29.7107C100.926 30.6034 101.323 31.0188 102.194 31.0188C102.429 31.0153 102.664 30.998 102.897 30.9693V32.6524C102.506 32.726 102.108 32.7582 101.71 32.7513C99.6011 32.7513 98.7785 31.9575 98.7785 29.9396V23.9687H97.2646V22.2764H98.7785V19.811H100.926Z" fill="white"/>
<path d="M104.053 27.4841C104.053 24.2053 105.983 22.146 108.993 22.146C112.013 22.146 113.934 24.2053 113.934 27.4841C113.934 30.7698 112.023 32.8211 108.993 32.8211C105.964 32.8211 104.053 30.771 104.053 27.4841ZM111.755 27.4841C111.755 25.2361 110.725 23.9085 108.993 23.9085C107.26 23.9085 106.232 25.2465 106.232 27.4841C106.232 29.7413 107.26 31.0574 108.993 31.0574C110.725 31.0574 111.755 29.7413 111.755 27.4841Z" fill="white"/>
<path fill-rule="evenodd" clip-rule="evenodd" d="M115.697 22.2757H117.737V24.0474H117.786C117.924 23.4938 118.249 23.0046 118.705 22.6621C119.161 22.3195 119.721 22.1445 120.291 22.1664C120.537 22.1652 120.783 22.1917 121.024 22.2469V24.2453C120.713 24.1508 120.388 24.1072 120.063 24.1164C119.753 24.104 119.443 24.1589 119.156 24.2773C118.868 24.3957 118.61 24.5749 118.398 24.8025C118.187 25.0301 118.027 25.3008 117.929 25.596C117.832 25.8912 117.8 26.204 117.835 26.5128V32.6908H115.697V22.2757Z" fill="white"/>
<path d="M130.882 29.6319C130.595 31.5232 128.754 32.8209 126.398 32.8209C123.367 32.8209 121.486 30.7904 121.486 27.5334C121.486 24.2661 123.378 22.147 126.307 22.147C129.19 22.147 131.001 24.1258 131.001 27.2849V28.0178H123.645V28.1466C123.611 28.53 123.658 28.9162 123.785 29.2796C123.912 29.6431 124.115 29.9753 124.38 30.2544C124.645 30.5334 124.966 30.7528 125.323 30.898C125.679 31.0432 126.062 31.1108 126.447 31.0964C126.952 31.144 127.459 31.0271 127.892 30.7632C128.326 30.4993 128.662 30.1025 128.852 29.6319H130.882ZM123.655 26.5233H128.862C128.881 26.1787 128.829 25.8338 128.709 25.5103C128.588 25.1868 128.402 24.8916 128.163 24.6434C127.923 24.3951 127.634 24.1991 127.315 24.0677C126.996 23.9363 126.653 23.8722 126.308 23.8796C125.96 23.877 125.614 23.9435 125.292 24.0753C124.969 24.2072 124.676 24.4017 124.429 24.6476C124.183 24.8935 123.987 25.1859 123.854 25.5078C123.721 25.8298 123.654 26.175 123.655 26.5233Z" fill="white"/>
<path fill-rule="evenodd" clip-rule="evenodd" d="M50.3621 14.5163H46.0801V7.65039H47.1466V13.535H50.3621V14.5163Z" fill="white"/>
<path d="M51.4395 13.0503C51.4395 12.1184 52.1332 11.5812 53.3653 11.5041L54.7689 11.4236V10.9749C54.7689 10.4296 54.4065 10.1201 53.7082 10.1201C53.1375 10.1201 52.7418 10.3295 52.6279 10.6953H51.6385C51.742 9.80603 52.5796 9.23425 53.7553 9.23425C55.0542 9.23425 55.7859 9.88196 55.7859 10.976V14.516H54.8022V13.7878H54.7217C54.3881 14.3193 53.7921 14.6299 53.1651 14.6011C52.9477 14.6238 52.7279 14.6006 52.5199 14.5331C52.312 14.4656 52.1205 14.3551 51.9579 14.209C51.7952 14.0628 51.6651 13.8842 51.5758 13.6846C51.4865 13.4851 51.44 13.269 51.4395 13.0503ZM54.7689 12.6085V12.1748L53.5034 12.2554C52.7901 12.3037 52.4668 12.5464 52.4668 13.0032C52.4668 13.4691 52.8706 13.7394 53.4274 13.7394C53.5904 13.756 53.755 13.7396 53.9115 13.6913C54.0679 13.6429 54.2131 13.5636 54.3383 13.4579C54.4634 13.3523 54.5661 13.2226 54.64 13.0764C54.714 12.9303 54.7578 12.7708 54.7689 12.6074V12.6085ZM57.1296 11.9229C57.1296 10.2869 57.9717 9.24921 59.281 9.24921C59.6045 9.23462 59.9256 9.31232 60.2067 9.47323C60.4878 9.63415 60.7173 9.87166 60.8686 10.1581H60.9457V7.31299H61.9673V14.5149H60.9882V13.698H60.9077C60.7445 13.9824 60.5067 14.2168 60.22 14.376C59.9334 14.5352 59.6087 14.613 59.281 14.6011C57.9625 14.6011 57.1296 13.5646 57.1296 11.9229ZM58.1857 11.9229C58.1857 13.0227 58.7034 13.6831 59.5709 13.6831C60.4326 13.6831 60.9641 13.0124 60.9641 11.9275C60.9641 10.8483 60.4268 10.1673 59.5709 10.1673C58.7092 10.1673 58.1857 10.8345 58.1857 11.9229ZM68.0256 13.117C67.8868 13.5905 67.5859 14.0001 67.1755 14.2742C66.7652 14.5482 66.2716 14.6692 65.7811 14.6161C65.4398 14.6249 65.1008 14.5595 64.7874 14.4242C64.4739 14.289 64.1937 14.0872 63.9661 13.8328C63.7384 13.5785 63.5688 13.2777 63.469 12.9512C63.3692 12.6248 63.3416 12.2806 63.3881 11.9424C63.3424 11.6031 63.3702 11.258 63.4696 10.9303C63.569 10.6027 63.7376 10.3003 63.9641 10.0435C64.1907 9.78682 64.4697 9.58179 64.7824 9.44235C65.0951 9.30292 65.4341 9.23234 65.7765 9.2354C67.218 9.2354 68.0877 10.2202 68.0877 11.8469V12.2036H64.4293V12.2611C64.4132 12.4512 64.4371 12.6425 64.4993 12.8229C64.5616 13.0032 64.6608 13.1685 64.7907 13.3083C64.9206 13.448 65.0782 13.5591 65.2535 13.6343C65.4288 13.7095 65.6179 13.7473 65.8087 13.7452C66.3091 13.805 66.7958 13.5565 67.042 13.117H68.0256ZM64.4293 11.4477H67.0454C67.0586 11.2738 67.0353 11.099 66.9768 10.9347C66.9184 10.7703 66.8261 10.6201 66.706 10.4936C66.5859 10.3671 66.4406 10.2671 66.2795 10.2002C66.1184 10.1333 65.9451 10.1009 65.7707 10.1051C65.5938 10.1027 65.4181 10.1357 65.2542 10.2023C65.0902 10.2689 64.9413 10.3677 64.8162 10.4929C64.6911 10.6181 64.5925 10.7671 64.526 10.9311C64.4595 11.0951 64.4266 11.2708 64.4293 11.4477Z" fill="white"/>
<path fill-rule="evenodd" clip-rule="evenodd" d="M69.4609 9.33644H70.4457V10.159H70.5217C70.7863 9.55388 71.4075 9.18113 72.0679 9.23635C72.3198 9.21782 72.5727 9.25613 72.8079 9.34844C73.0431 9.44076 73.2545 9.58472 73.4265 9.76971C73.5986 9.95469 73.7269 10.176 73.802 10.4172C73.8771 10.6584 73.897 10.9134 73.8603 11.1634V14.517H72.8387V11.4199C72.8387 10.587 72.4763 10.1728 71.7204 10.1728C71.5493 10.1653 71.3786 10.1947 71.2199 10.2592C71.0612 10.3236 70.9183 10.4215 70.8009 10.5462C70.6835 10.671 70.5944 10.8195 70.5396 10.9818C70.4849 11.1441 70.4658 11.3163 70.4837 11.4867V14.517H69.4609V9.33644Z" fill="white"/>
<path d="M78.1183 7.80334C78.1105 7.67084 78.1426 7.53905 78.2106 7.42502C78.2785 7.311 78.3791 7.22001 78.4994 7.16384C78.6197 7.10766 78.754 7.0889 78.8851 7.10997C79.0161 7.13104 79.1378 7.19098 79.2344 7.28202C79.331 7.37306 79.398 7.49101 79.4268 7.62058C79.4555 7.75016 79.4447 7.88538 79.3958 8.00875C79.3468 8.13211 79.2619 8.23792 79.1521 8.31248C79.0423 8.38703 78.9126 8.42689 78.7799 8.42689C78.6949 8.43174 78.6099 8.41922 78.5299 8.39009C78.45 8.36096 78.3768 8.31584 78.3149 8.25748C78.253 8.19912 78.2036 8.12874 78.1698 8.05066C78.136 7.97258 78.1185 7.88842 78.1183 7.80334ZM78.2702 9.33575H79.2884V14.5163H78.2702V9.33575Z" fill="white"/>
<path fill-rule="evenodd" clip-rule="evenodd" d="M80.9375 9.33627H81.9223V10.1692H81.9982C82.1214 9.89173 82.3224 9.65593 82.5768 9.4904C82.8313 9.32486 83.1283 9.23669 83.4319 9.23657C83.7355 9.23644 84.0326 9.32438 84.2872 9.48971C84.5418 9.65504 84.7429 9.89068 84.8663 10.1681H84.9468C85.0918 9.87735 85.3177 9.63475 85.5973 9.46942C85.877 9.3041 86.1984 9.2231 86.523 9.23618C86.75 9.21743 86.9783 9.24932 87.1915 9.32957C87.4047 9.40982 87.5974 9.53642 87.7557 9.70022C87.914 9.86401 88.0339 10.0609 88.1068 10.2767C88.1797 10.4925 88.2038 10.7218 88.1773 10.9481V14.5168H87.1557V11.215C87.1557 10.5155 86.8221 10.1738 86.1514 10.1738C86.0068 10.1677 85.8626 10.1915 85.7277 10.2438C85.5928 10.296 85.4702 10.3755 85.3675 10.4774C85.2648 10.5792 85.1842 10.7012 85.1308 10.8356C85.0774 10.9701 85.0524 11.1141 85.0573 11.2587V14.5168H84.0529V11.1137C84.0597 10.9833 84.0381 10.8529 83.9895 10.7316C83.9409 10.6103 83.8666 10.501 83.7716 10.4113C83.6766 10.3216 83.5633 10.2536 83.4395 10.212C83.3156 10.1704 83.1842 10.1562 83.0543 10.1704C82.9045 10.1734 82.7567 10.2065 82.6199 10.2678C82.4831 10.3291 82.36 10.4172 82.2579 10.527C82.1559 10.6368 82.0769 10.766 82.0258 10.9069C81.9746 11.0478 81.9524 11.1976 81.9603 11.3473V14.5156H80.9375V9.33627Z" fill="white"/>
</g>
<defs>
<clipPath id="clip0_83_18593">
<rect width="148" height="44" fill="white"/>
</clipPath>
</defs>
</svg>
