<svg xmlns="http://www.w3.org/2000/svg" width="48" height="32"><g fill="none" fill-rule="evenodd"><path fill="#FFF" stroke="#8C8C8C" d="M46 .5c.414 0 .79.168 1.06.44.272.27.44.646.44 1.06h0v28c0 .414-.168.79-.44 1.06a1.49 1.49 0 01-1.06.44h0H2a1.49 1.49 0 01-1.06-.44A1.484 1.484 0 01.5 30h0V2c0-.414.168-.79.44-1.06C1.21.667 1.585.5 2 .5h0z"/><g fill-rule="nonzero"><path fill="#253B80" d="M19.925 13.742c.591 0 1.036.156 1.287.45.228.269.304.652.225 1.14-.175 1.114-.846 1.677-2.009 1.677h-.558a.246.246 0 00-.242.207l-.192 1.22a.246.246 0 01-.242.208h-.844c-.09 0-.16-.08-.146-.17l.714-4.524a.245.245 0 01.243-.207h1.764zm.204 1.653c.035-.223.007-.384-.086-.492-.155-.182-.456-.182-.774-.182h-.122a.147.147 0 00-.146.124l-.187 1.183h.267c.468 0 .952 0 1.048-.633zm5.072-.02c.09 0 .16.08.145.169l-.457 2.893a.245.245 0 01-.242.207h-.762a.147.147 0 01-.145-.17l.038-.235s-.417.484-1.17.484c-.438 0-.807-.127-1.064-.43-.281-.33-.396-.804-.315-1.299.155-.992.953-1.7 1.887-1.7.407 0 .815.09.998.355l.06.086.037-.237a.146.146 0 01.145-.124h.844zm-1.178 1.643c.037-.234-.014-.446-.143-.598-.129-.15-.324-.23-.564-.23-.48 0-.87.335-.947.813-.04.235.008.446.133.594.126.15.322.228.567.228.49 0 .872-.324.954-.807zm5.68-1.645c.118 0 .188.134.12.231l-2.825 4.079a.242.242 0 01-.201.105h-.849c-.12 0-.189-.135-.12-.232l.88-1.242-.936-2.745a.148.148 0 01.14-.195h.835c.108 0 .204.071.235.175l.496 1.658 1.172-1.725a.245.245 0 01.203-.108h.85z"/><path fill="#179BD7" d="M32.514 13.742c.59 0 1.035.156 1.286.45.228.269.305.652.225 1.14-.175 1.114-.846 1.677-2.009 1.677h-.558a.245.245 0 00-.242.207l-.203 1.284a.171.171 0 01-.17.145h-.905c-.09 0-.16-.08-.145-.17l.714-4.525a.244.244 0 01.242-.207h1.765zm.204 1.653c.035-.223.007-.384-.086-.492-.155-.182-.456-.182-.774-.182h-.123a.148.148 0 00-.145.124l-.187 1.183h.266c.469 0 .952 0 1.049-.633zm5.071-.02c.091 0 .16.08.146.169l-.457 2.893a.244.244 0 01-.242.207h-.76a.147.147 0 01-.146-.17l.037-.235s-.417.484-1.17.484c-.438 0-.806-.127-1.064-.43-.28-.33-.395-.804-.315-1.299.156-.992.953-1.7 1.887-1.7.407 0 .815.09.998.355l.06.086.037-.237a.146.146 0 01.145-.124h.844zm-1.178 1.644c.038-.234-.013-.446-.143-.598-.128-.15-.323-.23-.563-.23a.946.946 0 00-.947.813c-.04.235.007.446.132.594.126.15.323.228.568.228a.94.94 0 00.953-.807zm2.175-3.153a.147.147 0 01.145-.125h.815c.09 0 .16.081.145.17l-.714 4.526a.244.244 0 01-.242.207h-.729a.147.147 0 01-.145-.17l.725-4.608z"/><g><path fill="#179BD7" d="M13.948 13.979c.135.071.251.16.345.265.308.352.369.852.252 1.451-.28 1.434-1.235 1.93-2.455 1.93h-.188a.303.303 0 00-.3.256l-.015.082-.237 1.505-.012.064a.304.304 0 01-.3.256h-1.26c-.11 0-.196-.1-.179-.21l.103-.654.364-2.306a.344.344 0 01.34-.292s3.535-2.301 3.542-2.347z"/><path fill="#253B80" d="M13.948 13.979s-3.794 2.08-3.87 2.564l-.376 2.38H8.208a.207.207 0 01-.205-.24l1.007-6.39A.345.345 0 019.353 12h2.42c.834 0 1.487.176 1.847.587.327.374.423.786.328 1.392z"/><path fill="#222D65" d="M13.614 13.845l.071.023c.095.031.182.068.263.11a2.69 2.69 0 01-.025.143c-.32 1.638-1.411 2.205-2.806 2.205h-.71a.345.345 0 00-.341.292l.415-2.631a.3.3 0 01.299-.256h1.897a3.932 3.932 0 01.786.076c.052.011.102.024.15.038z"/></g></g></g></svg>