<svg xmlns="http://www.w3.org/2000/svg" xmlns:xlink="http://www.w3.org/1999/xlink" width="160" height="160" viewBox="0 0 160 160">
    <defs>
        <path id="x30dzzb35c" d="M84.229 35.85l-12-4.234-31.29 4.234-16.104 2.066c-3.462 1.11-5.194 3.18-5.194 6.212 0 3.03 4.174 4.524 12.522 4.48v4.543c-8.338-1.511-13.032-.625-14.081 2.659-1.05 3.284.368 5.69 4.254 7.216l9.827.894-3.657 6.59c8.886 4.43 15.894 7.387 21.024 8.872 5.13 1.484 10.055 3.065 14.775 4.744 4.042 6.82 6.684 10.231 7.924 10.231 1.86 0 11.837 4.693 16.155 5.807 2.878.743 9.384 1.824 19.517 3.244 31.846 26.28 49.878 44.177 54.095 53.69l-1.35-9.105 2.175-57.509c-20.995-22.877-36.597-36.835-46.806-41.876-10.209-5.041-20.804-9.294-31.786-12.758z"/>
        <path id="ivx76s6cve" d="M5.27 25.346L34.719 3.25c2.454-1.842 5.908-1.515 7.973.756l55.704 61.239c2.139 2.35 2.052 5.967-.196 8.214l-25.507 25.48c-2.325 2.323-6.092 2.321-8.415-.004-.055-.055-.11-.112-.163-.17L4.468 34.142c-2.228-2.415-2.078-6.18.337-8.409.148-.137.303-.266.465-.387z"/>
        <path id="5ifsnqlbng" d="M13.276 29.367L41.648 8.095c.546-.41 1.315-.336 1.773.17L95.18 65.343c.486.536.45 1.363-.078 1.856L69.497 91.047c-1.069.996-2.742.936-3.737-.132l-.015-.016-52.831-57.628c-.987-1.077-.915-2.75.162-3.737.064-.059.13-.114.2-.167z"/>
        <path id="wx6c9dcngk" d="M66.482 4.327l-12-4.235-31.29 4.235L7.089 6.392c-3.462 1.11-5.194 3.181-5.194 6.212 0 3.031 4.174 4.525 12.522 4.48v4.544C6.078 20.116 1.384 21.003.335 24.287c-1.05 3.284.368 5.69 4.254 7.216l9.827.894-3.657 6.59c8.886 4.43 15.894 7.387 21.024 8.871 5.13 1.485 10.055 3.066 14.775 4.744 4.042 6.821 6.684 10.232 7.924 10.232 1.861 0 11.837 4.693 16.155 5.807 2.878.743 9.384 1.824 19.517 3.244 31.847 26.28 49.878 44.176 54.095 53.69l-1.35-9.106 2.175-57.508c-20.995-22.877-36.597-36.836-46.806-41.877-10.209-5.04-20.804-9.293-31.786-12.757z"/>
        <path id="suadfa390m" d="M5.27 25.346L34.719 3.25c2.454-1.842 5.908-1.515 7.973.756l55.704 61.239c2.139 2.35 2.052 5.967-.196 8.214l-25.507 25.48c-2.325 2.323-6.092 2.321-8.415-.004-.055-.055-.11-.112-.163-.17L4.468 34.142c-2.228-2.415-2.078-6.18.337-8.409.148-.137.303-.266.465-.387z"/>
        <path id="wl7d54plmo" d="M13.276 29.367L41.648 8.095c.546-.41 1.315-.336 1.773.17L95.18 65.343c.486.536.45 1.363-.078 1.856L69.497 91.047c-1.069.996-2.742.936-3.737-.132l-.015-.016-52.831-57.628c-.987-1.077-.915-2.75.162-3.737.064-.059.13-.114.2-.167z"/>
        <circle id="akh3q6zmua" cx="66.116" cy="66.191" r="66.116"/>
        <circle id="3gy099qafi" cx="81.322" cy="75.05" r="66.116"/>
    </defs>
    <g fill="none" fill-rule="evenodd">
        <g transform="translate(2.029 8.855) translate(16.529 8.859)">
            <mask id="y69a5wfnmb" fill="#fff">
                <use xlink:href="#akh3q6zmua"/>
            </mask>
            <use fill="#D8D8D8" xlink:href="#akh3q6zmua"/>
            <g mask="url(#y69a5wfnmb)">
                <g>
                    <path fill="#CCE3EE" d="M53.711 26.946c18.406-8.202 33.005-8.802 43.797-1.799 10.793 7.003 16.767 7.602 17.922 1.799C124.154 7.019 132.574-1.856 140.69.322c8.117 2.177 12.786 3.913 14.007 5.207l31.665 31.627-9.134 58.752c-6.289 33.969-10.578 50.953-12.868 50.953-3.435 0-70.917 9.741-76.122 9.741-5.205 0-72.678-10.278-74.24-11.698-1.561-1.42 0-45.911 0-48.996 0-2.056 13.238-25.044 39.713-68.962z" transform="translate(-23.883 -30.126)"/>
                    <path fill="#BDDCE9" d="M12.893 94.53C23.953 76.599 34.77 69.842 45.345 74.26c15.861 6.626 9.744 9.056 16.085 9.056 6.342 0 10.698-15.01 21.03-11.973 10.333 3.038 9.359-11.268 19.532-23.064 10.173-11.797 26.035-14.052 37.757-14.052 11.722 0 8.755 30.607 9.906 32.787 1.15 2.18-.583.705.264 0 .565-.47 9.76 7.083 27.583 22.66l-6.495 65.295-99.89 27.473L.012 154.253l12.882-59.722z" transform="translate(-23.883 -30.126)"/>
                    <path fill="#AED4E4" d="M13.234 97.696c10.006-.015 18.214.71 24.623 2.176 9.82 2.246 14.713 10.038 22.214 12.99 7.357 2.896 12.736-9.087 22.533-15.225 7.375-4.621 15.886 2.274 23.4-2.743 12.709-8.487 20.399-31.61 38.005-32.75 17.605-1.14 13.414 24.742 30.067 28.342 16.653 3.6 16.665 60.946 0 68.164-16.665 7.218-71.511 31.142-92.657 34.803-21.146 3.662-84.354-30.088-80.508-43.547 2.564-8.972 6.671-26.375 12.323-52.21z" transform="translate(-23.883 -30.126)"/>
                    <g transform="translate(-23.883 -30.126) translate(7.354 34.056)">
                        <mask id="ny2nuurvkd" fill="#fff">
                            <use xlink:href="#x30dzzb35c"/>
                        </mask>
                        <use fill="#F2D2C0" xlink:href="#x30dzzb35c"/>
                        <path fill="#E5C5B4" d="M61.095 71.17c-13.046-.964-21.26-.964-24.643 0-3.383.963-1.847 2.866 4.608 5.707l20.504 1.53 2.212 7.176 26.508 17.575 15.26 28.604 7.089 33.754 62.45-4.94c-10.445-13.112-16.72-20.77-18.823-22.973-7.48-7.833-16.007-9.068-18.761-12.474-4.01-4.96-14.367-12.856-16.116-15.378-4.916-7.091-14.152-9.52-15.84-11.839-4.148-5.698-7.813-9.808-10.995-12.33h10.995L94.548 74.705 72.174 65.6l-11.08 5.57z" mask="url(#ny2nuurvkd)"/>
                        <path fill="#CEAE9B" d="M31.627 70.494L32.95 75.2l36.379-2.263c1.252 4.131 4.535 6.585 9.85 7.362 5.316.776 11.879-.338 19.69-3.343L79.178 36.2v-2.203l-11.72-6.404-40.13 10.049L24.26 47.9l4.602 1.06-1.536 3.39H26.13l-1.87 10.675 7.367 1.43v6.038z" mask="url(#ny2nuurvkd)"/>
                        <g>
                            <mask id="cx3afrjqkf" fill="#fff">
                                <use xlink:href="#ivx76s6cve"/>
                            </mask>
                            <use fill="#274763" xlink:href="#ivx76s6cve"/>
                            <path fill="#34638B" d="M8.307 23.48L37.763 1.378c2.483-1.863 5.981-1.504 8.034.824l52.811 59.9c2.078 2.357 1.965 5.924-.258 8.145l-25.506 25.48c-2.325 2.322-6.092 2.32-8.415-.005-.075-.075-.148-.152-.22-.232L7.45 32.213c-2.195-2.446-1.99-6.208.456-8.403.13-.116.263-.226.402-.33z" mask="url(#cx3afrjqkf)"/>
                            <path fill="#274763" d="M30.773 10.187c.43-.318 1.04-.232 1.362.193.308.406.241.975-.141 1.302l-.054.043L18.283 21.84c-.43.319-1.04.232-1.362-.192-.308-.407-.242-.975.14-1.303l.055-.043 13.657-10.115z" mask="url(#cx3afrjqkf)"/>
                            <mask id="4yfxpjmpph" fill="#fff">
                                <use xlink:href="#5ifsnqlbng"/>
                            </mask>
                            <use fill="#C2C9D9" xlink:href="#5ifsnqlbng"/>
                            <path fill="#EBECF3" d="M25.113 36.264l20.503-15.589c.802-.61 1.934-.521 2.632.206l21.537 22.442c.758.79.732 2.046-.058 2.804-.052.05-.107.097-.164.141l-20.37 15.675c-.8.617-1.937.532-2.638-.197l-21.67-22.528c-.76-.79-.736-2.045.054-2.805.055-.053.113-.103.174-.15z" mask="url(#4yfxpjmpph)"/>
                            <g fill="#DB3939" mask="url(#4yfxpjmpph)">
                                <g>
                                    <path d="M.248 12.147c-.675 8.055 13.164 13.261 16.008 11.796 1.896-.976 4.94-4.323 9.132-10.04-1.707-9.7-4.75-14.315-9.132-13.848-2.582.275-3.089.318-6.901 4.038-2.44 2.38-8.431 0-9.107 8.054z" transform="translate(35.146 30.278)"/>
                                    <path d="M8.351 4.536c-.299.17-.565.17-.799 0-1.162-.845-2.56-2.08-3.033-2.08-.925 0-1.045-1.969.406-1.18.967.524 2.11 1.611 3.426 3.26z" transform="translate(35.146 30.278)"/>
                                </g>
                            </g>
                            <path fill="#C2C9D9" d="M44.084 69.562c9.46-2.179 14.915-6.215 16.364-12.11 2.173-8.841 5.187-17.961 10.11-20.163l27.949 29.957-29.275 28.056-25.148-25.74z" mask="url(#4yfxpjmpph)"/>
                            <path fill="#AEB8CD" d="M52.926 66.64L73.43 51.05c.802-.61 1.934-.52 2.632.206l21.537 22.442c.758.79.732 2.046-.058 2.805-.052.05-.107.097-.164.14L77.007 92.319c-.801.617-1.938.532-2.64-.196l-21.67-22.529c-.76-.79-.735-2.045.055-2.804.055-.054.113-.104.174-.15z" mask="url(#4yfxpjmpph)"/>
                        </g>
                        <path fill="#FDDFC7" d="M19.39 54.955c8.878-2.268 13.984-2.767 15.317-1.498.671.64 1.5 3.99-.93 6.19-2.397 2.17-4.015 3.192-7.23 3.606-3.214.414-5.96-.142-7.157-1.753-.799-1.075-.799-3.256 0-6.545zM29.627 65.6c2.035-1.345 15.584-4.943 17.584-3.038.671.639 1.5 3.99-.93 6.19-1.598 1.446-5.026 3.257-10.284 5.434-3.777-.72-6.065-1.616-6.864-2.69-1.198-1.612-1.54-4.552.494-5.897z"/>
                        <path fill="#FDDFC7" d="M36.44 71.845c11.14-2.717 17.378-3.44 18.71-2.171.672.639 1.5 3.99-.93 6.19-1.597 1.446-5.236 3.185-10.916 5.216-3.777-.72-6.065-1.616-6.863-2.69-.799-1.075-.799-3.256 0-6.545z"/>
                        <path fill="#FDDFC7" d="M44.084 79.976c10.12-1.685 16.167-2.528 18.14-2.528 1.286 0 2.43 3.67 0 5.87-2.397 2.17-7.64 4.751-10.916 5.217-3.276.465-5.666-1.079-6.864-2.69-.798-1.075-.919-3.031-.36-5.87z"/>
                        <path fill="#1D354A" d="M86.586 75.074l4.19-3.93 5.448 4.216c-1.447 1.651-2.224 2.467-2.33 2.447-1.616-.306-4.052-1.217-7.308-2.733z" opacity=".5"/>
                        <path fill="#9BA9C1" fill-opacity=".5" d="M55.849 57.336c-5.064-1.063-6.764-2.996-8.521-4.562-3.776-3.366-3.573-6.344-3.184-6.722.57-.554 6.039 1.687 16.404 6.722l13.246-1.07 8.555 11.322 8.428 8.118-4.191 3.93c-3.62-1.406-5.983-2.533-7.091-3.383C71.4 65.484 69.069 58.08 69.069 57.336c0-.335-8.156 1.063-13.22 0z"/>
                        <path fill="#F2D2C0" d="M44.144 46.052c.487 1.977 1.052 3.265 1.693 3.863 4.356 4.059 10.368 4.731 15.806 3.601l6.138-.185 4.104.43c2.541 8.095 7.837 13.802 15.886 17.123 8.05 3.32 14.905 10.377 20.563 21.17l24.702-31.318C113.806 44.98 102.4 37.102 98.82 37.102l-8.059-2.55c-6.313-.945-11.373-.681-15.18.792l-10.802 2.958-4.826 1.638-7.005 2.585c-5.317-.02-8.251.29-8.803.932-.55.641-.55 1.506 0 2.595z"/>
                    </g>
                </g>
            </g>
        </g>
        <g transform="translate(2.029 8.855)">
            <mask id="peqh08ctoj" fill="#fff">
                <use xlink:href="#3gy099qafi"/>
            </mask>
            <g mask="url(#peqh08ctoj)">
                <g transform="translate(17.747 44.312)">
                    <mask id="ic338lcfll" fill="#fff">
                        <use xlink:href="#wx6c9dcngk"/>
                    </mask>
                    <use fill="#F2D2C0" xlink:href="#wx6c9dcngk"/>
                    <path fill="#E5C5B4" d="M43.348 39.646c-13.046-.963-21.26-.963-24.643 0-3.383.964-1.847 2.867 4.608 5.708l20.504 1.53 2.212 7.175 26.508 17.576 15.26 28.604 7.089 33.753 62.45-4.94c-10.444-13.111-16.72-20.769-18.823-22.972-7.48-7.833-16.007-9.068-18.76-12.474-4.012-4.96-14.368-12.857-16.117-15.379-4.916-7.09-14.152-9.52-15.84-11.838-4.148-5.698-7.813-9.808-10.995-12.33h10.995L76.801 43.181l-22.374-9.105-11.08 5.57z" mask="url(#ic338lcfll)"/>
                    <path fill="#CEAE9B" d="M13.88 38.97l1.322 4.707 36.38-2.262c1.25 4.131 4.534 6.585 9.85 7.361 5.315.777 11.878-.337 19.689-3.343L61.43 4.677V2.475L49.713-3.93 9.58 6.12 6.514 16.377l4.602 1.06-1.536 3.391H8.383L6.514 31.503l7.366 1.43v6.037z" mask="url(#ic338lcfll)"/>
                </g>
            </g>
            <g>
                <path fill="#3A8D99" fill-rule="nonzero" d="M15.666 96.847l2.957 6.362c3.616 7.852 11.136 15.352 20.418 20.181 10.15 5.28 21.552 7.019 32.596 4.419l.335-.08c4.798-1.168 9.777-1.62 15.29-1.501l.502.012c3.835.102 7.306.419 13.31 1.132l2.673.318c7.933.936 11.05 1.166 15.142 1 5.84-.237 10.586-1.585 14.71-4.428 2.518-1.736 4.07-4.634 4.989-8.908l.088-.42c.615-3.012.892-6.14 1.203-12.402l.162-3.308c.464-9.186.876-13.51 2-19.064l.038-.181.12-.577c1.173-5.515 3.19-10.5 6.344-16.424l.383-.711c.994-1.827 3.323-5.983 3.485-6.277l.218-.4c1.215-2.232 2.02-3.881 2.613-5.422 1.558-4.044 1.487-7.129-.551-9.91-2.602-3.551-6.252-6-11.019-7.65-3.687-1.275-7.72-2.022-13.539-2.667l-1.844-.196-4.4-.44c-4.645-.474-7.077-.808-9.708-1.379-3.804-.825-6.706-1.993-8.897-3.695-2.437-1.893-4.068-3.808-5.168-5.902l-.094-.18c-.672-1.307-1.019-2.322-1.59-4.477l-.29-1.115c-.676-2.562-1.183-3.847-2.242-5.283-1.418-1.924-3.626-3.516-7.026-4.935C82.523-.31 73.628.372 64.88 3.64c-7.922 2.957-14.27 7.553-15.692 11.483l-.041.118c-.656 1.943-2.131 3.181-5.357 4.868l-.549.283-1.428.725c-.417.212-.756.388-1.086.563l-.098.053c-3.404 1.819-5.566 3.56-7.098 6.128-1.906 3.197-2.515 7.412-1.646 13.043l.036.226c.897 5.595.597 9.62-.767 12.714-1.061 2.41-2.537 4.052-5.462 6.45l-1.846 1.494c-.287.234-.536.44-.782.647-3.578 3.01-5.784 5.785-7.38 9.974l-.257.679c-2.713 7.206-3.48 10.677-3.042 14.246.229 1.866.804 3.769 1.88 6.344l.231.547c.325.76.694 1.585 1.171 2.623zm8.514-34.585l1.713-1.386.326-.268c2.884-2.38 4.378-4.064 5.465-6.53 1.394-3.164 1.713-7.226.847-12.798l-.039-.243c-.9-5.619-.32-9.768 1.536-12.88 1.44-2.414 3.477-4.077 6.69-5.816l.183-.098c.357-.19.719-.379 1.175-.611l1.588-.806.077-.04c3.517-1.809 5.162-3.125 5.92-5.26l.034-.1C50.96 11.68 57.228 7.113 65.082 4.18 73.706.961 82.457.29 88.65 2.874l.37.157c3.098 1.34 5.113 2.824 6.412 4.587 1.005 1.362 1.491 2.594 2.15 5.092l.252.968c.63 2.396.992 3.445 1.767 4.92 1.14 2.17 2.825 4.148 5.326 6.09 2.224 1.728 5.128 2.913 8.893 3.753l.467.101c2.724.58 5.299.916 10.371 1.424l3.827.382.997.105.872.096c5.625.633 9.55 1.37 13.128 2.607 4.662 1.613 8.214 3.997 10.74 7.445 1.88 2.564 1.97 5.404.538 9.202l-.06.157c-.6 1.557-1.425 3.238-2.69 5.55l-.296.537c-.658 1.18-2.787 4.987-3.506 6.327-3.28 6.114-5.369 11.228-6.577 16.907-.041.193-.082.387-.121.582l-.11.545c-1.137 5.72-1.526 10.25-2.015 20.328l-.085 1.763c-.325 6.523-.611 9.626-1.28 12.733-.891 4.143-2.375 6.915-4.751 8.553-3.963 2.732-8.523 4.052-14.14 4.314l-.264.012c-3.965.16-7.02-.056-14.553-.938l-3.943-.468c-5.722-.671-9.102-.964-12.927-1.053l-.17-.004c-5.43-.117-10.353.316-15.1 1.436l-.338.082c-11.007 2.68-22.394.98-32.526-4.29-9.08-4.724-16.45-12.031-20.051-19.677l-2.687-5.774c-.746-1.61-1.25-2.732-1.685-3.763l-.172-.41c-1.002-2.428-1.54-4.233-1.755-5.99-.437-3.558.376-7.06 3.266-14.648 1.53-4.017 3.631-6.695 7.037-9.59l.174-.146c.234-.198.472-.395.744-.616z"/>
                <g transform="translate(0 12.789)">
                    <mask id="0n1d4uc82n" fill="#fff">
                        <use xlink:href="#suadfa390m"/>
                    </mask>
                    <use fill="#274763" xlink:href="#suadfa390m"/>
                    <path fill="#34638B" d="M8.307 23.48L37.763 1.378c2.483-1.863 5.981-1.504 8.034.824l52.811 59.9c2.078 2.357 1.965 5.924-.258 8.145l-25.506 25.48c-2.325 2.322-6.092 2.32-8.415-.005-.075-.075-.148-.152-.22-.232L7.45 32.213c-2.195-2.446-1.99-6.208.456-8.403.13-.116.263-.226.402-.33z" mask="url(#0n1d4uc82n)"/>
                    <path fill="#274763" d="M30.773 10.187c.43-.318 1.04-.232 1.362.193.308.406.241.975-.141 1.302l-.054.043L18.283 21.84c-.43.319-1.04.232-1.362-.192-.308-.407-.242-.975.14-1.303l.055-.043 13.657-10.115z" mask="url(#0n1d4uc82n)"/>
                    <mask id="ixycb6qr9p" fill="#fff">
                        <use xlink:href="#wl7d54plmo"/>
                    </mask>
                    <use fill="#C2C9D9" xlink:href="#wl7d54plmo"/>
                    <path fill="#EBECF3" d="M25.113 36.264l20.503-15.589c.802-.61 1.934-.521 2.632.206l21.537 22.442c.758.79.732 2.046-.058 2.804-.052.05-.107.097-.164.141l-20.37 15.675c-.8.617-1.937.532-2.638-.197l-21.67-22.528c-.76-.79-.736-2.045.054-2.805.055-.053.113-.103.174-.15z" mask="url(#ixycb6qr9p)"/>
                    <g mask="url(#ixycb6qr9p)">
                        <g>
                            <path fill="#71A34C" d="M.248 12.147c-.675 8.055 13.164 13.261 16.008 11.796 1.896-.976 4.94-4.323 9.132-10.04-1.707-9.7-4.75-14.315-9.132-13.848-2.582.275-3.089.318-6.901 4.038-2.44 2.38-8.431 0-9.107 8.054z" transform="translate(35.146 30.278)"/>
                            <path fill="#A47F58" d="M8.351 4.536c-.299.17-.565.17-.799 0-1.162-.845-2.56-2.08-3.033-2.08-.925 0-1.045-1.969.406-1.18.967.524 2.11 1.611 3.426 3.26z" transform="translate(35.146 30.278)"/>
                        </g>
                    </g>
                    <path fill="#C2C9D9" d="M44.084 69.562c9.46-2.179 14.915-6.215 16.364-12.11 2.173-8.841 5.187-17.961 10.11-20.163l27.949 29.957-29.275 28.056-25.148-25.74z" mask="url(#ixycb6qr9p)"/>
                    <path fill="#AEB8CD" d="M52.926 66.64L73.43 51.05c.802-.61 1.934-.52 2.632.206l21.537 22.442c.758.79.732 2.046-.058 2.805-.052.05-.107.097-.164.14L77.007 92.319c-.801.617-1.938.532-2.64-.196l-21.67-22.529c-.76-.79-.735-2.045.055-2.804.055-.054.113-.104.174-.15z" mask="url(#ixycb6qr9p)"/>
                </g>
            </g>
            <path fill="#FDDFC7" d="M19.39 67.743c8.878-2.267 13.984-2.767 15.317-1.497.671.64 1.5 3.99-.93 6.19-2.397 2.17-4.015 3.191-7.23 3.605-3.214.414-5.96-.141-7.157-1.753-.799-1.074-.799-3.256 0-6.545zM29.627 78.388c2.035-1.345 15.584-4.942 17.584-3.038.671.64 1.5 3.99-.93 6.19-1.598 1.446-5.026 3.258-10.284 5.435-3.777-.72-6.065-1.616-6.864-2.69-1.198-1.612-1.54-4.553.494-5.897z"/>
            <path fill="#FDDFC7" d="M36.44 84.633c11.14-2.716 17.378-3.44 18.71-2.17.672.639 1.5 3.99-.93 6.19-1.597 1.445-5.236 3.184-10.916 5.215-3.777-.719-6.065-1.615-6.863-2.69-.799-1.074-.799-3.256 0-6.545z"/>
            <path fill="#FDDFC7" d="M44.084 92.764c10.12-1.685 16.167-2.527 18.14-2.527 1.286 0 2.43 3.67 0 5.87-2.397 2.17-7.64 4.75-10.916 5.216-3.276.466-5.666-1.078-6.864-2.69-.798-1.074-.919-3.03-.36-5.869z"/>
            <path fill="#1D354A" d="M86.586 87.862l4.19-3.93 5.448 4.217c-1.447 1.65-2.224 2.466-2.33 2.446-1.616-.306-4.052-1.217-7.308-2.733z" opacity=".5"/>
            <path fill="#9BA9C1" fill-opacity=".5" d="M55.849 70.124c-5.064-1.062-6.764-2.995-8.521-4.561-3.776-3.366-3.573-6.344-3.184-6.722.57-.554 6.039 1.687 16.404 6.722l13.246-1.07 8.555 11.322 8.428 8.117-4.191 3.93c-3.62-1.405-5.983-2.533-7.091-3.382-8.094-6.208-10.426-13.612-10.426-14.356 0-.334-8.156 1.063-13.22 0z"/>
            <path fill="#F2D2C0" d="M44.144 58.84c.487 1.978 1.052 3.266 1.693 3.864 4.356 4.058 10.368 4.73 15.806 3.601l6.138-.185 4.104.43c2.541 8.095 7.837 13.802 15.886 17.122 8.05 3.321 14.905 10.378 20.563 21.171l24.702-31.318C113.806 57.769 102.4 49.89 98.82 49.89l-8.059-2.55c-6.313-.945-11.373-.682-15.18.791l-10.802 2.959-4.826 1.638-7.005 2.585c-5.317-.02-8.251.29-8.803.931-.55.642-.55 1.507 0 2.596z"/>
        </g>
        <g transform="translate(2.029 8.855) translate(25.785 8.859)">
            <ellipse cx="116.033" cy="15.391" fill="#BDDCE9" rx="4.959" ry="4.912"/>
            <ellipse cx="96.529" cy="7.859" fill="#CCE3EE" rx="7.934" ry="7.859"/>
            <circle cx="7.273" cy="107.843" r="7.273" fill="#CCE3EE"/>
            <ellipse cx="17.19" cy="123.025" fill="#CCE3EE" rx="2.645" ry="2.62"/>
        </g>
    </g>
</svg>
