<svg xmlns="http://www.w3.org/2000/svg" xmlns:xlink="http://www.w3.org/1999/xlink" width="48" height="32"><defs><path id="a" d="M.013.001h3.941v4.815H.013z"/><path id="c" d="M.006.001h4.071v4.815H.006z"/><path id="e" d="M.004.04H4.46v4.815H.004z"/><path id="g" d="M.008.04h4.457v4.815H.008z"/></defs><g fill="none" fill-rule="evenodd"><rect width="47" height="31" x=".5" y=".5" fill="#FFF" stroke="#8C8C8C" rx="1.977"/><path fill="#006FCF" d="M27.067 11v4.814h1.286V11zm-2.544 2.063h-1.348v-.97h1.348c.385 0 .577.227.577.489 0 .268-.192.48-.577.48m1.87-.508c0-.921-.66-1.554-1.72-1.554h-2.785v4.813h1.287v-1.684h.467l1.465 1.685h1.596l-1.596-1.74c.805-.172 1.286-.763 1.286-1.52"/><g transform="translate(29.02 10.998)"><mask id="b" fill="#fff"><use xlink:href="#a"/></mask><path fill="#006FCF" d="M1.3 2.45v-.09c0-.715.398-1.23 1.223-1.23h1.43V0h-1.54C.825 0 .013 1.018.013 2.36v.096c0 1.492.922 2.359 2.338 2.359h.44l.516-1.094h-.756c-.77 0-1.252-.433-1.252-1.272" mask="url(#b)"/></g><path fill="#006FCF" d="M5.883 13.778l.674-1.61.674 1.61H5.883zM5.746 11L3.62 15.813h1.416l.406-.976H7.67l.413.976h1.45L7.41 11H5.746zm7.152 3.033L11.798 11H9.776v4.814h1.266v-3.466l1.272 3.466h1.142l1.272-3.466v3.466h1.265V11h-2.001z"/><g transform="translate(16.97 10.998)"><mask id="d" fill="#fff"><use xlink:href="#c"/></mask><path fill="#006FCF" d="M.006 4.816h4.071V3.722H1.292v-.77h2.716V1.858H1.292v-.763h2.785V.001H.006z" mask="url(#d)"/></g><path fill="#006FCF" d="M34.674 13.778l.674-1.61.674 1.61h-1.347zM34.536 11l-2.125 4.813h1.417l.406-.976h2.228l.413.976h1.45L36.202 11h-1.666zm7.614 2.937L40.19 11h-1.623v4.814h1.279v-3.047l2.022 3.047h1.554V11H42.15z"/><g transform="translate(35.003 17.153)"><mask id="f" fill="#fff"><use xlink:href="#e"/></mask><path fill="#006FCF" d="M2.913 1.897H1.73c-.254 0-.44-.15-.44-.385 0-.227.186-.378.44-.378h2.14L4.37.04H1.723C.63.04.003.687.003 1.554c0 .907.606 1.437 1.548 1.437h1.183c.261 0 .44.151.44.385s-.179.385-.44.385H.155v1.094h2.586c1.08 0 1.72-.633 1.72-1.561 0-.88-.565-1.397-1.548-1.397" mask="url(#f)"/></g><path fill="#006FCF" d="M27.85 19.257h-1.348v-.97h1.348c.386 0 .578.228.578.489 0 .268-.192.48-.578.48m1.87-.508c0-.921-.66-1.554-1.72-1.554h-2.784v4.814h1.286v-1.685h.468l1.465 1.685h1.596l-1.596-1.74c.805-.172 1.286-.763 1.286-1.52m.674 3.26h4.072v-1.093H31.68v-.77h2.717V19.05H31.68v-.763h2.786v-1.094h-4.072zm-7.6-2.661h-1.382v-1.06h1.382c.386 0 .578.24.578.537 0 .289-.192.523-.578.523m.152-2.153h-2.82v4.814h1.286V20.44h1.492c1.087 0 1.76-.687 1.76-1.623 0-.963-.66-1.623-1.72-1.623"/><g transform="translate(39.727 17.153)"><mask id="h" fill="#fff"><use xlink:href="#g"/></mask><path fill="#006FCF" d="M2.917 1.897H1.734c-.254 0-.44-.15-.44-.385 0-.227.186-.378.44-.378h2.14l.5-1.094H1.727C.634.04.007.687.007 1.554c0 .907.606 1.437 1.548 1.437h1.183c.262 0 .44.151.44.385s-.178.385-.44.385H.16v1.094h2.586c1.08 0 1.72-.633 1.72-1.561 0-.88-.564-1.397-1.548-1.397" mask="url(#h)"/></g><path fill="#006FCF" d="M9.776 22.008h4.072v-1.093h-2.786v-.77h2.717V19.05h-2.717v-.763h2.786v-1.094H9.776zm10.117-4.814h-1.637l-1.252 1.45-1.251-1.45h-1.678l2.118 2.38-2.16 2.434h1.637l1.314-1.526 1.313 1.526h1.679l-2.174-2.462z"/></g></svg>