<svg xmlns="http://www.w3.org/2000/svg" xmlns:xlink="http://www.w3.org/1999/xlink" width="200" height="200"><defs><path id="a" d="M70 140c38.66 0 70-31.34 70-70S108.66 0 70 0 0 31.34 0 70s31.34 70 70 70z"/><linearGradient id="c" x1="50%" x2="50%" y1="0%" y2="100%"><stop offset="0%" stop-color="#F8F4F4"/><stop offset="100%" stop-color="#F8F3F3"/></linearGradient></defs><g fill="none" fill-rule="evenodd"><g transform="translate(30 36)"><mask id="b" fill="#fff"><use xlink:href="#a"/></mask><use fill="#E4E6E7" xlink:href="#a"/><g fill-rule="nonzero" mask="url(#b)"><path fill="#1C1C1C" d="M67.449 55.656c5.269.446 18.743-1.867 25.958 2.98 5.099 3.426 24.81 22.817 27.61 33.568 1.072 4.122 2.478 40.93-6.478 45.296-10.605 5.171-44.118 4.808-100.539-1.088 3.984-39.794 8.76-62.206 14.327-67.237 8.35-7.547 25.02-14.713 39.122-13.52z"/><path fill="url(#c)" d="M13.224 54.552c0-8.523 5.043-20.83 15.13-36.92l51.677 4.056c-10.51 9.528-16.418 19.434-17.724 29.718C61 61.69 59.835 73.128 58.81 85.72l-41.574-4.019c-2.675-9.576-4.013-18.626-4.013-27.149z" transform="translate(14 55)"/></g></g><g fill-rule="nonzero"><path fill="#B48546" d="M128.897 88.283c-9.019 12.092-18.635 17.876-28.85 17.353-12.258-.628-22.286-12.189-21.081-30.52.32-4.866 15.854-20.579 46.602-47.14 4.677 15.421 7.016 25.896 7.016 31.425s-1.23 15.156-3.687 28.882z"/><path fill="#F0C7A4" d="M85.068 123.685c10.475 1.41 20.946-1.653 31.624-14.722 4.584-5.61 4.926-9.107.7-17.69-1.48-3.005-2.083-9.489-1.81-19.452h-26.63c.8 6.268.566 12.38-.7 18.335-1.266 5.956-6.308 12.353-15.124 19.19.977 8.62 4.958 13.4 11.94 14.339z"/><path fill="#FFD4AF" d="M102.61 87.076c7.981 0 17.717-4.107 20.74-14.692 3.021-10.585 3.702-14.19 3.702-18.28V43.987c0-2.363.615-7.184 1.845-14.463l-11.096-16.046H94.5L74.933 54.105c3.294 13.06 6.672 21.136 10.135 24.227 5.196 4.637 9.56 8.744 17.542 8.744z"/><path fill="#E0BA9A" d="M106.394 48.786c-.486 3.985-.607 6.907-.364 8.766.242 1.859.854 3.706 1.833 5.54-1.695.886-3.459 1.328-5.29 1.328-1.833 0-3.6-.442-5.299-1.327.984 1.89 2.75 2.834 5.298 2.834s4.98-.945 7.298-2.834c-1.591-2.837-2.542-5.43-2.852-7.78a84.228 84.228 0 0 1-.624-6.527z"/><g transform="translate(88.397 47.426)"><ellipse cx="2.497" cy="2.492" fill="#1C1C1C" rx="2.497" ry="2.492"/><ellipse cx="3.606" cy="1.938" fill="#FFF" rx="1" ry="1"/></g><g transform="translate(112.253 47.98)"><ellipse cx="2.497" cy="2.492" fill="#1C1C1C" rx="2.497" ry="2.492"/><ellipse cx="3.606" cy="1.938" fill="#FFF" rx="1" ry="1"/></g><path fill="#B48546" d="M109.48 45.085c1.673-1.393 3.625-2.089 5.856-2.089s4.452.348 6.662 1.045c-1.8-.365-4.02-.19-6.662.522-2.641.713-4.593.887-5.857.522zm-13.085-.119c-1.572-1.506-3.47-2.337-5.696-2.493a22.048 22.048 0 0 0-6.718.578c1.82-.238 4.023.09 6.608.985 2.585.896 4.52 1.206 5.806.93z"/><path fill="#ED7676" d="M89.496 69.233c4.986 2.048 9.334 3.072 13.043 3.072 3.709 0 8.056-1.024 13.043-3.072-3.471 5.399-7.802 8.098-12.994 8.098-5.19 0-9.555-2.7-13.092-8.098z"/><path fill="#FFF" d="M88.952 68.988c3.574 1.869 9.162 2.247 13.033 2.247 3.89 0 9.554-.356 14.147-2.247-3.518 3.038-8.048 4.557-13.59 4.557s-10.072-1.519-13.59-4.557z"/><g><path fill="#D9AB6C" d="M112.808 8.95c6.23 0 20.763 9.241 21.96 34.824 1.196 25.582 1.656 48.954-4.788 62.622-6.443 13.667-14.442 15.422-19.946 24.098-3.67 5.784-6.253 10.818-7.751 15.103-3.718-14.54-2.059-27.606 4.977-39.201 10.555-17.393 21.258-33.027 19.528-55.076-.935-11.909-2.926-22.16-7.975-30.755-.433-.737-8.415 2.839-10.443.912-2.107-2.001 3.4-9.519 2.858-10.951-.362-.957-.002-1.577 1.58-1.577z"/><path fill="#D9AB6C" d="M109.986 8.149C95.68 6.918 76.055 11.973 70.99 47.253c-5.065 35.28-8.55 53.183-10.568 60.247-1.346 4.71-3.486 8.902-6.421 12.575 4.846.172 8.537-1.477 11.072-4.947-1.138 5.307-2.253 9.808-3.346 13.502-1.092 3.695-3.032 7.71-5.82 12.046 9.18-3.133 15.27-8.134 18.271-15.004 3.001-6.87 4.782-14.161 5.344-21.874l3.945 9.075c1.428-3.46 1.962-7.965 1.602-13.515-.539-8.324-3.303-15.168-2.346-34.83.638-13.106 1.42-20.586 2.346-22.44l36.269-22.669c-1.372-2.806-2.503-4.773-3.395-5.902-3.062-3.874-4.268-5.05-7.956-5.368z"/><path fill="#D9AB6C" d="M122.24 20.852c0 2.876-10.07 2.876-24.858 15.592-14.788 12.715-21.17 33.073-22.697 33.073-1.526 0-1.876-29.985 8.471-44.3 4.701-6.502 10.359-12.376 20.377-13.673 11.785-1.526 18.707 6.431 18.707 9.308z"/><path fill="#E7BC80" d="M115.085 18.313c-8.109 2.992-15.63 7.468-22.562 13.43C85.59 37.702 80.27 45.455 76.563 55c.091-12.737 2.562-22.461 7.414-29.172 3.305-4.573 10.126-10.396 17.17-11.308 5.525-.716 10.171.549 13.938 3.793zM64.656 126.72c1.78-5.335 3.221-12.136 4.323-20.402 1.103-8.267 1.662-16.008 1.677-23.225 3.548 10.232 4.716 18.377 3.502 24.433-1.214 6.056-4.381 12.454-9.502 19.193zm40.843-10.023c3.183-7.217 6.646-13.24 10.389-18.072 3.742-4.83 7.426-10.915 11.05-18.251-.304 8.621-2.907 16.12-7.807 22.497-4.9 6.377-9.444 10.986-13.632 13.826z"/></g></g></g></svg>