<svg xmlns="http://www.w3.org/2000/svg" xmlns:xlink="http://www.w3.org/1999/xlink" width="200" height="200"><defs><path id="a" d="M70 140c38.66 0 70-31.34 70-70S108.66 0 70 0 0 31.34 0 70s31.34 70 70 70z"/></defs><g fill="none" fill-rule="evenodd"><g transform="translate(30 36)"><mask id="b" fill="#fff"><use xlink:href="#a"/></mask><use fill="#E4E6E7" xlink:href="#a"/><path fill="#1C4C6E" fill-rule="nonzero" d="M103.38 80.512c-1.292 10.42-2.13 18.708-2.516 24.865-.62 9.9-.882 24.752-.789 44.553h2-62.488c.557-19.384.475-33.922-.246-43.614-.512-6.883-1.79-16.37-3.834-28.459a47.323 47.323 0 0 0-.16 3.911v57.538H23.912l-2.54-61.855c0-19.602 11.764-31.173 23.144-31.173h50.711c11.38 0 23.144 11.571 23.144 31.173l-.885 21.571-14.002-1.913-.09-15.338c0-.425-.005-.845-.013-1.26z" mask="url(#b)"/><path fill="#FFF" fill-rule="nonzero" d="M53.181 46.13l15.24 23.788L83.505 46.13H53.181" mask="url(#b)"/><path fill="#FFF" fill-rule="nonzero" d="M53.181 37.65h30.667v12.434H53.181z" mask="url(#b)"/><path fill="#143E5D" fill-rule="nonzero" d="M83.466 37.899c2.55-6.246 9.68 7.021 10.028 8.801C87.39 48.44 68.42 69.918 68.42 69.918s15.047-24.264 15.047-32.02m-30.089 0c-2.553-6.245-9.683 7.022-10.028 8.802 6.103 1.74 25.07 23.218 25.07 23.218s-15.042-24.264-15.042-32.02" mask="url(#b)"/></g><path fill="#FFD4AF" d="M150.307 69.092a.856.856 0 0 0 1.116-.445l5.203-12.013a1.403 1.403 0 0 1 1.836-.73 1.385 1.385 0 0 1 .73 1.825l-3.468 8.01a.838.838 0 0 0 .44 1.106.848.848 0 0 0 1.115-.443l4.585-10.558a1.4 1.4 0 0 1 1.833-.732 1.382 1.382 0 0 1 .729 1.827l-4.512 10.422a.838.838 0 0 0 .44 1.106.851.851 0 0 0 1.117-.443l4.141-9.64a1.403 1.403 0 0 1 1.836-.73 1.38 1.38 0 0 1 .73 1.825l-4.171 9.63a.838.838 0 0 0 .444 1.106.853.853 0 0 0 1.115-.443l2.773-6.402a1.4 1.4 0 0 1 1.834-.73c.707.302.857 1.066.728 1.825-.036.208-2.496 5.766-3.619 8.353-1.12 2.586-2.644 7.015-6.657 9.003l-8.478 19.58-4.349-12.816 2.309-9.236c-2.023-2.431-2.577-5.654-3.055-7.558-.48-1.909-2.308-8.45-2.308-8.45a1.773 1.773 0 0 1 .175-1.343 1.76 1.76 0 0 1 1.071-.822c.937-.261 1.91.29 2.172 1.232l1.705 6.244s.25.359.437.441"/><path fill="#1C4C6E" fill-rule="nonzero" d="M143.338 140.146a7.244 7.244 0 0 1-4.706.09 7.18 7.18 0 0 1-4.611-4.548 7.152 7.152 0 0 1-.016-4.52l14.962-50.762 11.896 3.569-13.11 51.619a7.243 7.243 0 0 1-4.417 4.553l.002-.001z"/><path fill="#FFD4AF" fill-rule="nonzero" d="M72.01 57.013c-3.399 0-6.155-3.037-6.155-6.778 0-3.745 2.756-6.777 6.154-6.777 3.396 0 6.152 3.032 6.152 6.777 0 3.741-2.754 6.778-6.152 6.778zm52.824 0c-3.396 0-6.152-3.037-6.152-6.778 0-3.745 2.754-6.777 6.152-6.777s6.152 3.032 6.152 6.777c0 3.741-2.754 6.778-6.152 6.778z"/><path fill="#F0C7A4" fill-rule="nonzero" d="M98.42 92.295c-3.582 0-9.962-8.851-9.962-8.851l.021-8.2h19.885l.02 8.2s-6.384 8.85-9.965 8.85z"/><path fill="#FFD4AF" fill-rule="nonzero" d="M98.87 80c10.131 0 24.5-8.125 24.5-21.982l1-17.298h-2.733l-5.655-24.613-36.67 5.807-5.942 17.26 2 18.844C75.37 71.875 88.74 80 98.87 80z"/><path fill="#000100" fill-rule="nonzero" d="M90.043 44.056c0 1.597-.938 2.894-2.096 2.894-1.155 0-2.093-1.297-2.093-2.894 0-1.595.938-2.892 2.093-2.892 1.158 0 2.094 1.297 2.094 2.892m19.919 0c0 1.597-.936 2.894-2.096 2.894-1.153 0-2.093-1.297-2.093-2.894 0-1.595.94-2.892 2.093-2.892 1.16 0 2.096 1.297 2.096 2.892"/><path fill="#1C1C1C" d="M84.956 43.04c-.231-.172-.502-.558-.811-1.159.599.444 1.255.56 1.97.347 1.765-.525 2.844 1.146 1.795 1.333-1.048.186-1.158.81-2.954-.521zm26.43 0c.231-.172.501-.558.811-1.159-.599.444-1.255.56-1.97.347-1.765-.525-2.844 1.146-1.796 1.333 1.049.186 1.159.81 2.955-.521z"/><path fill="#FFF" fill-rule="nonzero" d="M89.499 42.998a1.006 1.006 0 0 1-2.012 0 1.006 1.006 0 0 1 2.01 0m19.86-.03a.976.976 0 0 1-.977.97.968.968 0 0 1-.688-.282.978.978 0 0 1-.288-.688.978.978 0 0 1 1.953 0"/><g fill-rule="nonzero"><path fill="#FFF" d="M112.072 63.895c.295-.472.573-.959.83-1.464.413-.8-.405-.895-1.144-.429-10.71 6.757-21.051 2.624-25.67.046-1.602-.893-1.85-.405-1.437.402.23.442.47.875.73 1.295 4.224 2.521 15.273 7.576 26.689.15"/><path fill="#ED7676" d="M112.207 63.69c-2.946 4.839-7.862 8.01-13.433 8.01-5.646 0-10.618-3.256-13.55-8.203-.657-1.113-.53-1.659 1.41-.627 4.543 2.412 13.563 5.705 23.152.783 1.39-.713 3.119-1.105 2.421.037"/><path fill="#FFF" d="M112.072 63.895c.295-.472.573-.959.83-1.464.413-.8-.405-.895-1.144-.429-10.71 6.757-21.051 2.624-25.67.046-1.602-.893-1.85-.405-1.437.402.23.442.47.875.73 1.295 4.224 2.521 15.273 7.576 26.689.15"/></g><path fill="#5E382C" fill-rule="nonzero" d="M82.79 37.984a.495.495 0 0 1-.23-.054c-.119-.06-.19-.165-.19-.277 0-1.125 1.846-1.653 5.758-2.01 3.684 0 4.95.357 4.485 1.905-.116.295-.252.44-.408.436a.532.532 0 0 1-.162-.023 15.823 15.823 0 0 0-4.143-.559c-1.341 0-3.848.188-4.945.556m30.502.026a.495.495 0 0 0 .23-.054c.119-.06.19-.165.19-.277 0-1.125-1.846-1.653-5.758-2.01-3.684 0-4.95.357-4.485 1.905.116.295.252.44.408.436.056 0 .11-.007.162-.023a15.823 15.823 0 0 1 4.143-.559c1.341 0 3.848.188 4.945.556"/><path fill="#E0BA9A" fill-rule="nonzero" d="M98.062 41.69h-.035c-.11.011-.204.152-.213.31-.03.543-.019 3.51.232 6.331.29 3.248 1.16 4.888 1.16 4.888-.16.093-.616.34-1.613.34-.101 0-.202-.003-.303-.007-.436-.02-1.133-.312-1.677-.498-.102-.034-.209.021-.268.139a.43.43 0 0 0 .007.384c.685 1.22 1.673 1.841 2.936 1.841 1.521 0 2.887-.912 2.945-.95a.342.342 0 0 0 .134-.241.411.411 0 0 0-.068-.288c-2.866-3.92-2.983-11.841-2.985-11.921-.002-.18-.11-.326-.244-.328h-.008"/><g fill="#1C1C1C" fill-rule="nonzero"><path d="M95.335 44.245c.909-.495 1.828-.745 2.754-.745.869 0 1.733.22 2.589.658.652-4.59 3.203-6.658 9.322-6.658 7.263 0 9.5 2.915 9.5 9.5a9.5 9.5 0 0 1-19 0c0-.62.02-1.209.062-1.765-.835-.493-1.658-.735-2.473-.735-.871 0-1.75.276-2.643.838.036.526.054 1.08.054 1.662a9.5 9.5 0 0 1-19 0c0-6.585 2.237-9.5 9.5-9.5 6.157 0 8.702 2.095 9.335 6.745zM110 55.5a8.5 8.5 0 0 0 8.5-8.5c0-6.082-1.856-8.5-8.5-8.5s-8.5 2.418-8.5 8.5a8.5 8.5 0 0 0 8.5 8.5zm-24 0a8.5 8.5 0 0 0 8.5-8.5c0-6.082-1.856-8.5-8.5-8.5s-8.5 2.418-8.5 8.5a8.5 8.5 0 0 0 8.5 8.5z"/><path d="M118.098 45.081l-.18-.983 11.984-2.18.18.984z"/></g><path fill="#5E392D" fill-rule="nonzero" d="M94 21.815c2.512 0 7.18-.157 10 0 2.82.158 5-2.802 5-2.802s7.719 12.85 9.983 20.987c1.83 6.577 2.216 5.589 5.017 7 0 0-.003 11.997-5.017 18.945-5.015 6.947-11.124 11.685-11.124 11.685s1.183 15 6.51 18.79c5.328 3.79 2.107 6.422 4.614 6.58L122 113c4 1 7.776-9.684 6-12-1.776-2.316 3.526-7.42 4.174-9 .647-1.58 2.473-8.684-1.353-11.947-3.826-3.264-1.365-14.108 0-21.053 1.366-6.945 0-9 1.353-23 0-8-5.563-21.65-11.174-25-4.132-2.467-7.63-2-10.086-2 1.47-1-2.528-6-13.998-6C85.446 3 82.967 5.317 81 7c-5.298 4.533-9.638 10.724-11.566 19-2.82 12.105-4.507 17-4.507 27S70 75.053 70 80.053s-1.791 1.894 0 9.684c.618 2.689-.828 6.113-.566 8.263.496 4.078 2.36 6.035 2.566 7 .313 1.474-1 2 0 8 0 0 11.896.737 12-6 .522-.42 3-4 4.326-9 .48-1.815.358-2.309.674-3 .555-1.213-.674-3 1-7 2.573-6.148-1.779-10.263-1.779-10.263s-11.803-7.58-13.266-22.632c0 0-.209-1.105-1.253-7.105 0 0 2.704 1.45 7.298-12 1.15-3.368 1.685-14.185 13-14.185z"/><path fill="#6E4C42" d="M78.69 16.933c3.727-1.356-1.739 2.206.545 1.496 2.28-.71 7.567-4.81 12.69-4.014 5.122.797-8.748 3.91-12.451 7.918-3.702 4.008-1.18-2.95-6.709 1.353 0 0 2.198-5.396 5.926-6.753zm-.512 70.519c-1.356 3.726-.572-2.75-1.496-.544-.922 2.203 3.36 9.228-5.081 12.3 1.348-3.572 2.628-9.214 1.937-14.627-.691-5.412 3.02.993 3.276-6.009 0 0 2.72 5.152 1.364 8.88zM127.94 64.61c-1.881 5.17-.255-3.62-1.495-.544-1.24 3.072 2.362 11.968-6.844 17.142 1.854-4.962 3.894-12.693 3.847-19.873-.049-7.178 3.032.956 4.172-8.473 0 0 2.203 6.575.32 11.748z"/></g></svg>