<svg xmlns="http://www.w3.org/2000/svg" xmlns:xlink="http://www.w3.org/1999/xlink" width="200" height="200"><defs><path id="a" d="M70 140c38.66 0 70-31.34 70-70S108.66 0 70 0 0 31.34 0 70s31.34 70 70 70z"/><path id="c" d="M1.09 1.047C.667.087.748-.446 2.552.569c2.999 1.686 7.352 3.619 12.902 3.619 5.376 0 9.3-.79 13.265-3.674.76-.553 1.587-.44 1.167.51C29.631 1.61 25.892 12 15.611 12 5.329 12 1.323 1.573 1.089 1.047z"/></defs><g fill="none" fill-rule="evenodd"><g transform="translate(30 36)"><mask id="b" fill="#fff"><use xlink:href="#a"/></mask><use fill="#E4E6E7" xlink:href="#a"/><g fill-rule="nonzero" mask="url(#b)"><g fill="#FFD4AF"><path d="M17.793 156.747v-40.126h10.502l-.058 20.523c0 6.824.527 7.636 1.944 9.573 1.414 1.937 1.062 5.455 1.237 8.095.18 2.641 3.716 6.51 1.949 7.04-1.772.528-3.363-1.936-3.972-3.695-.607-1.76-2.4-4.4-3.462-3.872-.751.375-2.025 4.104-.716 7.312.418 1.025-3.377-4.52-2.707-3.853"/><path d="M32.461 162.573a1.808 1.808 0 0 1-1.47-.75c-.32-.44-3.116-4.393-3.116-7.405l.005-.469c.012-2.267.026-4.838-2.89-8.637a1.788 1.788 0 0 1-.373-1.09v-8.997c0-.994.812-1.8 1.811-1.8 1 0 1.809.806 1.809 1.8v8.4c3.293 4.522 3.274 7.874 3.26 10.346l-.002.445c0 1.468 1.64 4.21 2.434 5.307a1.791 1.791 0 0 1-.413 2.51c-.308.221-.676.34-1.055.34"/></g><path fill="#1D97E2" d="M104.818 89.768l-4.971 49.538 15.678.694c3.76-23.723 5.338-41.409 4.735-53.056-.904-17.472-6.138-36.744-18.793-38.392-12.656-1.648-16.235-3.387-33.176-3.387-17.584 0-24.125 2.607-35.773 4.387C20.87 51.332 15.54 67.81 15.54 86.944c0 12.755 1.744 30.44 5.231 53.056l16.747-.694-5-49.538c0-13.977 3.76-30.537 7.442-30.537h57.765c3.683.002 7.093 16.558 7.093 30.537z"/><path fill="#1D97E2" d="M104.802 150.93H32.909l-3.617-84.58c0-10.334 10.829-18.71 19.73-18.71H88.69c8.899 0 19.73 8.376 19.73 18.71l-3.617 84.58"/><path fill="#EFC29C" d="M57.48 40.19v-.945h20.884l.372 1.82a5 5 0 0 0 3.659 3.841l8.024 2.055C89.238 57.28 77.693 63.029 68.595 63.029S46.882 57.28 45.7 46.961l7.947-1.91a5 5 0 0 0 3.832-4.861z"/></g></g><g transform="translate(67.37 .107)"><g fill="#D9AB6C" fill-rule="nonzero"><path d="M52.655 57.438c.286 5.437 2.953 10.812 8.002 16.125-5.279-2.514-8.618-4.608-10.018-6.284-2.1-2.514 1.588-17.997 2.016-9.841z"/><path d="M47.647 57.512c.564 2.677 3.393 8.164 8.487 16.46-4.64-3.557-7.471-6.3-8.492-8.23-1.532-2.896-.84-12.245.005-8.23z"/></g><path fill="#FFD4AF" fill-rule="nonzero" d="M5.446 53.001c1.35 14.586 11.016 26.267 25.603 26.267 14.589 0 23.583-10.218 25.479-25.397l.935-18.98h-2.83l-5.86-12.531-37.983-1.92-6.155 12.834c-.359 3.428-.089 10.004.81 19.728z"/><path fill="#FFD4AF" fill-rule="nonzero" d="M11.526 47.129c0 3.74-2.58 6.777-5.762 6.777C2.581 53.906 0 50.87 0 47.13c0-3.746 2.581-6.778 5.764-6.778 3.18 0 5.762 3.032 5.762 6.778m49.474 0c0 3.74-2.58 6.777-5.762 6.777-3.18 0-5.762-3.037-5.762-6.777 0-3.746 2.58-6.778 5.762-6.778 3.183 0 5.762 3.032 5.762 6.778"/><g fill-rule="nonzero"><path fill="#000100" d="M21.672 43.949c0 1.597-.938 2.894-2.095 2.894-1.156 0-2.094-1.297-2.094-2.894 0-1.595.938-2.892 2.094-2.892 1.157 0 2.093 1.297 2.093 2.892"/><path fill="#FFF" d="M21.129 42.891a1.006 1.006 0 0 1-2.012 0 1.006 1.006 0 0 1 2.01 0"/></g><g fill-rule="nonzero"><path fill="#000100" d="M42.59 43.949c0 1.597-.936 2.894-2.096 2.894-1.153 0-2.094-1.297-2.094-2.894 0-1.595.94-2.892 2.094-2.892 1.16 0 2.096 1.297 2.096 2.892"/><path fill="#FFF" d="M41.987 42.86a.976.976 0 0 1-.977.972.968.968 0 0 1-.688-.283.978.978 0 0 1-.288-.688.978.978 0 0 1 1.953 0"/></g><ellipse cx="30.63" cy="10.393" fill="#D9AB6C" fill-rule="nonzero" rx="12" ry="9.5"/><path fill="#D9AB6C" fill-rule="nonzero" d="M5.468 53.28c-.664-12.229.357-19.481 3.066-21.758 5.315 2.816 25.423 2.899 37.593-8.856 1.054 2.506 10.907 17.702 10.634 29.402 0 0 2.47-10.974 2.47-17.764 0-6.79-1.542-15.138-6.177-19.027-4.634-3.89-8.846-7.688-21.553-7.688S8.17 13.193 4.622 20.306c-4.359 8.74-2.13 10.574-2.13 17.021 0 4.298.992 9.616 2.976 15.953z"/><path fill="#ECC38A" fill-rule="nonzero" d="M26.103 10.243c-6.362 0-12.633 6.837-12.633 6.837 1.769-.563 3.036-.788 3.956-.788 1.797 0 2.264.858 2.537 1.716.266.84.35 1.677 1.314 1.72h.154c.6-.024 1.498-.32 2.894-1.028 7.78-3.958 30.396-1.079 23.112-5.04-2.794-1.515-6.017-1.974-9.149-1.974-2.404 0-4.751.27-6.805.54-2.054.274-3.816.543-5.046.543-.117 0-.226 0-.334-.007-3.83-.18 6.365-2.519 0-2.519"/><path fill="#C99A5A" fill-rule="nonzero" d="M37.287 37.877a.32.32 0 0 1-.182-.054.329.329 0 0 1-.152-.277c0-1.125 1.56-2.01 3.548-2.01 1.928 0 3.45.828 3.545 1.905l.016.105a.33.33 0 0 1-.34.331.325.325 0 0 1-.127-.023c-.014-.005-1.458-.558-3.274-.558-1.06 0-2.037.187-2.903.555l-.131.026m-19.784 0a.329.329 0 0 1-.331-.33c0-1.126 1.558-2.01 3.547-2.01 1.923 0 3.445.827 3.543 1.904l.018.105a.33.33 0 0 1-.34.331.34.34 0 0 1-.129-.023 10.057 10.057 0 0 0-3.272-.558c-1.06 0-2.04.187-2.905.555l-.131.026"/><path fill="#E0BA9A" fill-rule="nonzero" d="M31.627 41.583h-.046c-.147.011-.273.152-.285.31-.04.543-.026 3.51.31 6.331.39 3.248 1.555 4.888 1.555 4.888-.215.093-.826.34-2.161.34-.136 0-.271-.003-.406-.007-.584-.02-1.517-.312-2.246-.498a.335.335 0 0 0-.35.523c.917 1.22 2.24 1.841 3.933 1.841 2.037 0 3.867-.912 3.944-.95a.335.335 0 0 0 .18-.24.334.334 0 0 0-.091-.29c-3.84-3.918-3.996-11.84-3.998-11.92a.332.332 0 0 0-.327-.328h-.012"/><g transform="translate(16 61)"><mask id="d" fill="#fff"><use xlink:href="#c"/></mask><use fill="#E58787" fill-rule="nonzero" xlink:href="#c"/><path fill="#FFF" fill-rule="nonzero" d="M28.72.05L2.553.107c2.231 4.734 6.532 7.101 12.902 7.101 6.37 0 10.791-2.386 13.265-7.16z" mask="url(#d)"/></g></g><path fill="#285F86" d="M99.833 110.417a1.416 1.416 0 1 1-2.832 0 1.416 1.416 0 0 1 2.832 0m0-6a1.416 1.416 0 1 1-2.832 0 1.416 1.416 0 0 1 2.832 0"/></g></svg>