<svg xmlns="http://www.w3.org/2000/svg" width="135" height="40"><defs><linearGradient id="a" x1="61.045%" x2="26.513%" y1="4.946%" y2="71.879%"><stop offset="0%" stop-color="#00A0FF"/><stop offset="1%" stop-color="#00A1FF"/><stop offset="26%" stop-color="#00BEFF"/><stop offset="51%" stop-color="#00D2FF"/><stop offset="76%" stop-color="#00DFFF"/><stop offset="100%" stop-color="#00E3FF"/></linearGradient><linearGradient id="b" x1="107.685%" x2="-130.64%" y1="50%" y2="50%"><stop offset="0%" stop-color="#FFE000"/><stop offset="41%" stop-color="#FFBD00"/><stop offset="78%" stop-color="orange"/><stop offset="100%" stop-color="#FF9C00"/></linearGradient><linearGradient id="c" x1="86.271%" x2="-50.18%" y1="30.873%" y2="136.109%"><stop offset="0%" stop-color="#FF3A44"/><stop offset="100%" stop-color="#C31162"/></linearGradient><linearGradient id="d" x1="-18.825%" x2="42.086%" y1="-11.91%" y2="35.079%"><stop offset="0%" stop-color="#32A071"/><stop offset="7%" stop-color="#2DA771"/><stop offset="48%" stop-color="#15CF74"/><stop offset="80%" stop-color="#06E775"/><stop offset="100%" stop-color="#00F076"/></linearGradient></defs><g fill="none" fill-rule="evenodd"><rect width="135" height="40" fill="#000" rx="5"/><path fill="#A6A6A6" fill-rule="nonzero" d="M130 .8a4.2 4.2 0 014.2 4.2v30a4.2 4.2 0 01-4.2 4.2H5A4.2 4.2 0 01.8 35V5A4.2 4.2 0 015 .8h125zm0-.8H5a5 5 0 00-5 5v30a5 5 0 005 5h125a5 5 0 005-5V5a5 5 0 00-5-5z"/><path fill="#FFF" fill-rule="nonzero" d="M68.14 21.75A4.26 4.26 0 1072.41 26a4.188 4.188 0 00-4.27-4.25zm0 6.83a2.58 2.58 0 112.4-2.58 2.457 2.457 0 01-2.4 2.58zm-9.32-6.83A4.26 4.26 0 1063.09 26a4.188 4.188 0 00-4.27-4.25zm0 6.83a2.58 2.58 0 112.4-2.58 2.457 2.457 0 01-2.4 2.58zm-11.08-5.52v1.8h4.32a3.77 3.77 0 01-1 2.27 4.417 4.417 0 01-3.34 1.32 4.8 4.8 0 110-9.6A4.64 4.64 0 0151 20.14l1.27-1.27a6.303 6.303 0 00-4.53-1.82 6.61 6.61 0 100 13.21 6.066 6.066 0 004.61-1.85 5.998 5.998 0 001.56-4.23 6.276 6.276 0 00-.09-1.12h-6.08zm45.31 1.4a4.001 4.001 0 00-3.64-2.71 3.994 3.994 0 00-2.92 1.259A3.996 3.996 0 0085.41 26a4.23 4.23 0 007.76 2.37l-1.45-1a2.41 2.41 0 01-2.09 1.17 2.15 2.15 0 01-2.06-1.29l5.69-2.35-.21-.44zm-5.8 1.42a2.341 2.341 0 012.23-2.49 1.64 1.64 0 011.57.91l-3.8 1.58zM82.63 30h1.87V17.5h-1.87V30zm-3.06-7.3h-.07a2.938 2.938 0 00-2.24-1 4.26 4.26 0 000 8.51c.858.017 1.68-.35 2.24-1h.07v.61c0 1.63-.87 2.5-2.27 2.5a2.36 2.36 0 01-2.15-1.51l-1.62.67A4 4 0 0077.3 34c2.19 0 4-1.29 4-4.43V22h-1.73v.7zm-2.15 5.88a2.58 2.58 0 010-5.15A2.39 2.39 0 0179.7 26a2.38 2.38 0 01-2.28 2.58zm24.39-11.08h-4.48V30h1.87v-4.74h2.61a3.89 3.89 0 100-7.76zm0 6H99.2v-4.26h2.65a2.139 2.139 0 110 4.28l-.04-.02zm11.54-1.79a3.49 3.49 0 00-3.33 1.91l1.65.69a1.78 1.78 0 011.71-.91 1.8 1.8 0 012 1.61v.12a4.188 4.188 0 00-1.95-.48c-1.78 0-3.6 1-3.6 2.82a2.894 2.894 0 003.11 2.75 2.65 2.65 0 002.38-1.22h.06v1h1.8v-4.81c0-2.19-1.66-3.46-3.79-3.46l-.04-.02zm-.23 6.85c-.61 0-1.46-.31-1.46-1.06 0-1 1.06-1.34 2-1.34a3.313 3.313 0 011.7.42 2.26 2.26 0 01-2.2 2l-.04-.02zM123.74 22l-2.14 5.42h-.06L119.32 22h-2l3.33 7.58-1.9 4.21h1.95L125.82 22h-2.08zm-16.8 8h1.86V17.5h-1.86V30z"/><path fill="url(#a)" d="M10.44 7.54c-.33.39-.498.89-.47 1.4v22.12a1.94 1.94 0 00.47 1.4l.07.08L22.9 20.15v-.3L10.51 7.47l-.07.07z"/><path fill="url(#b)" d="M27 24.28l-4.1-4.13v-.3l4.1-4.13.09.06L32 18.56c1.4.79 1.4 2.09 0 2.89l-4.89 2.78-.11.05z"/><path fill="url(#c)" d="M27.12 24.22L22.9 20 10.44 32.46a1.62 1.62 0 002.07.07l14.61-8.31"/><path fill="url(#d)" d="M27.12 15.78l-14.61-8.3a1.61 1.61 0 00-2.07.06L22.9 20l4.22-4.22z"/><path fill="#000" d="M27 24.13l-14.49 8.25a1.659 1.659 0 01-2 0l-.07.07.07.08a1.659 1.659 0 002 0l14.61-8.31-.12-.09z" opacity=".2"/><path fill="#000" d="M10.44 32.32a2 2 0 01-.44-1.41v.15a1.94 1.94 0 00.47 1.4l.07-.07-.1-.07zM32 21.3l-5 2.83.09.09L32 21.44c.59-.25.997-.802 1.06-1.44A1.86 1.86 0 0132 21.3z" opacity=".12"/><path fill="#FFF" d="M12.51 7.62L32 18.7c.54.24.933.723 1.06 1.3A1.751 1.751 0 0032 18.56L12.51 7.48c-1.39-.8-2.54-.14-2.54 1.46v.15c.03-1.6 1.15-2.26 2.54-1.47z" opacity=".25"/><path fill="#FFF" stroke="#FFF" stroke-width=".2" d="M43 13.13a1.72 1.72 0 01-1.11-.36 2.002 2.002 0 01-.66-1l.71-.29a1.1 1.1 0 001.06.92.997.997 0 00.83-.35 1.45 1.45 0 00.29-.94V7h.77v4.09a1.997 1.997 0 01-.54 1.51c-.36.352-.847.543-1.35.53zm6.71-5.39H47v1.9h2.47v.72H47v1.9h2.74V13H46.2V7h3.51zM53 13h-.77V7.74h-1.72V7h4.12v.74H53zm2.27 0v-.8l3.19-4.46H55.4V7h4v.8l-3.19 4.46h3.22V13zm7.27 0h-.77V7.74H60.1V7h4.12v.74h-1.68z"/><path fill="#FFF" fill-rule="nonzero" stroke="#FFF" stroke-width=".2" d="M67.2 13V7h2.17a1.8 1.8 0 011.22.46c.338.294.529.722.52 1.17.007.27-.07.535-.22.76a1.414 1.414 0 01-.59.49h0c.289.099.542.28.73.52a1.4 1.4 0 01.28.85c.01.467-.188.914-.54 1.22a1.828 1.828 0 01-1.28.49L67.2 13zm.8-3.43h1.39a.859.859 0 00.7-.29.897.897 0 00.27-.63.934.934 0 00-.26-.63.848.848 0 00-.67-.28H68v1.83zm0 2.69h1.55a.916.916 0 00.72-.31.993.993 0 00.27-.68 1 1 0 00-.28-.67 1 1 0 00-.75-.31H68v1.97z"/><path fill="#FFF" stroke="#FFF" stroke-width=".2" d="M75.85 7.74h-2.73v1.9h2.46v.72h-2.46v1.9h2.73V13h-3.5V7h3.5zM77.06 13V7h.77v6z"/></g></svg>