<svg width="24" height="24" viewBox="0 0 24 24" fill="none" xmlns="http://www.w3.org/2000/svg">
<g id="icon-leaf-24">
<path id="Shape" fill-rule="evenodd" clip-rule="evenodd" d="M17.7259 5.1052C17.1921 5.1239 14.8264 5.20676 14.0003 5.27644C7.95169 5.78668 4.7832 8.53081 5.28617 15.4431L5.20501 15.5444C4.7763 16.0946 4.35832 16.7854 3.93048 17.6785C3.75151 18.052 3.90926 18.5 4.28282 18.6789C4.65638 18.8579 5.10429 18.7001 5.28325 18.3266C5.70223 17.452 6.09569 16.8185 6.48663 16.3444C11.4369 17.4083 14.9495 15.7662 17.1331 12.2499C18.2065 10.5212 18.8317 8.55947 19.1351 6.67761C19.1953 6.30368 19.2276 6.02467 19.2401 5.8638C19.2761 5.40035 18.8861 5.01612 18.4233 5.05893C18.2454 5.07538 18.0509 5.08927 17.8335 5.10135C17.8298 5.10156 17.7918 5.10289 17.7259 5.1052ZM14.1263 6.77114C14.8458 6.71044 16.8674 6.63681 17.6257 6.60965C17.3413 8.26018 16.7797 9.97543 15.8588 11.4586C14.1721 14.1748 11.6362 15.5433 7.95748 15.0769L7.94211 15.0744L7.67057 15.389C9.41634 13.331 11.1164 11.9585 12.7588 11.2616C13.1401 11.0998 13.318 10.6595 13.1562 10.2782C12.9944 9.89689 12.5541 9.71896 12.1728 9.88077C10.3617 10.6494 8.55456 12.0819 6.73364 14.1714C6.69417 9.07381 9.17661 7.18868 14.1263 6.77114Z" fill="#1C1C1C"/>
</g>
</svg>
