<svg width="24" height="24" viewBox="0 0 24 24" fill="none" xmlns="http://www.w3.org/2000/svg">
<g id="icon-bottles-24">
<path id="Shape" fill-rule="evenodd" clip-rule="evenodd" d="M12.5659 7.11297L12.986 5.91264C12.9953 5.8861 13 5.85818 13 5.83005V5C13 4.0335 13.7835 3.25 14.75 3.25H16.29C17.2344 3.25 18 4.01559 18 4.95999V5.75257C18 5.78028 18.0046 5.80779 18.0136 5.83399L19.6546 10.5974C19.7178 10.7808 19.75 10.9734 19.75 11.1674V18C19.75 19.5188 18.5188 20.75 17 20.75H14C13.7259 20.75 13.4611 20.7099 13.2112 20.6352C12.7102 21.3116 11.9063 21.75 11 21.75H7C5.48122 21.75 4.25 20.5188 4.25 19V12.1216C4.25 11.9802 4.26713 11.8394 4.30102 11.7021L6.02778 4.70878V4C6.02778 3.0335 6.81128 2.25 7.77778 2.25H10.3222C11.2335 2.25 11.9722 2.98873 11.9722 3.9V4.67837C11.9722 4.69857 11.9747 4.71869 11.9795 4.7383L12.5659 7.11297ZM11.8571 10.5L12.2427 12.0617C12.2476 12.0813 12.25 12.1014 12.25 12.1216V19C12.25 19.6904 11.6904 20.25 11 20.25H7C6.30964 20.25 5.75 19.6904 5.75 19V12.1216C5.75 12.1014 5.75245 12.0813 5.75729 12.0617L6.14289 10.5H11.8571ZM6.51326 9H11.4867L10.8695 6.5H7.13055L6.51326 9ZM7.50092 5L7.50591 4.97979L7.52778 4.8V4C7.52778 3.86193 7.63971 3.75 7.77778 3.75H10.3222C10.4051 3.75 10.4722 3.81716 10.4722 3.9V4.67837C10.4722 4.78634 10.4822 4.89401 10.502 5H7.50092ZM18.25 18V12.5H13.75V19C13.75 19.0751 13.747 19.1495 13.7411 19.2232C13.8246 19.2407 13.9112 19.25 14 19.25H17C17.6904 19.25 18.25 18.6904 18.25 18ZM14.4917 6C14.4972 5.9436 14.5 5.88689 14.5 5.83005V5C14.5 4.86193 14.6119 4.75 14.75 4.75H16.29C16.406 4.75 16.5 4.84402 16.5 4.95999V5.75257C16.5 5.8355 16.5059 5.91818 16.5176 6H14.4917ZM17.001 7.5H14.0196L13.2232 9.77537L13.5256 11H18.2067L17.001 7.5Z" fill="#1C1C1C"/>
</g>
</svg>
