<svg xmlns="http://www.w3.org/2000/svg" width="24" height="24"><defs><filter id="a" width="134.7%" height="119.6%" x="-17.4%" y="-9.8%" filterUnits="objectBoundingBox"><feOffset dy="2" in="SourceAlpha" result="shadowOffsetOuter1"/><feGaussianBlur in="shadowOffsetOuter1" result="shadowBlurOuter1" stdDeviation="12"/><feColorMatrix in="shadowBlurOuter1" result="shadowMatrixOuter1" values="0 0 0 0 0 0 0 0 0 0 0 0 0 0 0 0 0 0 0.16 0"/><feMerge><feMergeNode in="shadowMatrixOuter1"/><feMergeNode in="SourceGraphic"/></feMerge></filter></defs><path fill="#4C4C4C" d="M12.732 3.914l8.1 5.85a.75.75 0 1 1-.88 1.215L19 10.291V18.5h1.25a.75.75 0 1 1 0 1.5H3.75a.75.75 0 1 1 0-1.5H5v-8.209l-.953.688a.75.75 0 0 1-.878-1.216l8.1-5.85a1.25 1.25 0 0 1 1.463 0zM12 5.235L6.5 9.208V18.5h2.75v-4a1.5 1.5 0 0 1 1.5-1.5h2.5a1.5 1.5 0 0 1 1.5 1.5v4h2.75V9.208L12 5.235zm1.25 9.265h-2.5v4h2.5v-4z" filter="url(#a)"/></svg>
