<svg xmlns="http://www.w3.org/2000/svg" xmlns:xlink="http://www.w3.org/1999/xlink" width="160" height="160" viewBox="0 0 160 160">
    <defs>
        <path id="w355z6kzdc" d="M3.07.353L5.447.106 94.43 3.24c1.743.061 3.138 1.466 3.188 3.21l2.46 86.438c.051 1.825-1.386 3.347-3.211 3.399l-.094.001H3.41c-1.825 0-3.305-1.48-3.305-3.306V3.641c0-1.693 1.28-3.113 2.963-3.288z"/>
        <path id="blffe05cse" d="M6.983 10.351h90.813c1.826 0 3.306 1.48 3.306 3.306v86.328c0 1.826-1.48 3.306-3.306 3.306H6.983c-1.826 0-3.306-1.48-3.306-3.306V13.657c0-1.826 1.48-3.306 3.306-3.306z"/>
        <path id="9jk3eseqrg" d="M1.878.01c1 0 1.817.781 1.874 1.767l.004.11v14.724c0 1.037-.841 1.878-1.878 1.878-1 0-1.818-.782-1.875-1.768L0 16.611V1.887C0 .85.84.01 1.878.01z"/>
        <path id="3uppq9pz5i" d="M1.878.01c1 0 1.817.781 1.874 1.767l.004.11v14.724c0 1.037-.841 1.878-1.878 1.878-1 0-1.818-.782-1.875-1.768L0 16.611V1.887C0 .85.84.01 1.878.01z"/>
        <path id="igcka399gk" d="M1.878.01c1 0 1.817.781 1.874 1.767l.004.11v14.724c0 1.037-.841 1.878-1.878 1.878-1 0-1.818-.782-1.875-1.768L0 16.611V1.887C0 .85.84.01 1.878.01z"/>
        <circle id="hredcpnspa" cx="66.116" cy="66.116" r="66.116"/>
    </defs>
    <g fill="none" fill-rule="evenodd">
        <g transform="translate(8.565 10.304) translate(6.37 6)">
            <mask id="r6oenham9b" fill="#fff">
                <use xlink:href="#hredcpnspa"/>
            </mask>
            <use fill="#D8D8D8" xlink:href="#hredcpnspa"/>
            <g mask="url(#r6oenham9b)">
                <g>
                    <path fill="#CCE3EE" d="M64.208 27.202c18.406-8.28 33.005-8.885 43.798-1.815 10.792 7.07 16.766 7.674 17.921 1.815 8.724-20.116 17.144-29.075 25.26-26.877 8.117 2.198 12.786 3.95 14.007 5.257L196.86 37.51l-9.134 59.312c-6.289 34.292-10.578 51.438-12.868 51.438-3.435 0-70.917 9.834-76.122 9.834-5.205 0-72.678-10.376-74.24-11.81-1.56-1.434 0-46.348 0-49.462 0-2.077 13.238-25.283 39.713-69.62z" transform="translate(-35.702 -29.09)"/>
                    <path fill="#BDDCE9" d="M23.39 95.43c11.06-18.102 21.878-24.924 32.452-20.464 15.861 6.69 9.744 9.142 16.086 9.142 6.341 0 10.697-15.153 21.03-12.086 10.332 3.066 9.358-11.376 19.531-23.284 10.173-11.91 26.035-14.186 37.757-14.186 11.722 0 8.755 30.899 9.906 33.099 1.15 2.2-.583.712.264 0 .565-.475 9.76 7.15 27.583 22.877l-6.495 65.916-99.89 27.734-71.106-28.456L23.39 95.431z" transform="translate(-35.702 -29.09)"/>
                    <path fill="#AED4E4" d="M12.491 98.627c10.007-.016 18.214.716 24.624 2.196 9.82 2.267 14.713 10.134 22.213 13.114 7.358 2.924 12.737-9.174 22.534-15.37 7.374-4.665 15.885 2.296 23.399-2.77 12.709-8.567 20.4-31.91 38.005-33.062 17.606-1.15 13.415 24.978 30.067 28.613 16.653 3.635 16.665 61.526 0 68.813-16.664 7.287-71.51 31.438-92.657 35.135C59.531 198.992-3.678 164.92.168 151.334c2.564-9.058 6.672-26.627 12.323-52.707z" transform="translate(-35.702 -29.09)"/>
                </g>
            </g>
        </g>
        <path fill="#3A8D99" fill-rule="nonzero" d="M55.443 3.714c-2.17 2.243-3.825 5.636-5.318 10.346l-.151.483c-.635 2.057-2.443 8.971-2.808 10.116l-.08.246-.039.12c-.403 1.204-1.285 2.092-2.692 2.802l-.155.077c-1.017.494-2.165.86-4.157 1.374l-1.778.45-.479.123c-.252.066-.486.127-.712.189l-.134.036c-3.936 1.079-6.432 2.313-8.245 4.473-2.263 2.697-3.063 6.63-2.209 12.213l.031.2c.861 5.422.225 8.914-1.748 11.158-1.487 1.692-3.283 2.525-7.298 3.701l-1.67.484c-.273.08-.518.154-.755.226-2.69.82-4.55 1.618-6.213 2.8-2.075 1.474-3.615 3.455-4.63 6.146-5.37 14.231-4.474 24.933 2.896 41.089 3.533 7.746 12.47 14.587 23.482 18.025 11.764 3.674 24.43 3.106 35.255-2.215l.327-.163c4.31-2.164 8.893-3.43 13.906-3.956 5.847-.614 10.874-.32 20.403.863l2.631.33c7.337.91 10.254 1.147 14.032 1.033 5.398-.164 9.72-1.344 13.368-3.882 4.3-2.992 8.47-11.938 10.531-22.305 2.236-11.241 1.635-21.985-2.178-28.857l-.205-.364c-3.32-5.84-7.384-9.518-14.797-14.222l-.613-.385c-1.351-.846-4.379-2.716-4.88-3.029l-.79-.496c-1.8-1.136-3.311-2.128-4.805-3.167-4.372-3.042-8.216-6.246-11.966-10.125-3.77-3.899-7.09-7.895-10.779-12.817l-.467-.628c-1.243-1.69-6.84-9.397-8.476-11.5l-.346-.442c-4.998-6.348-9.222-10.07-14.586-12.33-4.37-1.84-7.894-1.124-10.703 1.78zM65.92 2.47c5.317 2.24 9.508 5.96 14.526 12.37l.283.364c1.87 2.427 7.856 10.678 8.542 11.597 3.818 5.116 7.226 9.235 11.111 13.254 3.778 3.908 7.65 7.136 12.052 10.198l.43.297c1.507 1.037 3.056 2.045 4.92 3.214l5.22 3.241.31.194.458.29c7.344 4.683 11.307 8.342 14.576 14.232 3.734 6.73 4.328 17.344 2.116 28.462-2.035 10.234-6.148 19.059-10.293 21.943-3.49 2.429-7.629 3.581-12.808 3.77l-.487.015c-3.904.104-7.003-.189-15.435-1.253l-.901-.112c-9.57-1.188-14.629-1.485-20.533-.865-4.974.523-9.536 1.765-13.831 3.879l-.274.136c-10.754 5.401-23.404 6.01-35.15 2.343-10.865-3.393-19.669-10.132-23.127-17.713-7.31-16.023-8.192-26.568-2.88-40.643.974-2.583 2.441-4.47 4.423-5.879 1.602-1.138 3.411-1.914 6.046-2.718l.361-.109.526-.155 1.17-.338c4.375-1.263 6.302-2.126 7.933-3.98 2.079-2.366 2.755-5.97 1.915-11.438l-.03-.194c-.88-5.536-.122-9.363 2.05-11.95 1.718-2.047 4.121-3.236 7.953-4.285l.547-.147.446-.117 2.107-.534c2.13-.55 3.32-.936 4.423-1.493 1.534-.774 2.524-1.771 2.981-3.137l.08-.246.07-.217c.426-1.392 2.165-8.039 2.78-10.03l.152-.484c1.468-4.629 3.089-7.95 5.18-10.114C58.503 1.385 61.77.721 65.922 2.47z" transform="translate(8.565 10.304)"/>
        <g transform="translate(8.565 10.304) translate(3.065 105.834)">
            <circle cx="132.562" cy="8.264" r="4.959" fill="#BDDCE9"/>
            <circle cx="21.488" cy="20.165" r="11.57" fill="#CCE3EE"/>
            <circle cx="4.959" cy="4.959" r="4.959" fill="#D9EAF2"/>
            <circle cx="134.876" cy="18.512" r="2.645" fill="#CCE3EE"/>
        </g>
        <g transform="translate(8.565 10.304) translate(31.785 8.934)">
            <circle cx="89.745" cy="18.176" r="3.443" fill="#D6DAE6"/>
            <circle cx="15.883" cy="18.176" r="3.443" fill="#D6DAE6"/>
            <circle cx="53.44" cy="18.176" r="3.443" fill="#D6DAE6"/>
            <g transform="translate(.266 10.246)">
                <mask id="of0gl20ned" fill="#fff">
                    <use xlink:href="#w355z6kzdc"/>
                </mask>
                <use fill="#9BA9C1" xlink:href="#w355z6kzdc"/>
                <path fill="#5F7C9F" d="M-9.949-7.071h46.594c1.826 0 3.306 1.48 3.306 3.305V20.92c0 1.826-1.48 3.306-3.306 3.306H-9.949c-1.825 0-3.305-1.48-3.305-3.306V-3.766c0-1.825 1.48-3.305 3.305-3.305z" mask="url(#of0gl20ned)"/>
            </g>
            <mask id="1wq51qgl4f" fill="#fff">
                <use xlink:href="#blffe05cse"/>
            </mask>
            <use fill="#EBECF3" xlink:href="#blffe05cse"/>
            <path fill="#D6DAE6" d="M3.677 12.229H101.325V34.763H3.677z" mask="url(#1wq51qgl4f)"/>
            <path fill="#4B6F95" d="M3.677 10.351H101.325V32.885H3.677z" mask="url(#1wq51qgl4f)"/>
            <path fill="#34638B" d="M-16.353 10.351H81.29499999999999V32.885H-16.353z" mask="url(#1wq51qgl4f)"/>
            <circle cx="52.501" cy="17.237" r="2.504" fill="#1D354A" mask="url(#1wq51qgl4f)"/>
            <circle cx="91.936" cy="17.237" r="2.504" fill="#1D354A" mask="url(#1wq51qgl4f)"/>
            <circle cx="12.44" cy="17.237" r="2.504" fill="#1D354A" mask="url(#1wq51qgl4f)"/>
            <path fill="#C2C9D9" d="M83.172 43.526H93.187V53.541000000000004H83.172zM83.172 57.923H93.187V67.938H83.172zM83.172 72.32H93.187V82.335H83.172zM83.172 86.717H93.187V96.732H83.172z" mask="url(#1wq51qgl4f)"/>
            <path fill="#8799B6" d="M68.776 43.526H78.791V53.541000000000004H68.776zM68.776 57.923H78.791V67.938H68.776zM68.776 72.32H78.791V82.335H68.776zM68.776 86.717H78.791V96.732H68.776zM54.379 43.526H64.394V53.541000000000004H54.379z" mask="url(#1wq51qgl4f)"/>
            <path fill="#DB3939" d="M54.379 57.923H64.394V67.938H54.379z" mask="url(#1wq51qgl4f)"/>
            <path fill="#8799B6" d="M54.379 72.32H64.394V82.335H54.379zM54.379 86.717H64.394V96.732H54.379zM39.982 43.526H49.997V53.541000000000004H39.982zM39.982 57.923H49.997V67.938H39.982zM39.982 72.32H49.997V82.335H39.982zM39.982 86.717H49.997V96.732H39.982zM25.585 86.717H35.6V96.732H25.585zM11.188 86.717H21.203000000000003V96.732H11.188zM25.585 43.526H35.6V53.541000000000004H25.585zM25.585 57.923H35.6V67.938H25.585zM25.585 72.32H35.6V82.335H25.585zM11.188 72.32H21.203000000000003V82.335H11.188zM11.188 43.526H21.203000000000003V53.541000000000004H11.188zM11.188 57.923H21.203000000000003V67.938H11.188z" mask="url(#1wq51qgl4f)"/>
            <g transform="translate(10.563)">
                <mask id="jvlzdpi3lh" fill="#fff">
                    <use xlink:href="#9jk3eseqrg"/>
                </mask>
                <use fill="#9BA9C1" xlink:href="#9jk3eseqrg"/>
                <path fill="#748AAA" d="M1.878 -1.542H8.137V19.74H1.878z" mask="url(#jvlzdpi3lh)"/>
            </g>
            <g transform="translate(50.623)">
                <mask id="g125aa0okj" fill="#fff">
                    <use xlink:href="#3uppq9pz5i"/>
                </mask>
                <use fill="#9BA9C1" xlink:href="#3uppq9pz5i"/>
                <path fill="#748AAA" d="M1.878 -1.542H8.137V19.74H1.878z" mask="url(#g125aa0okj)"/>
            </g>
            <g transform="translate(90.058)">
                <mask id="196mfx14ol" fill="#fff">
                    <use xlink:href="#igcka399gk"/>
                </mask>
                <use fill="#9BA9C1" xlink:href="#igcka399gk"/>
                <path fill="#748AAA" d="M1.878 -1.542H8.137V19.74H1.878z" mask="url(#196mfx14ol)"/>
            </g>
        </g>
    </g>
</svg>
