<svg xmlns="http://www.w3.org/2000/svg" xmlns:xlink="http://www.w3.org/1999/xlink" width="160" height="160" viewBox="0 0 160 160">
    <defs>
        <path id="e0tmz5vxhc" d="M30.96 16.443c-3.334-6.187-5.77-7.618-8.047-10.94C20.636 2.181 17.37-.727 12.666.267c-4.703.994-7.98 8.395-7.98 12.286 0 3.89-3.598 10.25-4.003 13.11-.405 2.861-2.166 9.472 4.003 15.818 6.17 6.346 13.115 9.144 21.176 5.77 8.061-3.373 9.255-17.562 8.658-20.216-.597-2.654-.224-4.405-3.56-10.592z"/>
        <path id="unpn1sd8fe" d="M9.865.512C7.748 1.124 3.237 1.77.842 7.792c-2.396 6.023.995 11.77 1.863 12.757.868.987 4.232 6.188 15.023 4.234 5.77-1.743 8.892-5.565 9.368-11.464-.412-5.28-1.915-8.807-4.51-10.58C18.694.08 16.35-.02 14.896.002c-1.452.023-2.914-.101-5.03.51z"/>
        <path id="7pcr6adh2g" d="M0 3.862L21.237 0 22.341 4.84 23.122 6.035 31.884 49.61 10.247 52.174 0.758 10.957 0.758 9.55z"/>
        <path id="96l3x74mgi" d="M6.377 5.671c.779-1.256 2.182-2.03 4.209-2.324 2.027-.293 3.899-.18 5.615.336l.9 4.003c-1.645.96-3.116 1.561-4.412 1.805-1.05.198-2.926.32-5.625.364l-.687-4.184z"/>
        <path id="agp1capcuk" d="M18.758 9.094c4.563-.134 7.569 1.686 9.019 5.46.826 7.419-.897 13.027-5.17 16.825-1.683 1.594-3.54 2.264-5.573 2.01-1.27-.582-3.032-.648-5.286-.197-2.435 1.08-4.948-.11-7.539-3.568-4.912-7.313-5.422-13.35-1.531-18.11C4.45 9.766 6.25 8.893 8.072 8.893c2.735 0 5.097 1.091 10.686.2z"/>
        <path id="ytr3r8xc6m" d="M14.693 10.284c1.371-3.347 2.516-5.126 3.435-5.337.92-.21 1.49-.719 1.713-1.525-1.882.06-3.467 1.178-4.754 3.356-1.317 1.923-1.783 2.989-1.398 3.196.386.207.72.31 1.004.31z"/>
        <path id="rtam14k8zo" d="M11.984 7.385C10.724 1.45 6.731-.901.008.329.965 5.035 3.54 7.598 7.731 8.018c1.875.005 2.976-.097 3.304-.307.329-.21.645-.318.95-.326z"/>
        <path id="4mi2kfe07q" d="M8.4 2.652V.702c1.272-.65 2.1-.65 2.484 0 .384.65 1.008 1.567 1.87 2.752-2.331 2.487-3.497 5.262-3.497 8.325 1.978 4.554 2.997 7.141 3.054 7.763 2.336 5.199 8.287 8.436 17.853 9.712 10.6-.401 16.969.028 19.108 1.287 1.962-.006 3.045.147 3.25.46 1.295 1.2 1.666 2.372 1.112 3.517-1.342 1.081-2.308 2.1-2.896 3.055-5.098 5.766-14.934 7.312-29.508 4.639-9.094-2.707-15.448-7.323-19.062-13.848-2.158-4.88-2.6-9.236-1.33-13.067 1.71-2.67 3.242-4.417 4.596-5.24C6.79 7.625 7.699 5.718 8.156 4.335c.458-1.384.539-1.945.244-1.684z"/>
        <path id="t0yjh58uku" d="M8.4 2.652V.702c1.272-.65 2.1-.65 2.484 0 .384.65 1.008 1.567 1.87 2.752-2.331 2.487-3.497 5.262-3.497 8.325 1.978 4.554 2.997 7.141 3.054 7.763 2.336 5.199 8.287 8.436 17.853 9.712 10.6-.401 16.969.028 19.108 1.287 1.962-.006 3.045.147 3.25.46 1.295 1.2 1.666 2.372 1.112 3.517-1.342 1.081-2.308 2.1-2.896 3.055-5.098 5.766-14.934 7.312-29.508 4.639-9.094-2.707-15.448-7.323-19.062-13.848-2.158-4.88-2.6-9.236-1.33-13.067 1.71-2.67 3.242-4.417 4.596-5.24C6.79 7.625 7.699 5.718 8.156 4.335c.458-1.384.539-1.945.244-1.684z"/>
        <path id="qbz7zysvyw" d="M9.865.512C7.748 1.124 3.237 1.77.842 7.792c-2.396 6.023.995 11.77 1.863 12.757.868.987 4.232 6.188 15.023 4.234 5.77-1.743 8.892-5.565 9.368-11.464-.412-5.28-1.915-8.807-4.51-10.58C18.694.08 16.35-.02 14.896.002c-1.452.023-2.914-.101-5.03.51z"/>
        <path id="tds8gp32yy" d="M33.647 52.237l-9.01 81.517c1.522.604 2.79 1.213 3.804 1.826 1.359.821 3.399.281 5.206 1.125 1.206.562 2.24 1.48 3.105 2.752 1.21.968 8.157.642 20.839-.978 12.682-1.62 30.144-4.411 52.385-8.374.886-17.569 1.328-31.011 1.328-40.328 0-9.317-.534-22.527-1.601-39.632-1.62 2.354-2.914 3.573-3.883 3.656-16.363 1.412-29.28-1.145-37.61-1.145-3.697 0-7.8-1.95-12.311-1.95-4.371 0-11.788.51-22.252 1.531z"/>
        <path id="94j105j08A" d="M34.822 52.274L22.52 53.96c-2.156-.46-3.718-.883-4.687-1.266-.968-.382-1.4-.75-1.297-1.1v74.448l8.558 8.02 11.717 5.358c-.373-5.27-.87-10.673-1.493-16.21-.935-8.304-2.144-15.47-2-21.694.142-6.225 1.446-13.434 1.335-17.056-.14-4.63-1.082-10.98-1.082-14.607 0-5.675 1.444-8.945 1.589-12.278.133-3.052.02-4.819-.34-5.3z"/>
        <path id="93xyon0r0C" d="M1.023 19.076l9.095 20.849c.379.868 1.382 1.273 2.258.912l38.209-15.782c.88-.364 1.305-1.368.951-2.253L43.08 1.636C42.723.744 41.71.31 40.82.666l-.021.008-38.848 16.1c-.887.368-1.309 1.385-.94 2.272l.012.03z"/>
        <linearGradient id="vmp3tu6pqs" x1="42.055%" x2="89.969%" y1="66.662%" y2="24.265%">
            <stop offset="0%" stop-color="#F4D231" stop-opacity=".524"/>
            <stop offset="100%" stop-color="#928826" stop-opacity=".545"/>
        </linearGradient>
        <linearGradient id="1jvqoi4fgt" x1="40.071%" x2="50%" y1="108.617%" y2="37.887%">
            <stop offset="0%" stop-color="#E8C303"/>
            <stop offset="100%" stop-color="#928826"/>
        </linearGradient>
        <ellipse id="rlgw61gt4a" cx="66.116" cy="65.785" rx="66.116" ry="65.785"/>
    </defs>
    <g fill="none" fill-rule="evenodd">
        <g transform="translate(12.79 17.363)">
            <mask id="wn76j22d3b" fill="#fff">
                <use xlink:href="#rlgw61gt4a"/>
            </mask>
            <use fill="#D8D8D8" xlink:href="#rlgw61gt4a"/>
            <g mask="url(#wn76j22d3b)">
                <g>
                    <path fill="#CCE3EE" d="M63.164 28.834c19.602-8.776 35.15-9.418 46.645-1.924 11.494 7.493 17.856 8.135 19.086 1.924 9.29-21.323 18.258-30.82 26.902-28.49 8.644 2.33 13.617 4.188 14.917 5.573l33.723 33.844-9.727 62.87c-6.698 36.35-11.266 54.525-13.704 54.525-3.659 0-75.527 10.423-81.07 10.423-5.544 0-77.402-10.998-79.065-12.518-1.664-1.52 0-49.13 0-52.43 0-2.2 14.097-26.8 42.293-73.797z" transform="translate(-32.806 -32.238)"/>
                    <path fill="#BDDCE9" d="M22.785 113.61c11.78-19.19 23.3-26.42 34.562-21.693 16.892 7.09 10.377 9.69 17.131 9.69s11.393-16.062 22.397-12.811c11.004 3.25 9.967-12.058 20.801-24.681 10.835-12.624 27.727-15.037 40.211-15.037 12.484 0 9.325 32.752 10.55 35.085 1.226 2.332-.62.755.282 0 .601-.503 10.393 7.58 29.376 24.25l-6.918 69.87-106.382 29.399-75.729-30.164 13.72-63.908z" transform="translate(-32.806 -32.238)"/>
                    <path fill="#AED4E4" d="M13.384 115.568c10.657-.016 19.398.76 26.224 2.328 10.459 2.403 15.67 10.742 23.657 13.901 7.836 3.1 13.565-9.724 23.998-16.293 7.855-4.944 16.919 2.434 24.92-2.935 13.536-9.082 21.726-33.826 40.476-35.046 18.75-1.22 14.287 26.477 32.022 30.33 17.735 3.852 17.748 65.217 0 72.941-17.748 7.724-76.16 33.325-98.68 37.243-22.52 3.918-89.837-32.197-85.741-46.6 2.73-9.6 7.105-28.224 13.124-55.869z" transform="translate(-32.806 -32.238)"/>
                    <path fill="#8EC6DB" d="M132.2 145.31c-2.612 2.17-9.55 3.256-20.818 3.256-11.267 0-28.47-1.085-51.608-3.256l3.722 1.25c22.479 7.475 39.246 11.213 50.302 11.213 5.578 0 21.94-.677 25.106-2.14.698-.322 6.572-2.079 8.15-5.105 1.357-2.602-1.664-9.693-2.625-10.57-.828-.756-4.904 1.855-12.23 7.833v-2.48z" transform="translate(-32.806 -32.238)"/>
                </g>
            </g>
        </g>
        <path fill="#3A8D99" fill-rule="nonzero" d="M39.48 15.752c-4.125 3.402-7.105 9.234-8.748 16.44-1.434 6.291-1.728 13.249-.88 18.882l.044.285c1.095 6.891.895 12.58-.449 17.735-1.051 4.03-2.65 7.465-5.46 12.192l-.574.954c-.726 1.194-2.2 3.596-2.491 4.079l-.456.757c-1.383 2.308-2.426 4.183-3.4 6.156-7.341 14.878-3.546 30.493 12.674 45.466 13.833 12.767 25.966 17.455 37.149 15.517 4.724-.818 9.227-2.803 13.733-5.875 3.576-2.437 6.97-5.395 11.072-9.476l.563-.564c1.533-1.548 5.486-5.61 6.798-6.927l.521-.518c2.48-2.444 4.424-4.15 6.258-5.426.529-.367 1.864-.408 4.036-.125l.142.02c.848.114 1.81.272 3.021.493l1.383.26 3.344.642c2.095.4 3.7.684 5.269.925l.536.08c3.899.573 7.05.762 9.681.491 3.354-.345 5.747-1.444 7.067-3.465 8.025-12.286 7.967-22.715.04-42.498-.735-1.835-.701-4.24.01-7.466l.223-.982c.335-1.436.592-2.296 1.847-6.105l1.259-3.807c1.535-4.668 2.405-7.771 2.985-11.006 1.822-10.159-.41-17.861-8.4-23.708-2.42-1.771-4.897-3.103-7.462-4.04-4.01-1.464-8.191-1.962-12.944-1.688l-.63.04c-3.293.226-5.91.653-11.974 1.85l-1.83.361c-6.798 1.34-10.389 1.87-14.632 1.99l-.153.004c-5.855.152-11.222-.759-16.55-3.017l-.189-.082c-.929-.406-2.036-.976-3.564-1.82l-.738-.413c-.915-.518-3.998-2.262-5.072-2.852l-.548-.3c-2.53-1.376-4.675-2.439-6.743-3.305-6.779-2.838-11.98-3.184-15.656-.245l-.111.09zm15.432.956c2.037.854 4.158 1.904 6.665 3.268l.778.427c1.422.788 4.878 2.746 5.082 2.86l.495.275c1.656.916 2.83 1.516 3.832 1.94 5.447 2.31 10.936 3.24 16.91 3.086l.466-.013c4.068-.135 7.606-.654 13.972-1.9l3.324-.655c5.453-1.066 7.924-1.447 11.09-1.654l.114-.007c4.759-.303 8.91.171 12.877 1.62 2.487.908 4.891 2.201 7.247 3.925 7.69 5.628 9.825 12.994 8.058 22.853l-.064.347c-.571 3.064-1.424 6.078-2.893 10.543l-1.653 5.008c-1.08 3.298-1.227 3.885-1.622 5.63l-.033.146c-.787 3.477-.84 6.1-.011 8.168 7.83 19.544 7.887 29.684.04 41.7-2.138 3.271-7.483 3.851-16.161 2.55l-.625-.097c-1.084-.17-2.203-.364-3.506-.605l-2.015-.382c-1.01-.195-2.893-.557-3.524-.675l-.75-.138c-1.137-.206-2.057-.356-2.876-.467l-.294-.038c-2.312-.293-3.737-.237-4.497.293l-.264.185c-1.848 1.319-3.805 3.055-6.282 5.507l-.35.349c-1.425 1.429-5.927 6.059-7.12 7.25l-.479.477c-3.961 3.925-7.255 6.783-10.71 9.138-4.41 3.005-8.8 4.941-13.393 5.737-10.886 1.886-22.76-2.702-36.41-15.3-15.95-14.723-19.646-29.929-12.484-44.442 1.03-2.09 2.143-4.071 3.666-6.594l2.883-4.727.031-.05c3.04-5.06 4.749-8.662 5.862-12.932 1.355-5.194 1.573-10.906.518-17.768l-.05-.323c-.886-5.571-.61-12.546.824-18.837 1.604-7.036 4.499-12.702 8.454-15.964 3.364-2.774 8.298-2.469 14.878.286z"/>
        <circle cx="30.355" cy="26.232" r="6.522" fill="#BDDCE9"/>
        <circle cx="17.456" cy="37.391" r="4.638" fill="#BDDCE9"/>
        <g transform="matrix(-1 0 0 1 146.441 0)">
            <path fill="#A47F58" d="M109.565 50.315l-3.481-1.852-68.401-2.666c-8.005 1.294-13.927 2.51-17.768 3.646-1.268.375-1.806 1.016-2.25 1.426-.448.413-.797.595-.834.843-.026.168-.026.254 0 .258l1.994 6.26L53.493 60l49.8-1.77 6.272-7.915z"/>
            <g>
                <path fill="#1F452B" d="M42.034 46.727L14.395 0.059 11.842 2.419 9.144 2.419 9.144 4.101 6.367 4.101 6.367 6.709 4.831 7.005 3.408 7.969 1.944 11.502 16.813 28.605 40.593 51.627z" transform="scale(-1 1) rotate(57 -13.694 -24.607)"/>
                <path fill="#457752" d="M42.034 46.727L14.395 0.059 11.842 2.419 9.144 2.419 9.144 4.101 6.367 4.101 6.367 6.709 11.842 17.725 3.408 7.969 1.944 11.502 16.813 28.605 40.593 51.627z" transform="scale(-1 1) rotate(57 -13.694 -24.607)"/>
                <path fill="#306B44" d="M12.373 6.86c-.56.827-.79 1.375-.693 1.643 3.473 9.55 7.983 16.538 9.505 19.495.38.738-3.187-2.581-8.638-5.862-3.634-2.188-4.755-2.718-3.362-1.592l-.442 1.363L29.479 36.28l-2.7-6.059L12.373 6.86z" transform="scale(-1 1) rotate(57 -13.694 -24.607)"/>
                <path fill="#5A8361" d="M.863 15.174l-.615 2.01 37.71 32.038 1.055-1.993c-1.48-3.207-4.896-7.06-10.247-11.556-4.085-3.432-9.555-8.408-18.244-14.564-1.795-1.272-5.015-3.25-9.66-5.935z" transform="scale(-1 1) rotate(57 -13.694 -24.607)"/>
                <path fill="#829E84" d="M12.683 6.455l4.93-3.475h1.43l1.762-1.523 27.992 40.137-8.792 12.093C30.78 39.829 24.015 29.178 19.71 21.736 15.405 14.294 13.063 9.2 12.683 6.455z" transform="scale(-1 1) rotate(57 -13.694 -24.607)"/>
            </g>
            <g transform="rotate(22 -30.645 234.695)">
                <mask id="5c1c1ivsed" fill="#fff">
                    <use xlink:href="#e0tmz5vxhc"/>
                </mask>
                <use fill="#6E9071" xlink:href="#e0tmz5vxhc"/>
                <path fill="#467752" d="M14.804-1.713c1.224 4.004 1.57 6.706 1.041 8.106-1.619 4.278 1.327 14.732 1.327 16.526 0 4.013-7.782 1.967-7.782 5.828s2.2 5.662 5.414 10.783c3.215 5.121 8.13 8.65 11.802 8.65 3.672 0-2.737 3.428-2.737 2.766 0-.441-4.55-.767-13.65-.978-5.184-4.633-8.042-7.184-8.573-7.654-.796-.704-3.365-7.905-3.365-7.905l.94-17.684L7.498-.245l7.306-1.468z" mask="url(#5c1c1ivsed)"/>
                <path fill="#316C44" d="M15.393-.066c.07.25-1.201.476-1.668.874-1.335 1.134-3.27 2.914-4.413 4.777-1.925 3.14-2.82 6.482-3.119 8.63-.536 3.867-.261 7.42-1.89 11.093-1.159 2.612-1.12 7.399.47 11.083.645 1.496 1.563 2.857 2.479 4.057 1.397 1.83 3.743 5.487 7.287 6.783 4.5 1.646 5.174 1.658 6.58 2.08 1.677.502 1.677 1.426 0 2.77-4.376-.627-7.095-.94-8.155-.94-1.06 0-5.34-3.565-12.839-10.693-2.158-6.713-2.698-10.626-1.619-11.739C.126 27.04.918 20.88.918 20.88l3.57-13.117c1.815-2.801 3.17-4.594 4.063-5.38 3.86-3.396 6.537-3.52 6.842-2.448z" mask="url(#5c1c1ivsed)"/>
                <path fill="#FFF" fill-opacity=".255" d="M29.023 38.173c1.308-4.28.377-9.662-2.791-16.145-3.169-6.484-4.888-10.493-5.158-12.028-.983 2.774-.983 5.027 0 6.759 1.475 2.598 5.158 12.56 5.158 14.41 0 1.85-1.592 5.961-1.592 7.004 0 1.042.416 2.32 1.592 2.32.784 0 1.714-.773 2.791-2.32z" mask="url(#5c1c1ivsed)"/>
            </g>
            <g transform="translate(36.812 39.42)">
                <mask id="5f5qftviof" fill="#fff">
                    <use xlink:href="#unpn1sd8fe"/>
                </mask>
                <use fill="#EEA548" xlink:href="#unpn1sd8fe"/>
                <path fill="#ED9C34" d="M9.487 2.025c1.904.43 3.158.809 3.764 1.134 6.602 3.537 6.7 8.972 4.664 14.542-2.316 6.337-6.312 9.684-11.988 10.04l21.186-1.428 3.37-7.36V5.551c-4.336-2.323-7.648-3.846-9.936-4.567C18.844.448 10.969-.268 8.131.102c-.65.084-.198.725 1.356 1.923z" mask="url(#5f5qftviof)"/>
                <path fill="#D48B2E" d="M16.261 2.025c1.904.43 3.158.809 3.764 1.134 6.602 3.537 6.7 8.972 4.664 14.542-2.316 6.337-6.312 9.684-11.988 10.04l21.186-1.428 3.37-7.36V5.551C32.921 3.229 29.61 1.706 27.321.985 25.618.448 17.743-.268 14.905.102c-.65.084-.198.725 1.356 1.923z" mask="url(#5f5qftviof)"/>
                <path fill="#ED9C34" d="M16.935 2.922c-.21.819-.626 1.045-1.25.68-.708-.416-1.07.085-1.853 0-.87-.096-2.02-.181-2.939 0-3.852.754-5.577 6.28-6.487 8.587-1.549 3.928-2.038 6.87-1.467 8.826l-4.633-4.646L.126 5.43l5.74-4.21L14.21 0l2.724 2.922z" mask="url(#5f5qftviof)"/>
                <path fill="#4D3B29" d="M13.055.747c-.471.28-.471.542 0 .784.707.364 2.187 0 2.187-.392 0-.262-.277-.392-.83-.392-.177-.498-.394-.747-.65-.747s-.492.249-.707.747z" mask="url(#5f5qftviof)"/>
                <path fill="#F1B160" d="M5.529 20.838c-2.266-1.818-2.64-4.7-1.123-8.65 2.277-5.922 6.52-8.582 7.319-8.81.532-.153.858.88.976 3.097-1.768 6.142-2.652 10.736-2.652 13.782 0 3.046-1.507 3.24-4.52.581z" mask="url(#5f5qftviof)"/>
                <path fill="#F4C485" d="M9.495 5.884c-1.873.849-3.018 2.707-3.436 5.575-.417 2.869.155 5.214 1.718 7.034.257-6.12.83-9.539 1.718-10.254.888-.716.888-1.5 0-2.355z" mask="url(#5f5qftviof)"/>
            </g>
            <g transform="matrix(-1 0 0 1 92.754 9.565)">
                <mask id="22em6ohsbh" fill="#fff">
                    <use xlink:href="#7pcr6adh2g"/>
                </mask>
                <use fill="#C2C9D9" xlink:href="#7pcr6adh2g"/>
                <path fill="#EBECF3" d="M-1.159 3.311L-0.204 9.275 24.058 4.382 21.939 -1.739z" mask="url(#22em6ohsbh)"/>
                <path fill="#9BA9C1" d="M0 12.092L24.066 7.246 33.043 50.943 9.822 53.913z" mask="url(#22em6ohsbh)"/>
                <path fill="#8799B6" d="M3.478 26.957c6.665.257 10.776 1.159 12.334 2.706 2.336 2.32 12.793-5.877 14.064-3.866.848 1.34 1.904 7.428 3.167 18.261l-17.325-1.987-12.24-9.529v-5.585z" mask="url(#22em6ohsbh)"/>
                <mask id="lfz96xf4ij" fill="#fff">
                    <use xlink:href="#96l3x74mgi"/>
                </mask>
                <use fill="#4B6F95" xlink:href="#96l3x74mgi"/>
                <path fill="#9BA9C1" d="M5.217 5.713c1.653.499 3.73.499 6.232 0 2.502-.499 4.386-1.288 5.652-2.369l-6.613-.735-5.27 3.104z" mask="url(#lfz96xf4ij)"/>
            </g>
            <g transform="rotate(41 -.228 103.223)">
                <mask id="6t15jp7mbl" fill="#fff">
                    <use xlink:href="#agp1capcuk"/>
                </mask>
                <use fill="#DB3939" xlink:href="#agp1capcuk"/>
                <path fill="#981F1C" fill-opacity=".8" d="M4.73 10.11C-1.003 18.116.374 25.898 8.865 33.458c8.491 7.56 7.83 8.097-1.985 1.614L-2.717 24.77l-.672-11.546 8.12-3.113z" mask="url(#6t15jp7mbl)"/>
                <path fill="#B32E2E" d="M6.567 8.633c2.441.937 4.28 1.881 5.516 2.832 1.853 1.425 2.404 3.458 2.89 4.334.487.876 2.031 10.854-3.76 15.529-3.862 3.116-6.937 3.983-9.225 2.6l20.603 3.96 7.318-17.001-4.588-14.491L6.567 8.633z" mask="url(#6t15jp7mbl)" transform="rotate(10 15.949 22.142)"/>
                <path fill="#992828" d="M6.583 8.626c2.996.414 5.433 1.014 7.312 1.798 1.88.784 3.758.785 5.636.003 4.094-.114 6.142 2.532 6.145 7.94.002 5.407-1.888 10.328-5.673 14.764l7.358-.715 5.827-19.176-5.841-6.747L6.583 8.626z" mask="url(#6t15jp7mbl)" transform="rotate(-1 19.885 19.812)"/>
                <path fill="#CD5555" fill-opacity=".2" d="M12.298 9.51c-5.251 2.022-7.554 6.832-6.909 14.43.646 7.598 2.452 12.255 5.42 13.97l-13.04-9.543V7.769c0-.286 4.843.294 14.529 1.742z" mask="url(#6t15jp7mbl)"/>
                <path fill="#FFF" fill-opacity=".21" d="M5.368 11.622c2.17.075-.247 3.194-.771 3.825-.35.422-.909 1.751-1.677 3.99.185-5.26 1.001-7.865 2.448-7.815z" mask="url(#6t15jp7mbl)"/>
                <mask id="8wb4srvskn" fill="#fff">
                    <use xlink:href="#ytr3r8xc6m"/>
                </mask>
                <use fill="#46632E" xlink:href="#ytr3r8xc6m"/>
                <path fill="#344A22" d="M13.384 9.54c.623.18 1.293-.35 2.012-1.596 1.077-1.867 1.436-2.348 2.293-3.019.571-.447 1.397-.631 2.479-.552L17.33 8.955l-2.888 2.852-3.11-.491 2.052-1.777z" mask="url(#8wb4srvskn)"/>
                <g transform="translate(3.075 .08)">
                    <mask id="1fe7pogldp" fill="#fff">
                        <use xlink:href="#rtam14k8zo"/>
                    </mask>
                    <use fill="#9DBD80" xlink:href="#rtam14k8zo"/>
                    <path fill="#8FB46E" d="M-.354 1.786c2.366.184 3.724.484 4.074.899.35.415 3.163 1.87 8.44 4.368l.15-5.267-5.245-3.978-7.419 1.16v2.818z" mask="url(#1fe7pogldp)"/>
                    <path fill="#71A34C" d="M12.124 7.604C7.444 4.002 3.538 1.666.406.595-2.724-.475-3.99-.815-3.389-.42L7.566-1.64l4.705 1.49-.147 7.754z" mask="url(#1fe7pogldp)"/>
                    <path fill="#577D39" d="M.982.103c4.905 1.076 8 2.628 9.28 4.655C12.187 7.8 12.13 7.86 12.087 7.564l-.705-7.53L4.725-1.61.982.103z" mask="url(#1fe7pogldp)"/>
                </g>
            </g>
            <g>
                <g transform="rotate(-6 232.677 -14.86) rotate(22 4.777 79.795)">
                    <mask id="294pmxv26r" fill="#fff">
                        <use xlink:href="#4mi2kfe07q"/>
                    </mask>
                    <use fill="#DDC987" xlink:href="#4mi2kfe07q"/>
                    <path fill="#D7BF6F" d="M1.773 11.04c2.802-1.703 4.203-2.27 4.203-1.703 0 .851-4.357 8.71 0 17.621 4.356 8.912 22.222 13.6 23.786 13.6s13.392.923 22.056-5.23c8.663-6.154-.251 7.473-4.898 9.784-4.647 2.311-18.552 2.62-20.439 2.62-1.886 0-13.794-4.594-17.15-4.73-3.355-.134-13.914-8.9-13.914-9.903 0-1.004-3.365-11.148-1.077-14.783 1.526-2.423 4.003-4.849 7.433-7.277z" mask="url(#294pmxv26r)"/>
                    <path fill="#D1B15E" d="M-.727 12.451c2.802-1.702 4.203-2.27 4.203-1.702 0 .851-4.357 8.71 0 17.621 4.356 8.912 22.222 13.6 23.786 13.6s13.392.923 22.056-5.23c8.663-6.154-.251 7.473-4.898 9.784-4.647 2.312-18.552 2.62-20.439 2.62-1.886 0-13.794-4.594-17.15-4.73-3.355-.134-13.914-8.9-13.914-9.903 0-1.004-3.365-11.148-1.077-14.783 1.526-2.423 4.003-4.849 7.433-7.277z" mask="url(#294pmxv26r)" opacity=".626"/>
                    <path fill="#D1B15E" d="M11.207 10.517C9.209 9.419 8.21 9.053 8.21 9.419c0 .55-1.516 10.665 1.499 14.55 3.015 3.885 10.652 9.942 23.33 9.942 8.452 0 15.698-1.086 21.737-3.258l-5.553-4.615H34.802l-11.14-3.063-7.442-6.257-5.013-6.201z" mask="url(#294pmxv26r)"/>
                    <path fill="url(#vmp3tu6pqs)" d="M7.107 3.673l6.438 1.519c-2.862 2.35-4.293 4.19-4.293 5.519 0 .8-.507-.31-1.937-.626-.442-.098-1.333.587-2.46.626-.32.011-.825-.198-1.516-.626l3.768-6.412z" mask="url(#294pmxv26r)"/>
                    <path fill="#AC885B" d="M7.064 2.897L8.474 2.897 9.424 3.803 12.508 2.897 11.342 -0.84 7.064 -1.523z" mask="url(#294pmxv26r)"/>
                    <path fill="#7E6444" d="M51.602 28.466c-1.214 1.892-1.214 3.427 0 4.604 1.214 1.178 2.498 2.084 3.852 2.718v-5.973l-3.852-1.349z" mask="url(#294pmxv26r)"/>
                    <path fill="url(#1jvqoi4fgt)" d="M5.605 10.108C6.954 5.416 7.791 3.07 8.115 3.07c.324 0-.513.123-2.51.369L4.431 7.603l-.33 2.79 1.504-.285z" mask="url(#294pmxv26r)"/>
                    <path fill="#E5D1A3" d="M4.818 21.3c.392 2.5 3.534 13.523 22.576 16.498 5.01.782 15.876.259 20.118-2.632-16.97 2.656-28.992.573-36.068-6.248-2.605-2.511-5.55-9.786-6.234-11.204-.439-.91-.784 1.086-.392 3.586z" mask="url(#294pmxv26r)"/>
                </g>
                <g transform="rotate(-6 232.677 -14.86) rotate(47 16.114 37.113)">
                    <mask id="z8thbgpm4v" fill="#fff">
                        <use xlink:href="#t0yjh58uku"/>
                    </mask>
                    <use fill="#DDC987" xlink:href="#t0yjh58uku"/>
                    <path fill="#D7BF6F" d="M1.773 11.04c2.802-1.703 4.203-2.27 4.203-1.703 0 .851-4.357 8.71 0 17.621 4.356 8.912 22.222 13.6 23.786 13.6s13.392.923 22.056-5.23c8.663-6.154-.251 7.473-4.898 9.784-4.647 2.311-18.552 2.62-20.439 2.62-1.886 0-13.794-4.594-17.15-4.73-3.355-.134-13.914-8.9-13.914-9.903 0-1.004-3.365-11.148-1.077-14.783 1.526-2.423 4.003-4.849 7.433-7.277z" mask="url(#z8thbgpm4v)"/>
                    <path fill="#D1B15E" d="M-.727 12.451c2.802-1.702 4.203-2.27 4.203-1.702 0 .851-4.357 8.71 0 17.621 4.356 8.912 22.222 13.6 23.786 13.6s13.392.923 22.056-5.23c8.663-6.154-.251 7.473-4.898 9.784-4.647 2.312-18.552 2.62-20.439 2.62-1.886 0-13.794-4.594-17.15-4.73-3.355-.134-13.914-8.9-13.914-9.903 0-1.004-3.365-11.148-1.077-14.783 1.526-2.423 4.003-4.849 7.433-7.277z" mask="url(#z8thbgpm4v)" opacity=".626"/>
                    <path fill="#D1B15E" d="M11.207 10.517C9.209 9.419 8.21 9.053 8.21 9.419c0 .55-1.516 10.665 1.499 14.55 3.015 3.885 10.652 9.942 23.33 9.942 8.452 0 15.698-1.086 21.737-3.258l-5.553-4.615H34.802l-11.14-3.063-7.442-6.257-5.013-6.201z" mask="url(#z8thbgpm4v)"/>
                    <path fill="url(#vmp3tu6pqs)" d="M7.107 3.673l6.438 1.519c-2.862 2.35-4.293 4.19-4.293 5.519 0 .8-.507-.31-1.937-.626-.442-.098-1.333.587-2.46.626-.32.011-.825-.198-1.516-.626l3.768-6.412z" mask="url(#z8thbgpm4v)"/>
                    <path fill="#AC885B" d="M7.064 2.897L8.474 2.897 9.424 3.803 12.508 2.897 11.342 -0.84 7.064 -1.523z" mask="url(#z8thbgpm4v)"/>
                    <path fill="#7E6444" d="M51.602 28.466c-1.214 1.892-1.214 3.427 0 4.604 1.214 1.178 2.498 2.084 3.852 2.718v-5.973l-3.852-1.349z" mask="url(#z8thbgpm4v)"/>
                    <path fill="url(#1jvqoi4fgt)" d="M5.605 10.108C6.954 5.416 7.791 3.07 8.115 3.07c.324 0-.513.123-2.51.369L4.431 7.603l-.33 2.79 1.504-.285z" mask="url(#z8thbgpm4v)"/>
                    <path fill="#E5D1A3" d="M4.818 21.3c.392 2.5 3.534 13.523 22.576 16.498 5.01.782 15.876.259 20.118-2.632-16.97 2.656-28.992.573-36.068-6.248-2.605-2.511-5.55-9.786-6.234-11.204-.439-.91-.784 1.086-.392 3.586z" mask="url(#z8thbgpm4v)"/>
                </g>
            </g>
            <g transform="translate(71.014 41.45)">
                <mask id="6z4gd1w10x" fill="#fff">
                    <use xlink:href="#qbz7zysvyw"/>
                </mask>
                <use fill="#EEA548" xlink:href="#qbz7zysvyw"/>
                <path fill="#ED9C34" d="M9.487 2.025c1.904.43 3.158.809 3.764 1.134 6.602 3.537 6.7 8.972 4.664 14.542-2.316 6.337-6.312 9.684-11.988 10.04l21.186-1.428 3.37-7.36V5.551c-4.336-2.323-7.648-3.846-9.936-4.567C18.844.448 10.969-.268 8.131.102c-.65.084-.198.725 1.356 1.923z" mask="url(#6z4gd1w10x)"/>
                <path fill="#D48B2E" d="M16.261 2.025c1.904.43 3.158.809 3.764 1.134 6.602 3.537 6.7 8.972 4.664 14.542-2.316 6.337-6.312 9.684-11.988 10.04l21.186-1.428 3.37-7.36V5.551C32.921 3.229 29.61 1.706 27.321.985 25.618.448 17.743-.268 14.905.102c-.65.084-.198.725 1.356 1.923z" mask="url(#6z4gd1w10x)"/>
                <path fill="#ED9C34" d="M16.935 2.922c-.21.819-.626 1.045-1.25.68-.708-.416-1.07.085-1.853 0-.87-.096-2.02-.181-2.939 0-3.852.754-5.577 6.28-6.487 8.587-1.549 3.928-2.038 6.87-1.467 8.826l-4.633-4.646L.126 5.43l5.74-4.21L14.21 0l2.724 2.922z" mask="url(#6z4gd1w10x)"/>
                <path fill="#4D3B29" d="M13.055.747c-.471.28-.471.542 0 .784.707.364 2.187 0 2.187-.392 0-.262-.277-.392-.83-.392-.177-.498-.394-.747-.65-.747s-.492.249-.707.747z" mask="url(#6z4gd1w10x)"/>
                <path fill="#F1B160" d="M5.529 20.838c-2.266-1.818-2.64-4.7-1.123-8.65 2.277-5.922 6.52-8.582 7.319-8.81.532-.153.858.88.976 3.097-1.768 6.142-2.652 10.736-2.652 13.782 0 3.046-1.507 3.24-4.52.581z" mask="url(#6z4gd1w10x)"/>
                <path fill="#F4C485" d="M9.495 5.884c-1.873.849-3.018 2.707-3.436 5.575-.417 2.869.155 5.214 1.718 7.034.257-6.12.83-9.539 1.718-10.254.888-.716.888-1.5 0-2.355z" mask="url(#6z4gd1w10x)"/>
            </g>
            <mask id="hhxd3rgzkz" fill="#fff">
                <use xlink:href="#tds8gp32yy"/>
            </mask>
            <use fill="#CFBBA5" xlink:href="#tds8gp32yy"/>
            <path fill="#C7AE94" d="M34.693 137.346c1.707.137 4.942.137 9.705 0 2.24-.064 6.74-1.694 9.622-1.694 12.074 0 31.169-1.642 57.284-4.927l-.663.657c-28.644 5.586-48.89 8.38-60.737 8.38-6.8 0-12.305 1.84-15.21 0-1.439-.911-4.79-3.816-10.056-8.715l10.055 6.299z" mask="url(#hhxd3rgzkz)"/>
            <path fill="#D8C7B5" d="M65.797 85.217h84.638v1.286c-18.742.979-32.848 1.468-42.32 1.468-9.47 0-23.264.918-41.382 2.754l-.936-5.508z" mask="url(#hhxd3rgzkz)" transform="rotate(90 108.116 87.971)"/>
            <path fill="#DB3939" d="M43.395 64.587l61.148-.529c.643 5.444.964 9.532.964 12.265v11.46L42.9 90.436l.496-25.848z"/>
            <path fill="#FFF" fill-rule="nonzero" d="M49.748 83.932c-.75.003-1.108-.355-1.112-1.096l-.004-.982c-.005-.76.348-1.123 1.098-1.125l4.417-.024-.01-2.042-3.234.016c-.75.004-1.106-.354-1.111-1.096l-.005-.98c-.005-.761.349-1.123 1.098-1.127l3.234-.016-.01-1.963-3.828.02c-.748.004-1.105-.356-1.11-1.096l-.005-.981c-.004-.763.35-1.124 1.099-1.127l6.883-.035c.73-.003 1.087.354 1.091 1.114l.062 11.393c.003.742-.35 1.104-1.08 1.108l-7.473.039zm15.915-12.748c.16-.757.541-1.079 1.396-1.084l1.724-.01c.85-.003 1.237.313 1.404 1.07l1.413 6.649h.04l1.081-6.664c.117-.758.501-1.078 1.396-1.084l1.661-.008c.69-.004 1.076.293 1.08.891 0 .12-.019.28-.058.438l-2.601 11.136c-.18.738-.542 1.099-1.497 1.105l-1.663.009c-.851.005-1.237-.312-1.404-1.068l-1.558-7.267h-.041l-1.483 7.284c-.157.759-.543 1.079-1.394 1.083l-1.664.01c-.953.004-1.32-.352-1.507-1.089L59.276 71.48c-.042-.16-.062-.318-.063-.438-.003-.598.4-.9 1.07-.903l1.42-.008c.892-.005 1.28.312 1.404 1.068l1.15 6.65h.04l1.366-6.664zm13.485 12.235c-.75.004-1.108-.355-1.111-1.097l-.005-.98c-.004-.761.35-1.124 1.098-1.128l4.419-.022-.012-2.042-3.235.016c-.75.006-1.106-.354-1.11-1.096l-.006-.981c-.002-.76.349-1.122 1.099-1.127l3.235-.016-.01-1.963-3.828.02c-.749.005-1.106-.355-1.11-1.095l-.005-.982c-.003-.76.35-1.123 1.098-1.126l6.885-.035c.73-.004 1.087.354 1.09 1.115l.063 11.394c.004.741-.349 1.103-1.078 1.106l-7.477.039zm17.354-8.041l-.01-2.925-1.005.007c-1.347.008-1.913.527-1.91 1.475.005.947.575 1.458 1.92 1.45l1.005-.007zm.902 7.79c-.77.005-1.137-.354-1.14-1.097l-.022-4.055h-.04l-2.372 4.088c-.442.765-.825 1.087-1.515 1.091l-2.411.015c-.59 0-1.077-.215-1.08-.678 0-.18.08-.402.24-.663l2.938-4.352c-1.91-.692-2.747-2.033-2.754-3.639-.015-2.71 1.597-4.324 5.857-4.347l4.154-.022c.752-.005 1.117.356 1.121 1.118l.059 11.422c.005.742-.358 1.106-1.11 1.11l-1.925.01z"/>
            <mask id="lnlhos1meB" fill="#fff">
                <use xlink:href="#94j105j08A"/>
            </mask>
            <use fill="#B59675" xlink:href="#94j105j08A"/>
            <path fill="#AC8A66" d="M36.522 137.541L24.394 130.522 15.072 120.58 16.308 128.192 27.149 138.473 34.642 140.87 36.522 140.037z" mask="url(#lnlhos1meB)"/>
            <path fill="#C7AE94" d="M82.028 54.472L86.377 54.472 86.377 29.565 56.232 29.565 56.232 55.072 61.329 54.559 60.858 33.431 82.098 33.431z" mask="url(#lnlhos1meB)"/>
            <path fill="#BEA284" d="M60.858 34.493L56.232 30.145 86.377 30.145 82.098 34.493z" mask="url(#lnlhos1meB)"/>
        </g>
        <circle cx="116.586" cy="125.217" r="30.435" fill="#D9EAF2"/>
        <g transform="translate(90.5 103.768)">
            <path fill="#1D354A" d="M.7 19.83l9.104 21.027c.378.873 1.386 1.28 2.264.915l38.213-15.903c.876-.364 1.298-1.364.948-2.247L42.764 2.275c-.354-.893-1.364-1.33-2.257-.976l-.03.012L1.627 17.534C.74 17.904.32 18.923.69 19.809l.01.02z"/>
            <mask id="zrx7f8udzD" fill="#fff">
                <use xlink:href="#93xyon0r0C"/>
            </mask>
            <use fill="#34638B" xlink:href="#93xyon0r0C"/>
            <path fill="#EBECF3" d="M7.462 20.645l8.588-3.467c.286-.115.613.014.743.294l2.118 4.56c.135.291.009.636-.282.77-.011.006-.024.011-.036.016l-8.8 3.383c-.292.112-.62-.027-.742-.315L7.146 21.41c-.125-.295.012-.635.306-.76l.01-.004z" mask="url(#zrx7f8udzD)"/>
            <path fill="#5F7C9F" d="M15.086 8.623L47.828 30.029 64.506 27.189 42.918 -6.6z" mask="url(#zrx7f8udzD)"/>
            <path fill="#4B6F95" d="M19.172 4.851L51.914 26.257 68.592 23.417 47.004 -10.372z" mask="url(#zrx7f8udzD)"/>
            <path fill="#34638B" d="M26.087 0.137L58.829 21.543 75.506 18.703 53.918 -15.086z" mask="url(#zrx7f8udzD)"/>
        </g>
        <circle cx="92.239" cy="154.203" r="4.638" fill="#BDDCE9"/>
    </g>
</svg>
